<?xml version="1.0" encoding="utf-8"?>
<!-- Generator: Adobe Illustrator 19.2.0, SVG Export Plug-In . SVG Version: 6.00 Build 0)  -->
<svg version="1.1" id="Layer_1" xmlns="http://www.w3.org/2000/svg" xmlns:xlink="http://www.w3.org/1999/xlink" x="0px" y="0px"
	 viewBox="0 0 1400 980" style="enable-background:new 0 0 1400 980;" xml:space="preserve">
<style type="text/css">
	.st0{fill:#FFFFFF;}
	.st1{fill:#FFFFFF;stroke:#000000;stroke-miterlimit:10;}
</style>
<g>
	<g>
		<path d="M576.1,379.9c-1.4,1.9-1.9,1.5-4.3,1.5c-1.5,0-2.6-0.3-4.1-0.7c-4.2-1.3-8.3-1.8-12.3-3.6c-1.8-0.8-3.7-1.2-5.6-0.7
			c-2,0.5-3.1,1-5-0.1c-1.4-0.7-2.3-1.7-3.8-2.3c-1.5-0.6-2.4-1-3.5-2.1c-2-1.9-2.8-2.1-5.4-2.4c-1.8-0.2-2.8-1-4.4-1.7
			c-0.8-0.4-1.7-0.5-2.5-1c-0.8-0.5-0.9-1.4-1.7-1.9c-2.1-1.3-4.9,0.6-7,0.8c-2,0.2-4.4-0.7-6.3-1.4c-2.5-1-4.7-2.4-7.1-3.4
			c-2-0.9-4.2-1.8-6.2-2.7c-3.7-1.7-7.4-3.7-10.7-5.9c-1.7-1.1-2.9-2.2-4.8-2.8c-0.9-0.3-1.5-0.4-2.4-0.9c-2.1-1.1-4.4-1.4-6.4-2.4
			c-0.9-0.4-1.5-1.2-2.4-1.6c-0.9-0.5-1.9-0.7-2.9-1.2c-2.4-1.2-5-1.9-6.9-3.9c-1-1.1-2-2.3-2.8-3.6c-0.9-1.4-1.4-2.8-2.2-4.3
			c-1.2-2.3-2.7-1.5-4.6-0.7c-0.8,0.3-1.7,0.7-2.3,1.3c0,0-0.7,1.3-0.9,1.4c-1.6,0.8-2.3-1.6-3.6-2c-3.4-1.3-4.2,2.1-6.9,2.7
			c-1.3,0.3-2.8-0.6-4.3-0.6c-1.8,0-2.3-0.2-3.9-0.9c-2.8-1.2-4.9-2-6.7-4.3c-2.1-2.6-5.4-1.7-8.2-3.1c-1.8-0.9-2.8-2.6-4.4-3.7
			c-1.1-0.7-2.4-0.8-3.5-1.6c-1.3-0.9-1.8-1.6-2.5-2.9c-1.2-2.4-3.5-3.8-5.1-6c-2.8-3.9-11.3-5-15.7-3.6c-1.9,0.6-3.8,2.7-5.5,3.7
			c-1,0.6-1.4,1.1-2.6,1.4c-1.5,0.3-2.6,0.4-3.8,1.3c-1.4,0.9-2.9,2.2-4.5,2.9c-1.2,0.5-2.5,0.6-3.7,1.1c-3,1.2-6.1,1.7-9,2.8
			c-2.9,1.1-4.3,3.8-5.4,6.7c-1.4,3.6-2.3,7.6-6.9,6.6c-1-0.2-2-0.2-3-0.4c-1-0.2-1.5-1-2.5-0.6c-0.9,0.4-1.9,2.1-2.4,2.9
			c-1.1,1.7-2.2,3.6-3.3,5.3c-1.4,1.9-3.1,1.5-5.2,1.5c-2.8,0-4.7,0.4-7.3,1.3c-0.7,0.3-2,1.1-2.8,1c-1.3-0.1-1.7-1.6-3-1.7
			c-2.3-0.1-2.9,3.1-4.7,3.9c-1.8,0.7-2.9-0.6-4.1-1.8c-0.5-0.5-0.9-1.1-1.6-1.3c-0.9-0.3-1.7,0.1-2.7-0.3c-1.3-0.6-2.1-1.9-3-3
			c-0.8-0.9-1.4-2.2-2.2-3c-0.9-0.8-2.2-0.8-3.4-1.2c-1.2-0.4-3.5-2.2-4.5-1.1c0.2-0.2-1.7,1.9-1.4,1.8c-1.3-0.1-2.3,2.2-3,3.1
			c-0.8,1.2-1.1,2.3-2.3,3.2c-1.1,0.9-2.6,1.3-3.9,2.1c-2.8,1.7-6.2,2.5-8.8,4.3c-2.5,1.8-4.5,4.2-7.2,5.9c-2.1,1.4-4.2,2.6-6.3,3.9
			c-2.4,1.6-3.5,3.2-5.4,5.3c-1.4,1.6-2.9,2.8-5.1,2.8c-1.8,0-2.5,0.2-3.9,1.4c-3.2,2.7-6,5.9-9.2,8.6c-1.2,1-2.9,3.6-4.4,4.1
			c-1,0.3-2.3,0-3.4,0c-3.8,0.2-3.2,4.1-5.6,6c-1,0.8-1.6,1.1-2.7,0c-0.2-0.2-0.5-1.2-0.8-1.5c-0.6-0.8-1.5-0.9-2.8-0.2
			c-2.5-0.2-5-0.4-7.6-0.6c-2.1,0.5-3.1,4.7-2.9,6.3c0.6,3.7,1.7,8,3,11.5c1.3,3.4,3.6,8.1,6.3,10.5c2.1,1.9,4.9,1.9,7.6,2.4
			c2.8,0.5,4,2.5,5.2,5c2.5,5.3,4.4,10.7,9,14.6c4.1,3.6,9.4,4.6,14.4,6.7c3.3,1.4,6.6,2.9,10.1,3.8c1.8,0.5,3.7,1,5.6,1.1
			c2.3,0.1,3.9-0.6,6-1.4c3.3-1.2,7-1.6,10.2,0c3.6,1.9,7.1,1.2,11.2,1.5c3.9,0.2,8.1,0.7,11.9,1.4c6.8,1.2,11.7,6.1,19,4.9
			c6.9-1.1,13.5-3,20.6-1.7c5.2,0.9,11.1,2,15.9,4.3c4.8,2.3,8.9,5.9,14.5,6c7,0.2,14.5-0.5,21.5-1.3c14.2-1.5,27.5-7.7,40.4-13.6
			c12.6-5.8,25.8-9.7,39.5-11.5c8.3-1.1,16.3-4.1,24.7-3c5.7,0.8,10.8-0.5,16.2-1.8c6.5-1.5,12.2-3.3,18.3-6.2
			c6.5-3.1,13.7-5.3,17.4-12c2.7-4.7,6.8-9.4,11-13c1.7-1.4,3.7-2.6,5.1-4.4c0.7-0.9,1-1.8,1.8-2.6c1.3-1.2,2.5-1.7,3.7-3.1
			c0.9-1.1,1.1-2.2,1.9-3.2C571.9,386.4,575.8,380.9,576.1,379.9z"/>
		<path class="st0" d="M295.8,362.7c-1,0.7-2.4,1.3-3.2,2.2c-0.4,0.4-0.5,1.1-0.8,1.5c-0.7,0.8-2,1-2.6,1.9c-0.8,1.1-0.8,2.7-1.5,4
			c-1.3,2.4-2.8,4.6-4.9,6.3c-1.9,1.6-3.8,3.2-5.3,5.2c-0.7,0.9-1.2,2-2,2.7c-0.7,0.6-1.4,0.7-2,1.2c-1.8,1.6-2.4,4.6-3.3,6.7
			c-1.1,2.6-2.4,5.1-3.5,7.7c-0.5,1-1.2,2.1-0.9,3.2c1.1-0.5,2.6-2.2,3.6-3.1c1-1,2.2-3.3,3.7-3.6c1,1.6,0.6,2.3,2.5,2
			c1.3-0.2,2.3-0.6,3.7-0.6c0.5,0,1,0.1,1.4,0.1c1.6-0.3,2.5-1,3.7-1.9c1-0.8,2.3-1.1,3.3-1.8c1.4-1,3.1-2.8,4-4.3
			c1.3-2,1.3-3.9,3.9-4c3.4-0.1,6.7,0,10.1,0c3,0,5.6-0.8,8.7-0.7c5.1,0,11.4,1.2,15.9-1.5c1.1-0.7,2.5-1.3,3.4-2.2
			c0.6-0.6,0.9-1.6,1.6-2.1c1.1-0.9,2.5-1.3,3.6-2.2c1.3-1,2.5-2.1,3.9-3c0.9-0.5,1.9-0.9,2.8-1.5c0.5-0.3,1.7-0.8,2.1-1.1
			c0.8-0.7,0.9-2,1.6-2.9c0.9-1.1,1.9-1.9,2.6-3.2c2-3.1,4.6-5.5,7.8-7.3c0.8-0.5,2.2-0.4,2.8-0.8c0.7-0.5,0.8-2,1.1-2.7
			c0.8-2.2,2.2-4.7,3.4-6.9c0.9-1.7,1.1-3.7,2.6-5c1.2-1.1,2.7-2.4,4.2-3.2c0.9-0.5,1.8-0.7,2.6-1.2c0.6-0.4,0.9-1.1,1.4-1.5
			c0.9-0.7,2-0.9,2.9-1.7c1.6-1.5,2.5-3.2,4.5-4.3c1.5-0.8,0.6-0.5,2.2-0.4c1.7,0.1,2.4,0.9,3.8,1.5c2.2,1,4.4,1.7,6.7,2.4
			c1.5,0.5,3.2,1.6,4.9,1.6c-1.4-1.2-2.6-2.5-3.8-3.8c-1.4-1.3-2-2.8-3.4-4.1c-1.6-1.5-3.1-2.2-4.3-4.1c-1-1.7-1.7-3.3-2.6-5
			c-0.8-1.6-1.7-3.3-2.6-4.9c-0.4-0.7-1.3-1.3-1.5-2.2c-0.2-0.6-0.2-1.2-0.2-1.8c-0.4,0.2-1.3,0.9-1.8,1.3c-0.8,0.6-1.7,1.3-2.6,1.9
			c-0.1,0.1-0.3,0.2-0.5,0.3c-0.7,0.5-1.8,1.3-3.6,1.7c-0.3,0.1-0.6,0.1-0.9,0.2c-1,0.2-1.1,0.2-1.3,0.4c-0.3,0.2-0.7,0.5-1.2,0.8
			c-1.1,0.8-2.4,1.8-4.1,2.5c-0.9,0.4-1.8,0.6-2.5,0.8c-0.5,0.1-0.9,0.2-1.2,0.3c-1.9,0.8-3.7,1.3-5.5,1.8c-1.3,0.4-2.5,0.7-3.7,1.1
			c-0.9,0.3-1.6,1.4-2.5,3.8c-0.1,0.3-0.2,0.7-0.4,1c-0.7,1.9-1.5,4.1-3.1,5.9c-2.3,2.6-5.5,3.5-9.1,2.8c-0.2-0.1-0.6-0.1-1-0.1
			c-0.5-0.1-1-0.1-1.6-0.2c0,0-0.1,0.1-0.1,0.1c-0.4,0.7-0.9,1.4-1.4,2.2c-0.6,1-1.3,2.1-2,3.2c-2.7,3.8-6.4,3.7-8.4,3.6
			c-0.3,0-0.6,0-0.9,0c-2,0-3.4,0.2-5.6,1c-0.1,0-0.2,0.1-0.4,0.2c-1,0.5-2.6,1.3-4.5,1.1c-0.9-0.1-1.6-0.3-2.2-0.6
			c-0.7,0.9-1.7,1.8-3.1,2.4c-2.6,1.1-4.8,0.6-6.4-0.3c-0.2,1.8-0.5,3.4-1.5,5.3C299.9,359.2,298.1,361.1,295.8,362.7z"/>
		<path class="st0" d="M444.3,338.5c0.1-0.1,0.2-0.2,0.2-0.3c-0.7-0.3-1.4-0.7-2.2-1.4c-0.9,0.8-2.3,1.8-4.1,2.2
			c-2,0.5-3.8,0-4.9-0.3c-0.2-0.1-0.6-0.2-0.7-0.2c-1.9,0-3-0.3-4.2-0.7c-1,0.2-1.9,0.3-3.1,0.3c-1.3,0-3.2,0.1-4.3,0.9
			c-1.5,1-1.1,1.4-3.1,1.3c-2.2,0-7.5-0.7-7.5,2.2c0,1.3,0.7,2.3,1,3.6c0.1,0.8,0.4,0.6,0,1.7c-0.2,0.5-0.7,1-1,1.4
			c-1.3,2.6-0.8,6.1-0.7,9c0,1.6,0.1,3.3-0.8,4.8c-0.6,0.9-1.6,1.7-2.3,2.6c-1.6-1.2-2.2,0.5-3.5,1.6c-1.6,1.4-3.3,1.8-5.3,1.3
			c-1.8-0.5-3.5-1.9-5.1-0.6c-1.4,1.1-1,1.4-3.1,1.7c0.5,1.3,3.2,2.8,4.4,3.6c1.2,0.8,1.5,1.7,2.4,2.8c1.8,2.2,4.3,3.1,4.3,6.2
			c0,0.6,0.2,1.7,0,2.3c-0.2,0.6-0.7,0.8-0.8,1.4c-0.7,2.7,1.2,2.3,3.1,2.3c2.2,0,4.4,0,6.6,0c2,0,2.9,1.1,4.8,1.4
			c2.5,0.5,2.7-1.8,4.9-2.2c1.6-0.3,3,0.3,4.4,0.6c3.7,1,8.7-1.2,11.9,0.8c2.2,1.4,2.9,3.6,4.6,5.3c0.9,0.9,2.2,1.2,3.2,1.8
			c1.3,0.8,1.6,1.2,2.6,2.4c1.3,1.6,2.5,3.1,3.7,4.7c1.1,1.4,2.8,2.1,3.8,3.5c-0.4-6.5-3.1-12.9-4.6-19.2c-0.4-1.7-0.4-3.6-0.8-5.3
			c-0.5-2-1.8-3.6-2.4-5.5c-1-3.1-0.8-6.7-1.4-10c-0.5-2.8-1.2-3.3-3.2-5.4c-1.5-1.6-2.5-3.2-3.4-5.2c-0.7-1.6-0.7-3-1.1-4.8
			c-0.3-1.4-0.3-1.8,0.5-3.2C439.4,344.6,441.5,341.3,444.3,338.5z"/>
		<path class="st0" d="M282.1,347.5c-1.2,0.9-2.4,1.5-3.4,2c-0.4,0.2-0.8,0.4-1.1,0.5c-1.5,0.9-3,1.5-4.4,2.1
			c-1.5,0.6-2.9,1.2-3.9,2c-1,0.7-1.9,1.5-2.9,2.4c-1.3,1.2-2.8,2.5-4.5,3.7c-1.1,0.8-2.3,1.4-3.4,2.1c-1,0.6-2,1.2-2.9,1.8
			c-1.4,0.9-2.2,1.9-3.4,3.3c-0.3,0.4-0.6,0.7-1,1.1c-1.1,1.2-3.9,4.5-8.8,4.5c-0.2,0-0.3,0-0.4,0c-0.1,0.1-0.2,0.1-0.3,0.3
			c-1.6,1.3-3,2.7-4.6,4.3c-1.4,1.4-2.9,2.9-4.6,4.3c-0.2,0.1-0.6,0.6-0.9,1c-1.3,1.5-3,3.4-5.3,4.1c-1.5,0.5-2.9,0.4-3.9,0.3
			c0,0.1-0.1,0.2-0.1,0.2c-0.2,0.5-0.5,1.1-0.9,1.8c0.3-0.1,0.5-0.3,0.8-0.3c2.4-0.7,4.5-0.8,6.8-0.1c1.2,0.3,1.5,0.1,2.4-0.4
			c1.2-0.6,1.7-0.7,3-0.9c2.9-0.5,5.6-4,8.5-3.8c-0.8,0.9-1.2,2.6-1.8,3.7c-0.8,1.8-2.2,4-2.3,6c0.7-0.2,0.9-0.9,1.5-1.4
			c0.8-0.8,2-1.3,2.9-1.9c2.4-1.4,4.4-3.1,6.6-4.7c2-1.4,4.2-2.2,6-3.9c0.9-0.8,2-1.8,3.2-2.1c1.3-0.3,2.4-0.2,3.7-0.7
			c1.6-0.6,2.7-1.4,4.3-1.9c1.4-0.4,2.1-0.7,3.6-0.4c1.1,0.2,0.9,0.8,2-0.1c1.4-1.2,2.1-3.3,3-4.8c1-1.6,1.2-2.3,2.9-2.7
			c2.1-0.5,4.6-1.1,6.4-2.2c0.8-0.5,1.9-1.3,2.4-2.1c0.8-1.1,0.2-2,0.7-3.2c0.5-1.3,4.1-4.9,5.9-5.2c-0.9-0.2-1.6-2.2-2.5-2.8
			c-0.4-0.1-0.8-0.2-1.2-0.3c-0.1-0.4-0.2-0.8-0.3-1.2c-0.4-0.8-0.5-1-0.6-2c-0.1-0.9,0-1.6,0.2-2.5c0.2-0.8,1.1-1.1,0.4-2.3
			c-0.6-1-2.3-2.2-3.2-3.1c-0.1-0.1-0.2-0.2-0.3-0.3c-0.2,0.2-0.5,0.7-0.6,1c-0.2,0.3-0.3,0.5-0.4,0.7c-0.2,0.2-0.3,0.5-0.5,0.8
			C284.4,344.9,283.7,346.3,282.1,347.5z"/>
	</g>
	<g>
		<path d="M551.6,623.8c-2.5,0.9-5-0.8-7.4-1.5c-2.6-0.7-4.7-2.6-7.3-3.3c-2.8-0.7-4.8-1.8-7.8-1.8c-2.9,0-6.3,0.5-9.2,0.1
			c-1.3-0.2-2.2-1-3.4-1.4c-2.1-0.7-4-0.6-6.1-0.6c-5.2-0.1-9.6-3-14.8-2.6c-6,0.4-12.6,1.8-18.4-0.7c-0.1-0.1-7.2-5.2-4.6-5.2
			c0,0.2-0.1,0.4-0.1,0.6c-1.5-0.1-1.6-3.7-2.6-4.6c-1.3-1.3-3.7-0.3-5.3-1.1c-2.3-1.1-5.4-4.1-6.2-6.7c-1-3.1,1.4-5.7-2.4-7.7
			c-2.9-1.5-6.2-2.5-9.2-3.7c-2.1-0.8-4.4-0.7-6.4-1.4c-2.4-0.9-2.8-4.1-3.6-6.3c-0.5-1.2-0.9-2.2-1.6-3.2c-0.5-0.8-1.2-2-1.8-2.7
			c-0.7-0.9-1.6-0.9-2.5-1.5c-0.7-0.6-1.8-1.8-2.4-2.5c-0.9-0.9-1.8-1.6-2.6-2.4c-0.8-0.8-0.9-2-1.6-2.7c-1.7-1.7-4.7,0.1-6.7-0.6
			c-1-0.4-1.2-1.5-2-2.2c-1.1-1-2.8-1.4-4.2-2c-3-1.4-4.5-2.6-5.9-5.6c-1-2.2-2.7-5.2-4.4-6.9c-1.5-1.5-1.1-2.7-1.6-4.7
			c-0.2-0.9-0.5-1.2-0.5-2.1c0-0.6,0.1-1.2-0.1-1.9c-1.7,0-3.2-1.9-4.6-2.6c-2.4-1.1-3.5-1-5.7,1c-4.3,4.1-7.5,8.8-11.2,13.3
			c-1.3,1.5-2.1,2.6-3.9,3.2c-0.7,0.2-1.8,0.5-2.5,0.6c-0.6-0.1-1.3-0.1-1.9,0c-1.2,0.4-2.4,1.1-3.4,1.9c-1.7,1.2-3,2.7-4.7,3.8
			c-2.4,1.6-4,4.6-7.1,5.3c-1.1,0.2-2.1-0.1-3.2,0.2c-2.1,0.6-3.7,2.4-5.9,2.9c-2.2,0.5-11.7,2.1-12.5-1.1c-1.4,0-2.6-0.2-3.9-0.6
			c-0.8-0.3-1.6-0.4-2.4-0.7c-0.6-0.2-1.5-0.6-2.2-0.7c-2.7-0.5-6,0.5-8.5,1.5c-1.4,0.5-2.4,1.8-3.9,2.4c-1.3,0.4-2.7,0.8-4,1.3
			c-2.7,1-5.3,1.6-7.8,2.8c-1.9,0.9-3.3,0.7-5.2,0.1c-2.5-0.7-4.3,2-5.8,3.6c-3,3.2-4.8,7.6-7.7,10.8c-1.6,1.7-3.2,3.1-5.1,4.4
			c-3.8,2.8-8.6,5.2-12.9,7.2c-2.8,1.4-5.6,1.4-8,3.5c-0.8,0.7-1.6,1-2.5,1.6c-1.1,0.8-1.8,2.2-3.1,2.6c-1,0.3-2.2,0-3.3,0
			c-2.1,0.1-4.2,0.8-6.2,1.5c-2.8,1-9.2,3.7-11.9,0.7c0.1,0,0.3-0.1,0.4-0.1c-2.2,0-2.7,2.6-3.2,4.8c-0.3,1.3-0.3,3.8,0.1,5
			c0.5,1.7,1.6,2.4,1.2,4.4c-0.2,1-0.6,1.6-0.6,2.6c0,0.1,0.5,0.6,0.6,0.8c0.1,0.4,0,1,0,1.3c0,2.6-1.7,4.1-2.5,6.5
			c-0.3,1,0,1.7,0.2,2.6c0.2,0.9,0.3,2,0.6,3c1,2.7,4.9,5.6,6.9,7.7c1.4,1.5,3,3.1,4.7,4.4c1.4,1.1,2.9,1.7,4.4,2.5
			c2.1,1.2,3.7,2.4,5.4,4.1c4.1,3.8,7,7.8,12.4,9.8c3.2,1.2,6.1,1.8,8.8,4c2.7,2.2,4.3,4.9,6.1,7.7c2.6,4.1,7.7,4.1,12,5.2
			c4.3,1.1,9,1.6,13.1,3.6c4.8,2.4,8.7,6.5,14.1,7.4c2.6,0.4,5.1,0.6,7.7,1c3.9,0.6,7.7,1.8,11.6,2.3c7.1,0.8,13.8-1.6,20.6-3.2
			c8.2-2,16.9-3.7,25.3-3.3c8.2,0.3,15.1,5.1,23.4,5.4c6.8,0.2,13.3-1.3,20.1-1.4c5-0.1,10,0.3,15-0.3c5.5-0.6,10.5-2.7,15.8-4.4
			c4.4-1.4,8.5-2.5,13.2-2.5c1.6,0,3.2,0.1,4.8,0.1c2.4-0.1,4.8-0.9,7.1-1.3c8.1-1.7,16.2-4.5,23-9.4c1.8-1.3,3-2.8,4.4-4.4
			c2.1-2.3,4.2-4.3,6.8-6.1c3.4-2.5,6.9-4.5,10.5-6.7c1.2-0.7,2.2-1.6,3.3-2.3c0.7-0.4,1.5-0.6,2.1-1.2c0.8-0.6,1.4-1.7,2.1-2.5
			c1.5-1.6,3.1-3.2,4.6-4.7c2.5-2.4,5.1-3.8,6.6-7.1c0.8-1.8,2.1-2.7,3.2-4.2c1.6-2.1,1.3-4.8,2.8-6.9
			C547.3,628.7,552.1,625.4,551.6,623.8z"/>
		<g>
			<path class="st0" d="M448,589.5c-1-0.4-2-0.7-3.1-1.1c-0.6-0.2-1.4-0.3-2.3-0.5c-1.2-0.2-2.6-0.4-4-0.9c-4.2-1.5-5.5-5.6-6.2-8.1
				c-0.1-0.4-0.3-0.9-0.4-1.2c-0.4-1.1-0.6-1.5-1-2.1c-0.3-0.4-0.6-0.9-0.9-1.3c-0.1-0.2-0.3-0.5-0.4-0.7c-0.5-0.2-1.3-0.6-2.1-1.2
				c-0.8-0.6-1.6-1.5-2.2-2.2c-0.2-0.2-0.4-0.5-0.6-0.7c-0.3-0.4-0.8-0.7-1.2-1.1c-0.4-0.4-0.9-0.8-1.4-1.3
				c-0.6-0.6-1.1-1.3-1.4-1.9c-1.4,0.2-3.2,0.4-5.1-0.3c-2.2-0.8-3.3-2.5-3.8-3.3c-0.3-0.1-0.8-0.3-1.2-0.5
				c-0.5-0.2-1.1-0.4-1.7-0.7c-3.6-1.7-6.2-3.6-8.3-8c-1.1-2.3-2.4-4.5-3.5-5.5c-2.2-2.3-2.5-4.5-2.7-6c-0.1-0.4-0.1-0.7-0.2-1.1
				c0-0.1,0-0.1-0.1-0.3c-0.1-0.3-0.3-0.8-0.4-1.3c-0.2-0.1-0.4-0.3-0.6-0.4c-0.4,1.8-1.2,3.8-1.9,5.4c-0.5,1.1-1.8,2.5-1.9,3.6
				c-0.1,1.9,3.1,2.9,4,4.4c1,1.6,0.7,3-0.4,4.5c-0.4,0.5-0.8,0.6-1,1.3c-0.2,0.6-0.1,1.3-0.5,2c-0.7,1.6-1.2,2.7-0.7,4.5
				c1.1,0.2,1.5,0.2,2.5,0.7c0.8,0.4,1.6,0.8,2.2,1.4c0.3,0.3,0.7,0.9,1,1.1c0.6,0.3,0.9-0.1,1.4,0.1c1.3,0.4,1.8,1.7,2.7,2.5
				c1.7,1.6,4.4,2.1,6.2,3.4c2.7,1.8,4.2,4.8,6,7.4c1.5,2.2,2.8,4.8,4.8,6.6c2.3,2,5.1,3.3,7.6,5c1.7,1.1,3,2.4,4.3,4
				c0.7,0.8,1.3,2.2,2.2,2.7c1.3,0.8,2.9,0.7,4.7,0.4c2.1-0.4,6.5-1.6,8,0.6c2.1,3.1,1.2,7.1,1.9,10.5c0.3,1.4,1,2.7,1.4,4.1
				c0.3,1.1,0.3,2.1,0.5,3.1c0,0.2,0.4,1.2,0.4,1.3c-0.3,1.1-1.6,0.8-2.5,0.8c-2.1,0-3.6,0.8-5.3,2c-2.3,1.6-4.5,4.1-5.9,6.5
				c-0.9,1.6-0.6,1.9,0.9,2c2.4,0.1,4.8,0,7.1,0c3.1,0,5.7,1.5,8.5,2.6c1.5,0.6,4,1.3,3.9,3.2c0,1.9-1.9,3.7-2.5,5.4
				c-1.1,3.1,2.2,2,3.8,2.6c2.2,0.8,4.2,3.5,6.5,3.8c1.1,0.2,1.9-0.1,2.9,0.7c1,0.8,1.4,2.2,2.4,3.1c2.3,2.3,3.5-1.2,5.9-0.6
				c1.3,0.3,1.8,2.3,2.5,3.5c0.4,0.8,1.1,2.8,2,3c0.1-0.8,0.5-1.6,0.8-2.4c0.3-0.8,0.3-2,0.8-2.7c0.3-0.4,0.9-1,1.3-1.3
				c1.1-0.9,1.9-0.5,3.1-0.8c2.1-0.5,4.3-0.9,6.4-1.5c1.3-0.4,2.5-1,3.4-2c0.8-0.8,0.9-1.1,1.8-1.7c1.3-0.8,1-0.7,2.1-1.9
				c4.4-5,12.2-7.5,18.7-6.6c3.7,0.5,6.7,1,9.5,3.8c1.3,1.3,2.6,2.7,3.9,4.2c0.7-0.7,1.5-1.3,2.1-1.9c1.7-1.4,2.6-2.3,3.3-3.6
				c0.9-1.9,2-3.1,2.9-4c0.4-0.4,0.7-0.7,0.9-1.1c0.2-0.3,0.4-1,0.6-1.8c0.3-1.3,0.8-3.1,2-4.9c-1.7-0.5-3.1-1.3-4.3-2
				c-1-0.5-1.8-1-2.5-1.2c-1-0.3-1.9-0.5-2.6-0.8c-1.6-0.5-2.6-0.8-3.8-0.8c-0.8,0-1.7,0.1-2.6,0.1c-2.3,0.1-4.8,0.2-7.3-0.1
				c-1.6-0.2-2.8-0.8-3.7-1.3c-0.3-0.1-0.5-0.3-0.7-0.3c-0.9-0.3-2-0.3-3.4-0.3c-0.4,0-0.8,0-1.1,0c-3.1,0-5.8-0.8-8.2-1.5
				c-2.3-0.7-4.3-1.2-6.2-1.1c-1.1,0.1-2.2,0.2-3.4,0.3c-5.4,0.5-11.4,1.1-17.3-1.3c-1-0.4-3.1-2.2-4-2.9c-1-0.8-2.4-2-3.3-3.5
				c-0.9-1-1.4-2.3-1.7-3.2c-1.1,0-2.5-0.2-3.9-0.9c-3.2-1.6-7.4-5.5-8.8-9.5c-0.7-2.1-0.6-3.9-0.5-5.1
				C451.5,590.8,449.8,590.2,448,589.5z"/>
		</g>
		<g>
			<path class="st0" d="M350.2,567.5c1.1,1.9,2.1,3.8,3,5.8c0.3,0.7,0.7,1,1.1,1.7c1,1.6,1.8,3.3,2.7,5c0.5,1,1.4,5,2.4,5.2
				c0.1-0.8,0.7-1.2,0.8-1.9c0.2-0.8-0.1-1.7,0.1-2.5c0.3-0.2,0.5-0.4,0.5-0.8c0-0.5,0-0.9-0.1-1.4c0.1-0.5,0.5-1.4,0.7-1.9
				c0.7-1.8,0.6-3.5,1.5-5.2c0.8-1.7,1.9-3.9,3.2-5.2c2.4-2.4,3.5-4.8,4.5-7.9c0.3-1.1,0.9-2.1,1.4-3l-1.2,0.3l-0.9-0.1
				c-0.5,0.2-1,0.5-1.5,0.9l-0.1,0.1c-0.6,0.4-1.2,1-1.8,1.5c-0.9,0.8-1.9,1.6-3,2.4c-0.5,0.3-1.1,0.9-1.7,1.5
				c-1.6,1.6-3.7,3.8-7.1,4.5c-1.1,0.3-2.1,0.2-2.8,0.2c-0.1,0-0.2,0-0.2,0c-0.3,0.2-0.8,0.5-1.3,0.8
				C350.3,567.5,350.2,567.5,350.2,567.5z"/>
		</g>
		<g>
			<path class="st0" d="M351.4,688.2c7.9-1.9,17.3-3.8,26.6-3.4c4.8,0.2,8.9,1.6,12.9,2.9c3.6,1.2,7,2.3,10.4,2.4
				c3.4,0.1,6.9-0.3,10.5-0.7c3-0.3,6.1-0.7,9.3-0.7c1.9,0,3.7,0,5.4,0c3.2,0,6.2,0.1,9.1-0.3c3.8-0.4,7.4-1.7,11.3-3
				c1.2-0.4,2.4-0.8,3.5-1.2c3.5-1.1,6.7-2,10.2-2.4c-0.8-0.6-1.6-1.3-2.3-1.9c-1.7-1.6-3.3-3.4-4.9-5.1c-1.4-1.5-3.1-2.9-4.3-4.6
				c-2.3-3.1-4.2-6.5-6.5-9.7c-1-1.4-2.3-2.3-3.4-3.5c-1.6-1.7-3.1-3.4-5.2-4.5c-1.7-0.9-3.3-1.3-4.8-2.7c-1.5-1.3-2.6-2.9-3.9-4.3
				c-1.8-1.9-3.9-4.3-5.2-6.5c-0.9-1.4-0.7-3.7-1.2-5.4c-0.8-2.4-3.4-3.4-4.5-5.6c-1.3-2.4-2.7-4.6-4.5-6.7c-1-1.1-2.1-1.7-3-2.8
				c-1.2-1.4-2-3-2.9-4.6c-1.3-2.4-3.4-3.5-4.9-5.5c-0.9-1.3-0.9-2.8-1.6-4.2c-0.6-1.5-1.3-3-2-4.4c-0.8-1.8-2.2-3.6-3.3-5.3
				c-0.6-0.9-1-1.3-2.2-1.4c-2.2-0.3-4.8,0.6-6.9-0.1c-0.1-0.3,0,0.4,0.4,0.7c-0.3-0.2-0.6-0.3-0.9-0.5c-0.7,2.4-0.1,5.6-0.1,8.1
				c0,2.4-0.9,4.5-2.6,6.2c-0.8,0.8-2.5,1.6-2.7,2.6c-0.2,0.7,0.1,1.9,0.1,2.6c0,1.5-0.4,3.7,0.1,5.1c0.6,1.5,3.1,3.7,4.4,4.8
				c1.4,1.1,3.1,1.6,4.4,2.7c0.9,0.7,1.5,1.9,2.5,2.5c1.5,1,1.3,0.9,2.3,2.4c1.2,1.9,2.2,4,3.4,5.8c-0.8-0.7-1.8-1.9-2.9-2.3
				c-1.4-0.5-3.6-0.1-5.1-0.1c-1.1,0-2.6-0.3-3.5,0.4c-0.6,0.5-0.7,1.1-1,1.8c-0.3,0.6-1,1.1-1.2,1.7c-0.5,1.3,0.4,1.6-1.1,2
				c-0.7,0.2-1.9,0-2.6,0c-1,0-2.1,0.2-3-0.3c-1.2-0.7-1.1-2.4-1.9-3.4c-1.2-1.6-4.4-1.4-6.3-1.9c-2.4-0.6-4.7-1.6-7.2-1.6
				c-0.7,0-1.9-0.3-2.3,0.4c-0.5,0.9,1.3,2.9,1.7,3.4c1.6,1.8,5.3,3.9,5.9,6.2c0.6,2.2-1.8,2-1.7,3.8c0.1,0.8,1,1.3,1.4,1.9
				c0.3,0.5,1.3,2.6,1,3.2c-1,2.4-4.5-0.3-5.8-0.6c-0.7-0.2-2.6-0.2-3.2,0.1c-1,0.6-1,2.1-0.8,3.2c0.5,2.2,2.3,3.8,3.3,5.7
				c0.7,1.2,0.9,2.6,1.4,4c0.5,1.1,1.3,2.1,1.2,3.4c-0.1,2.2-1.8,1.7-3.3,2.7c-1.5,1-1.9,2.8-3,4.2c-1,1.3-2.5,2.5-3.7,3.7
				c-1.6,1.5-2.4,2.4-1.2,4.6c0.8,1.3,3,3.3,2.6,5C352.1,687.5,351.8,687.8,351.4,688.2z"/>
		</g>
		<g>
			<path class="st0" d="M286.7,670.2c0.9-2.6,0.4-6.2,0.4-9c0-1.8,0.5-3.2,0.7-4.9c0.2-1.5,0-3.3,0-4.8c0-3.3-0.3-6.8,0-10.1
				c0.2-2.6,2.3-4.7,3.1-7.2c1-2.8,1.6-5.5,4.1-7.3c1.5-1.2,2.8-2.8,3.1-4.6c0.5-2.3-0.5-3.9-1.2-6c-1.6-4.9-0.7-11.2-0.6-16.4
				c0-2-0.6-3.2-1-4.9c-0.2-0.6-0.8-3.6-1.8-3.8c-0.7-0.2-2.7,2.5-3.4,2.9c-2,1-3,1.9-4.6,3.6c-1.9,2.1-3.6,4.4-5.6,6.5
				c-1.5,1.7-3.9,5.2-6.4,5.4c-0.2,1.6-1.3,2.6-2.1,3.9c-0.7,1.2-0.9,2.5-2,3.3c-1.1,0.8-2.8,1.2-4,1.9c-1.7,1.1-3.2,2.5-4.8,3.7
				c-1.4,1.1-3.1,2.3-4.9,2.7c-1.3-0.4-2.9,3.5-3.9,3.9c-2.6,1-5.5,0.7-8.2,0.3c-3.1-0.4-6.3-0.6-9.4,0.1c-1.4,0.4-2.7,0.8-4,1.4
				c-0.4,0.2-0.7,0.4-1.1,0.6c-0.1,0.2-0.2,0.3-0.2,0.5c0,0.1,0.1,0.2,0.1,0.3c0.2,0.6,0.3,1.3,0.3,1.8c0,0.3,0.1,0.7,0.1,0.8
				c0.3,0.8,2.3,2.6,3.4,3.6c0.9,0.8,1.7,1.6,2.5,2.4c1.5,1.6,2.8,2.9,4.1,3.9c0.6,0.4,1.4,0.8,2.3,1.3c0.5,0.2,1,0.5,1.4,0.7
				c2.6,1.4,4.5,2.9,6.5,4.8c1,0.9,1.9,1.9,2.8,2.7c2.7,2.7,4.8,4.9,8,6.1c0.7,0.3,1.4,0.5,2.1,0.7c2.5,0.9,5.3,1.8,8.1,4.1
				c3.1,2.5,4.9,5.3,6.7,8l0.5,0.8c0.7,1,2,1.5,3.9,2c0.2-0.2,0.4-0.4,0.6-0.6C283.9,673.4,285.7,673,286.7,670.2z"/>
		</g>
	</g>
	<g>
		<path d="M578.9,199.4c-3.7,0-8.3,0.7-11.9,0.1c-1.6-0.3-3.3-0.9-5-1.3c-2.3-0.6-4.8-0.5-7-1.5c-2.1-0.9-3.2-1-5.4-1.2
			c-3-0.3-5-1.8-7.3-3.6c-3.8-2.9-7.7-5.9-11.1-9.4c-2.6-2.6-4.9-4.4-8-6.2c-2.7-1.6-4.5-3.6-7.2-5c-5.7-2.9-11.2-5.9-17.2-8.3
			c-6.3-2.5-13.7-2.9-20.3-4.6c-7-1.8-11-7.1-16-11.8c-2.8-2.6-6.1-4.7-9.1-7.1c-2.6-2.1-5.8-3.1-8.7-4.9c-3.1-1.9-6.2-3.4-9.4-5.2
			c-3.4-1.8-5.9-4.3-8.8-6.8c-2.9-2.5-5.9-4.8-8.8-7.2c-3.3-2.7-8-5-10.1-8.8c-1.4-2.6-3.4-4.3-4.9-6.9c-1.5-2.6-2.7-5.3-4.5-7.7
			c-1.7-2.3-4.2-4.3-6.5-6.1c-2-1.6-3.9-3.5-6-5c-1.7-1.2-3.1-2-4.3-4c-0.6-1.1-0.9-2.5-1.7-3.6c-1.6-2.4-5-4.5-8-3.6
			c-2.4,0.8-4.5,3.9-6.9,5c-1.4,0.7-3,0.8-4.3,1.7c-1.7,1.2-1.9,2.8-2.5,4.7c-1,3.4-2.9,7.9-5.5,10.6c-1.4,1.5-3.3,2.4-4.7,3.9
			c-1.5,1.5-2.7,2.9-4.2,4.2c-1.8,1.6-3.8,2.7-5.8,4c-1.3,0.8-4.5,4.3-5.9,4.7c-0.1-0.3-0.1-0.5-0.2-0.8c-4.3-0.4-4.3-5.4-7.8-6.2
			c-1.9,3.6-2.8,8.3-5.6,11.3c-5.4,5.8-10.9,11.6-16.5,17.3c-2.5,2.6-5.9,3-8.8,4.9c-3.3,2.2-4.8,7-6.5,10.3c-1.6,3.1-4,5.3-5.5,8.4
			c-1.5,3.1-4,4.4-5.8,7.2c-1.8,2.7-3.3,4.4-6.1,6.4c-2.4,1.7-5.3,4.5-5.9,7.4c-0.6,2.5-0.2,3.7-2.1,5.9c-1.3,1.4-2.1,2.3-4,2.5
			c-1.1,0.1-2.4-0.3-3.4,0.1c-0.9,0.3-1.7,1.4-2.6,1.9c-2.3,1.5-4.7,0.9-7.5,1c-3.6,0-2.8,1.2-3.9,4c-0.8,1.9-2.4,4.2-4.5,4.8
			c-2.6,0.7-3.7,0.3-5.9,2.2c-3.9,3.3-5.7,1.3-9.9-0.4c-4-1.7-9-0.2-12.9,0.9c-3.7,1.1-6.9,1.7-10.7,1.4c0.4,0.2,0.6,0.6,0.6,1.1
			c0.3,4.4,0.5,6.6,2.7,10c2,2.9,5.9,3.8,7,7.2c0.6,1.8,0.5,3.8,1.4,5.5c0.9,1.9,2.4,2.7,3.8,4.2c1.4,1.5,2.6,3.6,3.9,5.2
			c2.2,2.7,4.6,5.3,6.7,8c2.9,3.7,7.2,0.7,10.9,0.8c7.9,0.1,16.8-1.2,24.1,2c4.3,1.8,8.5,3.1,13,1.1c4.2-1.9,7.2-4,12-4.1
			c5.3-0.2,8.6,3,13.7,3.9c5.1,0.9,10.1-1.6,15.2-1.9c7.9-0.5,15.9,0,23.8,0c4.3,0,8.7,0,13,0c4.8,0,9.2,1,13.9,2.3
			c7.8,2.1,17.1,0.7,25.1,0.7c2.5,0,5.2-0.2,7.7-0.1c2.5,0.2,4.8,1,7.2,1.1c6.2,0.4,13.1-1.6,19.1-2.8c8.7-1.9,17.3-1.7,25.9,0.3
			c4.7,1.1,8.9-0.7,13.7-0.5c3.8,0.1,9.3-0.3,12.7-1.9c1.3-0.6,2.5-1.5,3.9-2.1c2.7-1.2,5.4-1,8.2-0.9c2.3,0,4.6,0.2,6.9-0.2
			c1.8-0.3,2.9-1,4.8-0.8c3.4,0.2,6.7,1.7,10.1,2.1c1.9,0.3,4-0.1,5.9-0.1c1.2,0,2.5-0.1,3.7,0c2.1,0.1,3.5,0.8,5.5,1.1
			c3.4,0.5,6.2-1.4,9.4-1.2c3.4,0.2,6.1,5.1,9.3,4.2c2.7-0.7,4.6-5.1,6.9-6.8c3.7-2.7,7.1-4.6,10.2-7.9c3-3.2,4.9-7,7.7-10.3
			c2.6-3,5.7-5.2,7.7-8.7c1.5-2.7,2.8-4.4,5-6.5C580.1,201.8,578,201.1,578.9,199.4z"/>
		<g>
			<path class="st0" d="M393.9,226.5c-3.3,1.2-7.2,1.9-10.1,4c-1.8,1.3-3,3.6-4.5,5.1c-1.8,1.8-4,3-6.1,4.3
				c-0.4,0.2-0.8,0.5-1.2,0.7c2.6,0,5.3-0.1,7.9-0.2c2.4-0.1,4.8-0.2,7.1-0.2c0,0,0,0,0.1,0c0.8,0,1.7,0,2.6-0.1c1,0,2-0.1,3-0.1
				c0.8,0,1.6,0,2.4,0.1c1.5,0.1,3,0.4,4.2,0.6c1.1,0.2,2.1,0.4,3,0.5c4.5,0.3,9.6-0.9,14.5-2c1.1-0.3,2.2-0.5,3.3-0.7
				c9.4-2,18.9-1.9,28.1,0.4c1.9,0.5,4,0.2,6.3-0.2c1.9-0.3,4-0.6,6.3-0.5c4.2,0.1,8.4-0.5,10.5-1.5c0.4-0.2,0.9-0.5,1.4-0.8
				c0.7-0.5,1.6-1,2.6-1.4c3.4-1.5,6.6-1.4,9.4-1.4c0.3,0,0.6,0,0.9,0c0.4,0,0.9,0,1.3,0c1.7,0,3.2,0.1,4.6-0.2
				c0.4-0.1,0.8-0.2,1.2-0.3c1.2-0.3,2.7-0.7,4.8-0.6c2.4,0.1,4.7,0.7,6.7,1.3c1.3,0.4,2.6,0.7,3.8,0.9c0.7,0.1,1.8,0,2.9,0
				c0.7,0,1.5-0.1,2.3-0.1c0,0,0,0,0.1,0c0.4,0,0.9,0,1.3,0c0.8,0,1.7,0,2.6,0c1.8,0.1,3.3,0.4,4.4,0.7c0.6,0.2,1.2,0.3,1.7,0.4
				c0.8,0.1,1.8-0.1,3.1-0.5c1.6-0.4,3.6-0.9,5.8-0.8c3,0.2,5.3,1.9,7,3.2c0.3,0.2,0.6,0.5,1,0.7c0.4-0.5,0.9-1.1,1.3-1.6
				c1-1.4,2.2-2.9,3.7-4c1-0.7,2-1.4,2.9-2c2.5-1.7,4.6-3.2,6.6-5.2c1.3-1.4,2.4-3.1,3.6-4.8c1.2-1.8,2.4-3.6,4-5.3
				c1-1.2,2.1-2.2,3.1-3.2c1.7-1.6,3.1-3,4-4.7c0.5-0.9,1-1.7,1.5-2.4c-1.6,0-3.2-0.1-4.8-0.3c-1.3-0.2-2.6-0.6-3.8-0.9
				c-0.5-0.1-1-0.3-1.5-0.4c-0.6-0.2-1.4-0.3-2.2-0.4c-1.7-0.2-3.7-0.5-5.6-1.4c-1.2-0.6-1.7-0.6-3.5-0.8l-0.4,0
				c-4.3-0.4-7.1-2.6-9.6-4.4l-0.1-0.1c-3.9-2.9-8-6.1-11.7-9.9c-2.1-2.2-4.1-3.7-7-5.5c-1.4-0.9-2.6-1.8-3.7-2.6
				c-1.1-0.9-2.1-1.7-3.2-2.2c-1.3-0.7-2.6-1.3-3.9-2c-4.4-2.2-8.5-4.3-12.9-6.1c-3.4-1.4-7.3-2-11.5-2.7c-2.7-0.5-5.5-1-8.3-1.7
				c-6.9-1.8-11.3-6.2-15.3-10.2c-1-1-1.9-1.9-2.8-2.8c-1.5-1.4-3.3-2.7-5.2-4.1c-1.2-0.9-2.4-1.8-3.6-2.8c-1.1-0.9-2.6-1.6-4.1-2.4
				c-1.3-0.6-2.7-1.3-4.1-2.2c-2.1-1.3-4.3-2.5-6.6-3.7c-0.8-0.4-1.7-0.9-2.5-1.3c-3.3-1.8-5.8-3.9-8.1-6c-0.5-0.5-1-0.9-1.6-1.4
				c-1.8-1.5-3.6-3-5.5-4.5c-1.1-0.9-2.1-1.7-3.2-2.6c-0.8-0.7-1.8-1.4-2.9-2.1c-3-2.1-6.4-4.4-8.4-8.2c-0.5-0.9-1.2-1.8-2-2.8
				c-0.9-1.1-2-2.4-2.9-4c-0.5-0.8-0.9-1.6-1.3-2.4c-0.9-1.7-1.8-3.4-2.8-4.8c-1.4-1.8-3.7-3.7-5.6-5.1c-0.9-0.7-1.8-1.5-2.7-2.3
				c-1.1-1-2.1-1.9-3.1-2.6c-0.3-0.2-0.5-0.4-0.7-0.5c-1.5-1.1-3.4-2.4-5-5c-0.5-0.8-0.8-1.6-1-2.3c-0.2-0.4-0.4-0.9-0.5-1.1
				c-0.6-1-1.9-1.6-2.3-1.6c-0.4,0.2-1.3,1-1.9,1.6c-1.2,1.1-2.6,2.3-4.3,3.2c-0.2,0.1-0.3,0.2-0.5,0.2c0.3,0.2,0.6,0.3,1,0.5
				c1.4,0.7,2.8,0.9,4.2,1.8c1.6,1,2.9,2.8,5,3c1.1,1.5,2.3,5,3.4,6.5c1.3,1.8,4.8,6.1,4.4,8.4c-2.6-1.8-4.8,2.2-4.7,4.9
				c1.8,0.4,2.3,0.1,3.6,1.4c1.3,1.2,0.7,1.8,1.2,3.3c0.5,1.5,1.7,1.9,2.1,3.4c0.2,0.8-0.3,1.7-0.1,2.5c0.1,0.7,0.6,1.1,0.8,1.7
				c1.2,3.4,1.9,4.8-1.7,6.2c-3,1.2-4.9,4-7.2,6.4c-3.3,3.5-6.4,7.4-9.7,11c-2.8,2.9-4.4,6.8-7.5,9.4c-2,1.7-3.9,3-6.3,3.6
				c-2.6,0.7-6-0.3-8.8,0.2c-2.8,0.5-6.5,0.3-8.9,1.8c1.2,1.3,3.3,1.5,4.8,2.2c3.1,1.5,6,3,9,4.5c4.2,2.2,8.6,3.6,13.3,4.2
				c4,0.5,10.2-4.1,10.4,2.4c0.1,2.1-0.2,4,0.5,6c0.6,1.8,1.7,3.6,2.4,5.2c-1.5,2.2-6.5,1.9-7.5,4.5c1.7,1.7,4.9-0.1,4.7,3.7
				c-0.1,2.1-2.5,3.9-0.9,5.8c0.2,0.3,1.6,0.7,2.1,0.9c0.9,0.5,1.4,1.1,2.5,1.5c1.9,0.8,4.1,1.3,6.2,2c2.9,0.9,6.2,0.9,9.1,1.7
				c2.9,0.9,3.9,1.9,3.9,5c0,2.6-0.1,4.5-0.8,6.9c-0.8,2.9-0.3,6.7-0.2,9.8C396.8,225.1,396.6,225.5,393.9,226.5z"/>
		</g>
		<g>
			<path class="st0" d="M254.2,189.7c-3.1,2-6.2,1.9-8.5,1.8c-0.2,0-0.4,0-0.7,0c-0.1,0.3-0.2,0.6-0.3,0.9c-0.6,1.5-2.9,6.4-7.8,7.7
				c-1,0.3-1.8,0.4-2.4,0.5c-1.1,0.2-1.1,0.2-1.6,0.7c-5.7,4.7-10,2.7-13.2,1.2c-0.6-0.3-1.2-0.6-1.8-0.8c-2.4-1-6.7,0.3-9.6,1.1
				c-1.9,0.6-3.9,1.1-6.1,1.4c0.2,1.3,0.7,2.2,1.5,3.5c0.4,0.5,1.2,1.1,2.1,1.8c1.9,1.4,4.4,3.2,5.5,6.6c0.3,1,0.5,2,0.7,2.9
				c0.1,0.8,0.3,1.5,0.5,1.9c0.2,0.5,0.6,0.8,1.4,1.5c0.4,0.4,0.9,0.8,1.5,1.4c1.1,1.2,2,2.5,2.9,3.7c0.5,0.7,0.9,1.4,1.4,1.9
				c0.8,1,1.7,2,2.6,3c1.4,1.6,2.8,3.3,4.2,5c0.5,0,1.6-0.3,2.3-0.4c1.4-0.3,3-0.7,4.8-0.7c1.3,0,2.6,0,4-0.1c1.3-1.4,2.8-2.6,4.2-4
				c1.3-1.3,2-1.9,4-2c1.4-0.1,2.3,0.1,3.6-0.2c0.4-0.1,0.5-0.7,1-0.7c2.3-0.3,4.5,1.3,7.1,0.7c1.1-0.2,1.7-0.8,3.3-0.8
				c1.4,0,3.1,0.3,4.4-0.1c5.2-1.3,6.6-5.8,7.9-10.4c0.4-1.2,0.2-2.3,0.4-3.5c0.2-0.9,0.9-1.4,1.1-2.4c0.5-2.2-0.4-3.8-1.5-5.5
				c-1.7-2.5-1.3-3.2,1-5.4c1.1-1,2.3-2.2,3.5-3.1c2-1.5,4.9-2.6,7.1-3.9c2.8-1.7,4.2-3.2,6.3-5.5c1.4-1.5,3.7-2.8,2.4-5.4
				c-0.8-1.7-3.9-3-5.4-4.2c-1.4-1.1-5.4-4.2-5.4-5.8c0-1.3,2-2.9,2.7-3.8c1.2-1.6,2.2-3.5,3.2-5.3c1.6-2.7,3.6-3.8,5.8-5.7
				c2.3-2,0.8-5.4,1.3-8.1c0.8-4,0.4-8.4,1.8-12.3c0,0,0-0.1,0-0.1c-0.4,0.2-0.8,0.4-1.2,0.6c-1.4,0.9-2.5,3.5-3.6,5.8
				c-0.4,0.9-0.8,1.8-1.2,2.6c-1,1.9-2.1,3.4-3.1,4.8c-0.9,1.3-1.7,2.3-2.3,3.5c-1.2,2.5-2.8,4.2-4.1,5.5c-0.8,0.8-1.5,1.5-2,2.3
				c-2.2,3.4-4.2,5.5-7.4,7.7c-2.3,1.6-3.7,3.5-4,4.4c-0.1,0.5-0.2,0.9-0.2,1.4c-0.2,1.7-0.6,4-3,6.7c-1.4,1.6-3.4,3.8-7.2,4.1
				c-0.9,0.1-1.6,0-2.2,0C255.3,188.9,254.8,189.3,254.2,189.7z"/>
		</g>
		<g>
			<path class="st0" d="M318.3,187.7c-0.1,0.2-0.1,0.3-0.2,0.5C318.3,187.9,318.4,187.7,318.3,187.7z"/>
			<path class="st0" d="M296.9,239.2c2.1,0.4,4.5-0.2,7.2-0.8c2.1-0.5,4.4-1,6.8-1.2c0.4,0,0.8,0,1.2-0.1c0-1.8-0.4-3.9-0.1-5.7
				c0.3-1.9,1.3-3.4,1.8-5.1c1.2-3.7,0.9-8.3,3.7-11c2.1-2.1,3.4-1.2,3.5-4.4c0.1-1.8,0.3-4.2,0-6c-0.5-3.3-1.7-6.8-2.3-10.2
				c-0.4-2-1.2-4.4-0.7-6.5c-0.4,0.8-1.2,2.3-1,2.3c-0.2,9.5-5.7,18.4-11,25.9c-2,2.9-3.6,6.4-6.1,8.9c-1,0.6-2,1.2-2.9,1.9
				c-0.7,0.9-1.3,1.8-1.9,2.8c-1.5,1.5-2.8,1.7-4.6,2.7c-1.5,0.8-2.8,1.8-4.1,2.8c2.1,0.5,4,1.3,5.7,2
				C294,238.3,295.4,238.9,296.9,239.2z"/>
		</g>
	</g>
	<g>
		<path d="M815.3,392.4c-0.7,0.2-1.3,0.1-1.4-0.6c4-1.2,7.7-1.2,11.4-3.6c4.6-3,8.3-7,13.2-9.5c1.6-0.9,3.5-1.2,4.9-2.4
			c2-1.7,3.6-3.8,5.5-5.6c1.5-1.3,3-2.4,4.5-3.7c2-1.7,3.8-3.6,5.8-5.3c1.8-1.5,2.6-1.1,4.7-1.4c1.3-0.2,2.3-0.6,3.6-0.9
			c0-0.2,0.1-0.4,0.1-0.6c0-0.2,0.1,0.3,0.1,0.1c1.1-0.3,2.1-0.3,2.8,0.3c0.1,0.1,0.3,0.9,0.5,1.1c0.4,0.5,1.3,0.9,1.9,1.3
			c1,0.7,1,1,2.3,0.8c1.7-0.3,2-0.7,3.6-0.2c2.2,0.6,4.7,0.6,7-0.4c2.7-1.1,5.2-0.6,7.6-2.7c1.5-1.3,2.6-2.9,4.8-3.3
			c2.4-0.4,4.5,0.6,6.7-0.7c1.8-1,3.8-4.2,5.6-2.3c1.2,1.2,1.3,4,3.3,4.5c0.7-0.9,2-0.1,2.9-0.5c1.7-0.7,3.2-2.1,4.7-3.1
			c2.2-1.3,5.1-2.4,6.3-4.7c1.7-3.1,4.7-5.5,8.1-3.7c2.2,1.1,3.6,3.1,6,3.6c3.3,0.7,6.8,0.8,10.1,1.6c2.7,0.7,4.4,1.8,6.5,3.6
			c0.7,0.5,1.4,1.2,2.2,1.7c0.9,0.5,2.4,0.6,3,1.5c0.9-0.3,1.5-1.4,2.2-2.1c1.4-1.4,3.5-2.3,5.2-3.4c2.4-1.5,4.8-3.1,6.8-5.1
			c2.2-2.2,2.3-3.5,5.5-4.3c2.3-0.6,3.9-1.5,5.7-3c2-1.7,4.2-3.1,6.4-4.5c1.8-1.2,2.2-0.3,4,0c1.2,0.2,2.7-0.1,3.7-0.4
			c1.3-0.4,2.4-1,3.7-1.1c1-0.1,2.7-0.3,3.6-0.9c1.2-0.8,2.2-2.6,3.2-3.6c2.3-2.3,4.8-4.4,7.6-6c1.9-1,3.7-0.3,5.7-0.7
			c3.2-0.7,5.5-3.5,7.5-5.9c1.4-1.6,2.6-3.4,3.9-5.1c0.7-0.9,1.7-3,2.8-3.2c1.6-0.3,3.4-1.8,4.7-0.9c1,0.7,1.8,1.8,2.7,2.6
			c1.8,1.5,3.9,2.2,5.8,3.5c1.8,1.3,3.3,2.9,5.4,3.8c1.7,0.7,3.6,0.8,5.3,1.2c3.5,0.9,6.7,4.1,9.6,6.3c2.2,1.7,4.9,3.4,6.8,5.4
			c1.2,1.3,2.2,2.9,3.4,4.3c2,2.1,3.5,3.6,6.2,4.8c2.4,1,4.8,1.8,7.3,2.5c4.8,1.5,8.6,3.4,12.7,6.4c3,2.2,7.9,4.1,9,8
			c0.5,1.8,0.4,3.5,1.8,5c1.1,1.1,3.2,2.7,4.5,3.5c1.3,0.8,2.1,0.8,3.5,1c2,0.4,3.2,1,4.7,2.4c2.5,2.3,4.8,4.8,7.2,7.1
			c2.6,2.5,6.3,3.9,9.4,5.7c2.9,1.7,5.5,4.1,8.6,5.6c2.5,1.2,5,1.3,7.6,2.2c1.7,0.6,5.1,3.1,5.1,5.3c0,0.5-0.5-0.6-0.7-0.2
			c2.6,0.8,5.6-0.4,8.2,0.3c1.4,0.4,1.2,0.8,2.4,0.1c0.7-0.4,1.5-1.2,2-1.9c1.5-1.6,1.6-2,3.8-2.1c1-0.1,2,0,3,0
			c2.9,0,5.4,1.4,8.2,1.5c2.2,0.1,3.2,0.5,5.2,1.3c1.6,0.6,2.6,0.9,4.5,0.9c2.1,0,3.8-0.8,6-0.7c0.9,0,2.2,0.2,3,0
			c0.8-0.2,1-0.9,1.9-0.9c-0.7,0.8-1,2-1.5,2.9c-1.4,3-3.1,5.8-5.1,8.4c-1.7,2.3-3.7,4.7-6.2,6.3c-2.1,1.3-4.6,2.2-6.8,3.3
			c-6.5,3.3-13,5.3-20.2,6.7c-3.6,0.7-6.5,2.1-9.1,4.7c-2.9,2.9-5,5.3-8.6,7.5c-5.8,3.6-9.6,10.5-16.1,13c-1.9,0.7-4.1,1.9-6,2.5
			c-1,0.3-2,0.1-3,0c-3.9-0.2-7.3-1-11.3-0.5c-5.9,0.8-10.8,3.2-16.4,5.2c-4.9,1.8-10,3-15,4.1c-6,1.4-11.8,4.4-17.1,7.6
			c-11.1,6.7-23.1,10.2-35.5,13.8c-5.6,1.6-11.2,2.7-16.9,1.1c-6.2-1.7-12-4.8-18.1-6.8c-4.9-1.6-9.8-2.3-14.9-2.2
			c-4,0.1-8.4-0.1-12.4-0.8c-4.5-0.8-8.6-2.6-13.2-3.3c-5.7-0.9-11.3-1.3-17-1c-10.5,0.6-21,2.9-31.2-0.3
			c-8.9-2.8-14.9-10.8-22-16.3c-4.2-3.3-8-6-12.7-8.6c-3.7-2.1-7.4-3.9-11.3-5.7c-4.3-1.9-8.5-3.8-12.8-5.8
			c-3.6-1.6-7.6-2.2-11.2-3.8c-6.8-3.2-13.4-6.8-18.9-12c-2.3-2.2-3.8-4.2-5-7.1c-0.7-1.9-1.6-3.9-2.8-5.5c-1-1.3-2.1-2.2-3.6-2.8
			C817.1,396.4,815.2,394.5,815.3,392.4z"/>
		<g>
			<path class="st0" d="M1161.5,418.7c-1.1-0.3-2.2-0.5-3.3-0.7C1159.8,419,1161.4,419.7,1161.5,418.7z"/>
			<path class="st0" d="M1166,393.3c-0.7-0.3-1.6-0.4-2.5-0.6c-1.7-0.4-3.6-0.8-5.6-1.8c-2.1-1.1-3.9-2.4-5.7-3.6
				c-1.1-0.8-2.2-1.6-3.2-2.2c-0.8-0.5-1.7-1-2.7-1.5c-2.5-1.3-5.2-2.7-7.5-4.9c-1.2-1.1-2.3-2.3-3.4-3.4c-1.3-1.3-2.5-2.5-3.8-3.7
				c-0.8-0.8-1.2-1-2.3-1.2c-0.3-0.1-0.5-0.1-0.7-0.1c-1.2-0.2-2.6-0.4-4.4-1.5c-1.6-1-4.1-2.8-5.5-4.3c-2-2.1-2.5-4.5-2.7-6
				c-0.1-0.4-0.1-0.8-0.2-1.1c-0.3-1-2.6-2.4-4.2-3.4c-1-0.6-2-1.2-2.9-1.9c-3.5-2.6-6.9-4.3-11.2-5.6l-0.4-0.1
				c-2.4-0.8-4.9-1.5-7.3-2.6c-3.8-1.6-5.9-3.7-7.9-6c-0.8-0.9-1.4-1.7-2-2.5c-0.5-0.7-0.9-1.3-1.4-1.7c-1.1-1.1-2.7-2.3-4.2-3.4
				c-0.7-0.5-1.3-1-2-1.4c-0.7-0.6-1.5-1.2-2.2-1.7c-1.9-1.5-4-3.3-5.7-3.7c-0.4-0.1-1-0.2-1.6-0.3c-1.3-0.2-2.8-0.5-4.4-1.2
				c-2-0.9-3.6-2.2-4.8-3.2c-0.5-0.4-1-0.8-1.5-1.2c-0.6-0.4-1.3-0.8-2.1-1.2c-1.2-0.7-2.6-1.4-4-2.5c-0.5-0.4-0.9-0.9-1.3-1.2
				c-0.2,0.1-0.4,0.2-0.7,0.3c-0.1,0.2-0.2,0.4-0.3,0.5c-0.2,0.4-0.5,0.7-0.7,1.1c-0.3,0.4-0.5,0.7-0.8,1.1c-1,1.4-2.1,2.9-3.4,4.3
				l-0.3,0.4c-2.2,2.6-5.2,6-9.9,7.1c-1.4,0.3-2.6,0.3-3.5,0.3c-0.3,0-0.8,0-1,0c-2.1,1.1-4.2,2.8-6.4,5.1c-0.2,0.2-0.5,0.6-0.8,1
				c-0.8,1-1.7,2.3-3.1,3.2c-1.9,1.3-4.3,1.6-5.8,1.8l-0.1,0c-0.3,0-0.8,0.2-1.4,0.4c-0.4,0.1-0.8,0.3-1.4,0.5c-1.6,0.5-4,1-6.2,0.5
				c-0.4-0.1-0.8-0.2-1.1-0.3c-0.4,0.2-0.7,0.5-1.1,0.7c1.4,0.5,2.9,0.8,4.3,1.3c1.4,0.5,2.8,0.7,4.1,1.2c0.5,0.2,1.1,0.5,1.5,0.8
				c0.8,0.7,0.3,1.6,1.5,1.8c0.4,3.1,3,4.3,4.5,6.8c0.4,0.7,1.4,2.1,1.5,2.9c0.1,1.1-0.5,1.9-0.7,2.9c2.2,0.1,4.4,2.4,5.9,3.9
				c1.8,1.8,3.3,3.8,4.6,5.9c2,3.2,4.7,5.5,7.3,8.2c4,4.2,7,9.3,11.8,12.7c2,1.4,4.4,2.3,6.3,3.8c1.3,1,2.3,2.4,3.4,3.6
				c2,2.5,3.9,5.6,5.4,8.4c0.5,1,0.8,2,1.4,3c0.9,1.4,2.7,2.6,3.8,3.7c1.7,1.7,3.3,3.7,5.4,4.9c0.9-1,1.2-3,1.9-4.2
				c1.3-2.2,3.6-5,6.1-5.9c0.6-0.2,1.4-0.1,2-0.3c0.2-0.1,0.5-0.5,0.8-0.6c1.9-0.5,4.3,0.7,6.1,0.1c1.4-0.4,2-2.1,3.7-2.3
				c1.4-0.2,2.4,0.5,3.7,0.8c1.6,0.4,3.6,0.3,5.2,0.9c2.7,1,5.7,2.9,8.2,4.4c3.2,1.8,5.5,3,9,1.2c2.1-1.1,3.8-2.5,6.2-3.1
				c2.5-0.6,3.3,0.6,5.7,1.5c3.3,1.2,6.5,1.4,9.7,3.1c4,2.1,8.5,2.8,12.7,4.3c2.4,0.9,4.2,1.8,6.7,2c0.6,0,1.2,0.1,1.8,0.2
				c-1.3-0.9-2.7-2-3-2.4c-1.1-1.4-1.5-3.1-2.6-4.5c-1-1.3-1.8-2.4-2.7-3.8c-0.5-0.8-1-1.7-1.5-2.6c-0.9-1.7-2-2.3-3.3-3.6
				c-2.1-2-3.7-4.5-5.9-6.3c-1-0.9-3.4-1.4-3.6-3c1,1.1,3.6,0.8,5.1,1.3c1.7,0.6,3.3,1.6,5.1,2.1c2,0.6,3.5,0.9,5.3,2
				c2.2,1.4,3.9,2.1,6.4,2.6c1.6,0.3,3,1,4.8,0.8c1.4-0.2,1.9-0.9,3.1-1.5c1.7-0.8,3.1-0.7,4.9-0.7c0,0,0,0,0,0l-5-1.6l1.4-3.1
				C1166.4,393.5,1166.2,393.4,1166,393.3z"/>
		</g>
		<g>
			<path class="st0" d="M953.7,364c0.4,0.7,0.5,3.1,1.2,3.6c1.5,1,2.4-0.6,2.9-1.6c0.7-1.4,0.4-2.5,0.8-4c0.1-0.4,0.4-0.8,0.7-1.3
				c-0.4-0.2-0.8-0.3-1.2-0.6c-0.9-0.6-1.7-1.2-2.4-1.8l-0.3-0.3c-1.9-1.6-2.9-2.2-4.6-2.6c-1.5-0.4-3.2-0.6-4.9-0.8
				c-0.8-0.1-1.6-0.2-2.4-0.3c1.2,1.6,2.3,3.1,4,4.3C949.5,360.2,952.5,361.7,953.7,364z"/>
		</g>
		<g>
			<path class="st0" d="M899.9,444.3c2.3,1.8,4.5,3.9,6.7,5.8c4.5,4.1,8.7,8.1,13.8,9.7c6.8,2.2,14.1,1.5,21.7,0.7
				c2.5-0.2,5.1-0.5,7.8-0.6c5.5-0.3,11.3,0,18,1.1c2.7,0.4,5.2,1.2,7.6,1.9c2,0.6,3.8,1.1,5.7,1.5c3.3,0.6,7.3,0.9,11.4,0.8
				c0.4,0,0.8,0,1.2,0c5.3,0,10.3,0.8,15.4,2.4c2.9,0.9,5.7,2.1,8.4,3.2c3.3,1.4,6.4,2.7,9.5,3.5c4.8,1.3,9.7,0.3,14.2-1.1
				c10.8-3.2,21.1-6.2,30.6-11.2c-2.8-0.6-5.7-1.4-8.5-2.1c-4.3-1.1-9.6-3.4-13-6.3c-4-3.3-7.6-7.2-11-11.1c-3.5-4-6.6-8-11.9-10
				c-2.3-0.9-3.5-1.6-5.3-3.4c-1.6-1.6-2.7-3.7-4.3-5.3c-4-4-10.3-3.9-15.4-5.1c-2.3-0.6-4.5-1.3-6.7-2c-1.7-0.5-3.1-0.5-4.7-1.3
				c-1.7-0.9-2.4-2.2-3.9-3.4c-1-0.8-1.6-1.2-2.2-2.4c-0.7-1.3-1.2-2.9-2.4-3.8c-0.9-0.7-1.9-0.9-2.8-1.7c-0.9-0.9-1.6-2.2-2.1-3.4
				c-0.5-1.3-0.9-2.4-1-3.8c0-1,0.2-2-0.3-3c-0.4-0.7-1.3-1.1-1.9-1.7c-1.2-1.1-2.3-2.3-3.1-3.8c-1.1-2-2.4-5-4.8-5.7
				c-0.6-0.2-1.3,0.2-1.9,0c-0.3-0.1-0.7-0.6-0.9-0.6c-0.8-0.2-1.6-0.1-2.5-0.2c-1.3,0-3.2-0.6-4.3-1.3c-1.2-0.8-2-2.2-2.6-3.3
				c-0.6-1.3-1.8-2.1-2.3-3.4c-0.4-1,0-1.6-1.1-2.3c-1.5,1-2.9,1.2-4.1,2.9c-0.8,1.2-1.4,2.4-2.2,3.7c-1.4,2.3-1.8,0.9-3.9,0.7
				c-2.3-0.2-3.3,1.6-4.5,3.2c-3,4.1-5.3,7.9-10.2,9.7c-1.6,0.6-3.2,0.6-4.7,1.5c-1.5,0.9-1.4,1.1-1.5,2.8c0,0.9-0.2,2,0.1,2.8
				c0.5,1.1,1.9,2.3,2.5,3.5c0.8,1.5,1,1.8,0.5,3.3c-0.8,2.4-2.3,4.4-3.2,6.8c-0.5,1.3-0.9,2.4-1.7,3.5c-0.3,0.3-0.9,0.6-1.1,0.9
				c-0.9,1.5-0.1,4.2-1.3,5.5c-1,1-3.3,0.5-4.8,0.5c-2.5,0-4.9,0.1-7.4-0.2c-3.1-0.4-4.9-1-7.5,0.9c-2.7,1.9-4.5,4.5-7.7,6
				c-2.9,1.3-6.1,1.4-9.2,1.7c2.6,1.2,5,2.5,7.5,3.9C891,437.7,894.8,440.3,899.9,444.3z"/>
		</g>
		<g>
			<path class="st0" d="M988,348c1.8,1.1,2.4,2.2,3.4,4.1c1.9,3.7,1.2,7.6,3,11.5c1,2.3,2.3,3.8,3.8,5.7c1.2,1.5,2.9,3.4,3,5.2
				c0.1,1.5-0.5,3.8-0.1,5.3c0.2,0.8,0.9,0.9,1.5,1.5c1.2,1.3,2.4,2.6,3.7,3.8c3.9,3.9,5,9.9,7,14.7c0.7,1.8,2,3.4,2.6,5.2
				c0.7,1.9,1,3.4,2.5,4.7c1.7,1.3,3.4,2.1,5,3.5c1.1,1.1,1.6,3.3,3.1,3.7c0-3.3,0.4-6.7-0.2-9.9c-0.5-3.2-0.3-6.1-2.1-8.9
				c-1.3-2.1-2.4-3.3-2.8-5.8c-0.4-2.3,0.2-4.6-0.7-6.7c-0.8-1.8-2.1-2.9-3-4.6c-1.3-2.4-1.5-5.4-2.4-7.9c-0.4-1.1-1-2.1-1.5-3.2
				c-0.4-0.8-0.6-1.9-1.1-2.6c-0.8-1.3-2.1-1.3-3-2.6c-0.5-0.7-1.4-2.3-1.7-3.2c-0.2-0.6-0.7-1.8-0.7-2.2c-0.1-0.7,0-1.5-0.1-2.1
				c-0.3-1.2-1.1-2.5-1.6-3.7c-0.4-0.9,0-1.1-0.7-1.9c-0.6-0.7-1.4-0.9-2.3-1.1c-2.6-0.7-5-1.3-7.3-3c-1.5-1-2.8-2.3-4-3.5
				c-1.6,1.2-3.2,2-5,2.6C986.8,347.2,987.4,347.6,988,348z"/>
		</g>
	</g>
	<g>
		<path d="M864.2,214c0.8,0.1,1.3,0.7,2.1,0.7c3.3,0.2,7.1-6,8.3-7.5c3.6-4.8,7-9.9,10.7-14.6c2.6-3.3,4-4.7,7.7-6
			c7.7-2.8,1.6-13,7.6-17.1c1.3-0.9,2.9-1.3,4.3-2c2.3-1.1,4.4-2.4,6.8-3.5c4.2-1.9,8-4,11.9-6.4c2.1-1.3,4.2-2.8,6.4-4
			c2-1.1,3.9-1.9,5.7-3.3c3.8-3.1,6.2-7.5,9.8-10.8c2.3-2.1,4.6-0.9,6.9-2.4c1-0.6,1.9-1,2.9-1.6c1.6-0.9,2.3-2.3,3.3-3.8
			c3.3-4.8,6.8-9.7,8.4-15.4c1.1-4,3.5-6.2,6.7-8.8c1.5-1.2,4.7-4.7,4.4-6.7c-0.2-1.4,0.7-2.6,2.6-1.9c2.3,0.9,4.5,4.7,5.9,6.6
			c1,1.5,1.5,2.7,3.1,3c1,0.2,2.3-0.1,3.3-0.1c2.5,0.2,2.7,2,4,3.8c1.7,2.5,4.4,2.9,7,4c3.8,1.6,7.8,3.6,10.6,6.7
			c1.4,1.6,2.4,3.2,4.3,4.3c1.7,1.1,3.7,1.9,5.5,2.7c3.3,1.6,6.3,3,9.9,3.7c2.5,0.5,4.8,1,7.3,0.7c2.7-0.2,5.2-1.3,7.9-1.2
			c5.6,0.2,6,6.7,10.3,9c2.2,1.1,4.7,1.5,6.9,2.6c2.3,1.2,4.5,2.8,6.5,4.3c2.1,1.5,3,3.5,4.7,5.4c2.1,2.4,5.4,4.1,8.2,5.7
			c2.1,1.2,4.3,1.4,6.6,2.2c2,0.7,3.7,1.8,5.5,2.8c2,1.1,3.8,1.9,6,2.3c1.6,0.2,2.9,0.2,4.4,0.8c4.4,1.9,7.5,6.4,10.8,9.6
			c3.6,3.5,7.9,6,11.7,9.2c5.7,5,12,9.9,18.6,13.8c2,1.2,3.6,2.4,5.8,3.2c2.7,1.1,5,3.8,7.8,4.4c2.2,0.5,5.7,0.8,6.9,3.4
			c0.5,1.2,0.1,1.8-0.5,2.6c-1.8,2.5-5.2,4.1-7.9,5.7c-3.1,1.8-6.2,3.6-9.6,4.8c-3,1.1-6.6,1.7-9.2,3.7c-5.4,4-5.7,13.1-11.7,16.3
			c-2.2,1.2-5.2,1.6-7.6,2.1c-3.8,0.9-7.6,2-11.6,2.4c-10.6,0.9-21.3-0.1-31.8,1.4c-9.5,1.3-19.4,1.1-28.5,4.6
			c-3.3,1.3-5.9,2.3-9.5,2.8c-4.9,0.6-9.9,1.3-14.9,1.7c-9.6,0.6-20-0.7-29.2-3.8c-4-1.4-7.7-3.4-11.8-4.7c-4.2-1.3-8.6-1.8-13-2.5
			c-3.6-0.6-7.1-1.4-10.7-2c-4.7-0.8-9.3-0.8-14-1.7c-3.7-0.7-7.2-0.9-10.9-1.3c-3.7-0.3-7.2-1.1-10.9-1.7c-2.1-0.3-4.3-0.7-6.5-1
			c-2.9-0.3-5.7,0.2-8.6-0.2c-2.4-0.3-4.6-1.4-7-1.9c-2.5-0.6-5-0.5-7.4-1.3c-3-1-5.8-2.6-8.7-3.9c-2.8-1.2-5.8-2.2-8.7-3.3
			c-2.1-0.8-4.6-1.1-6.2-2.8c-1.4-1.4-2.2-2.9-4-4c-2-1.3-4.1-0.2-6-1C862.8,222.4,863.9,215.3,864.2,214z"/>
		<path class="st1" d="M923.4,228.1c1-0.3,1.8-0.9,2.8-1.1c2.6-0.6,4.9,0.3,7.5-1c4.4-2.1,8.6-2.2,13.3-2.3c1.5,0,2.2-0.4,2.3,1.3
			c0.1,1.7-1.5,3.7-1.9,5.3c-1.1,4.5,3.8,5.1,7.1,4.1c2-0.6,2.9-1.5,3.9-3.4c1.1-2.2,2.6-3.9,4.5-5.4c2.3-1.8,4.9-3.1,7.5-4.4
			c2.3-1.1,4.8-2.5,7.5-1.9c1.9,0.4,3.6,2.2,5.5,1.9c1.9-0.3,2.2-2.9,3.4-4.4c2.3-3.2,6.2-6.3,9.4-8.5c1.5-1.1,4.1-2.8,5.9-2.6
			c0.5,0,1.6,0.5,2.1,0.7c0.8,0.3,2.7,1.8,3.5,1.8c1.2,0,1-0.2,1.4-1.3c0.5-1.4,0.8-2.7,1.5-4.2c1.4-3.2,1.3-6.1,1.9-9.3
			c0.4-1.8,1.3-4.6,1.8-6.6c1.4-5.2,2.1-9.3-1-14c-1.2-1.9-2.5-4-3.9-5.8c-0.7-0.9-1.6-1.8-2.5-2.5c-0.3-0.3-1.6-1-1.8-1.5
			c-0.7-1.8,0.2-4.6,0-6.5c-0.2-2-0.6-4.5-1.5-6.3c-2.3-4.5-5.5-8.1-9.8-10.9c-1.9-1.2-2.8-1.3-5.1-1.3c-1.6,0-3.2,0.3-4.6-0.6
			c-1.5-1-3-2.1-4.4-3.3c-1.1-1-1.4-0.4-2.7-0.1c-1.3,0.3-1.9,0.2-2.9,1.2c-0.8,0.8-2,3.7-3.5,3.4c-0.4-1.6-0.1-4.8-0.1-6.5
			c0,0.1,0,0.3,0,0.4c0-2.4,0.6-4.6,0.7-7c0-1.8-0.1-2.8,0.8-4.4c1.1-2,2.3-4,3-6.2c0.8-2.1,1.9-4.1,2-6.4c-0.9,1-1.7,1.6-1.7,1.6
			c-2.9,2.4-4.8,4.1-5.6,7.1c-1.7,6.1-5.3,11.3-8.7,16.2l-0.1,0.2c-0.2,0.3-0.4,0.5-0.5,0.8c-0.9,1.3-1.9,2.9-3.9,4
			c-0.5,0.3-0.9,0.5-1.3,0.7c-0.6,0.3-1,0.5-1.5,0.8c-1.7,1.1-3.3,1.3-4.5,1.4c-1.1,0.2-1.6,0.2-2,0.7c-1.5,1.3-2.7,2.9-4.1,4.6
			c-1.7,2.1-3.5,4.4-5.8,6.3c-1.6,1.3-3.2,2.1-4.8,2.9c-0.5,0.2-1,0.5-1.4,0.8c-1.3,0.7-2.6,1.5-3.9,2.4c-0.8,0.5-1.6,1-2.4,1.5
			c-4.2,2.5-8.1,4.6-12.3,6.6c-1.1,0.5-2.1,1.1-3.3,1.7c-1.1,0.6-2.3,1.2-3.5,1.8c-0.5,0.3-1.1,0.5-1.6,0.7
			c-0.8,0.3-1.6,0.7-2.2,1.1c-1.4,1-1.6,2.9-1.7,5.9c-0.2,3.8-0.5,9.4-6.6,11.7c-2.9,1.1-3.9,1.9-6.3,5c-2.3,2.8-4.4,5.9-6.5,8.8
			c-1.3,1.9-2.7,3.8-4.1,5.7c-0.1,0.2-0.3,0.4-0.5,0.7c-1.9,2.8-5.4,7.8-9.7,8.1c-0.1,0.9-0.1,1.6-0.2,2.1c0,0,0,0,0,0
			c1.3,0,3.2-0.1,5.1,1.1c1.6,1,2.6,2.2,3.5,3.2c0.4,0.4,0.7,0.8,1.1,1.2c0.6,0.6,1.8,1,3.1,1.4c0.6,0.2,1.3,0.4,2,0.6
			c0.8,0.3,1.7,0.6,2.5,1c2.1,0.8,4.2,1.6,6.3,2.4c1.1,0.5,2.3,1,3.4,1.6c1.8,0.9,3.4,1.7,5.1,2.2c1.1,0.4,2.4,0.5,3.7,0.7
			c1.1,0.1,2.2,0.3,3.4,0.5c1.1,0.3,2.2,0.6,3.2,0.9c0,0,0.1,0,0.1,0c2.9-2.7,5.9-6.3,9.5-7.8C920.2,228.7,921.8,228.6,923.4,228.1z
			"/>
	</g>
	<g>
		<path d="M638,860.9c0.5,0.2,0.9,0.1,1.4-0.1c-1.9-2.8-5-3.7-7.2-6.3c-1.6-1.9-3.3-3.7-5.4-5c-2.9-1.8-4.9-1.4-8.2-1.4
			c-6.9-0.1-17.4-2.7-22.6-7.3c-2-1.8-2.9-4.1-4.5-6.1c-1.1-1.3-2.4-2.3-3.4-3.7c-1.8-2.4-2.8-2.9-5.6-4c-1.2-0.5-2.4-1.1-3.7-1.6
			c-3.7-1.6-7.5-2.5-11.6-2.4c-3,0.1-5.5-0.4-7.7-2.4c-2.1-2-2.1-4.6-3.8-6.8c-1-1.2-2.3-2-3.6-2.8c-1.2-0.7-1.4-1-3-1
			c-2.6,0-5.2,0.7-7.9,0.8c-4.6,0.1-9.6,0.6-14-1.1c-2.5-1-5.1-1.4-7.7-2.2c-2.8-0.9-5.6-1.6-8.4-2.6c-2.5-0.9-2.9-2.5-4.4-4.7
			c-1.7-2.4-3.4-4-6.3-4.7c-3-0.7-6-1-8.9-2c-5.3-1.9-9.8-5.3-14.8-7.9c-1.2-0.6-3.6-0.9-4.5-1.7c-0.6-0.5-0.7-1.5-1.2-2.1
			c-0.3-0.4-0.9-0.5-1.2-0.9c-1.3-1.7-2.1-3.9-3.4-5.7c-1.2-1.7-2.5-2.1-3.9-3.4c-1.2-1.1-1.7-2.4-3.2-3.3c-0.8-0.5-1.7-0.9-2.6-1.4
			c-1.5-0.8-2.7-1.2-4-2.4c-1.3-1.2-3.2-1.8-4.3-3.2c-1-1.2-0.8-3-1.4-4.1c-0.5-0.9-2.2-1.1-3.3-0.8c-1,0.2-1.2,0.7-2.3,0.9
			c-0.7,0.1-1.6-0.2-2.3-0.1c-1,0.2-1.6,0.8-2.6,0.9c-1.1,0.2-2.1-0.4-3.1-0.7c-3.2-0.8-4.7-3.1-7.3-5.1c-1.5-1.1-2.4-2.1-3.5-3.7
			c-1.2-2-3-2.9-4.9-4.2c-2.6-1.9-3.7-0.2-6.4,0.4c-1.2,0.3-2.1,0.1-3.3,0.7c-0.7,0.4-1,1-1.7,1.4c-2.5,1.3-4.8,1.9-6.9,3.9
			c-2.3,2.3-5.1,2.2-7.7,4c-2.3,1.6-4.9,3.9-7.7,4.6c-1.6,0.4-3.3,0-4.9,0c-2,0.1-3.5,0.8-5.4,1.7c-3.3,1.5-6.6,3.1-10.1,4.3
			c-2.4,0.9-4.9,1.6-7.2,2.9c-1.3,0.7-1.8,1.3-3.3,0.8c-2.4-0.7-4.5-2.2-6.8-3c-1.6-0.6-3-1.1-4.5-1.9c-2.9-1.5-5-3.4-7.3-5.7
			c-1.5-1.5-3.2-2.8-4.2-4.7c-0.9-1.7-1.8-3.4-3-4.9c-1.3-1.5-1.9-3.3-3.2-4.8c-1.8-2-4.1-3.7-6.7-4.2c-4.8-1-10.4-2.8-14.5-5.6
			c-0.8-0.5-1-1.2-1.6-1.8c-0.4-0.4-1.3-0.8-1.7-1.2c-0.6-0.7-0.8-3.1-2-3.2c-1.1,0-3.7,3.7-4.6,4.5c-1.4,1.2-2.5,2.2-3.7,3.5
			c-1.1,1.1-1.7,2.3-2.6,3.5c-3.8,4.8-11.8-5.7-14.9-7.7c-2-1.3-4.3-2.6-6.3-3.8c-1.4-0.8-3.5-5.4-5-5.1c-0.5,0.1-1.4,1.4-1.9,1.8
			c-0.6,0.5-1.4,0.9-2,1.4c-1.5,1.1-2.1,2.2-3.8,3.1c-1.7,0.8-3.3,1.2-4.9,2.4c-2.3,1.8-4.6,4.4-6.3,6.7c-1.6,2.4-2.9,4.9-4.3,7.3
			c-0.7,1.2-0.6,2.3-1.3,3.4c-0.6,0.9-2.4,2.1-3.5,2.3c-0.7,0.1-1.7-0.1-2.4-0.1c-1.1,0.1-1.6,0.4-2.6,0.6c-1.7,0.4-3.7,0.3-5.3,0
			c-0.2,0-0.6-0.6-0.9-0.7c-0.8-0.2-1.7,0.2-2.5,0.1c-2.8-0.3-5.1-3.1-7.8-4.1c0.2,0-0.5,0.8-0.3,0.9c-1.5,0-3.7-0.4-4.9,0.6
			c-0.9,0.7-1.2,2-1.7,3c-0.8,1.9-1.6,2.7-3.2,4.1c-0.9,0.8-1.8,2.3-2.9,2.8c-1.9,0.9-4.5,0.7-6.5,1.7c-0.7,0.3-2,1-2.6,1.6
			c-0.9,0.9-0.8,1.8-2.4,2.4c-1.4,0.4-3.6,0.3-4.9-0.1c-0.7-0.2-0.8-0.5-1.8-0.6c-0.8-0.1-1.7,0-2.4,0c-4.2,0-9.8,4.3-13,6.7
			c-2.2,1.6-3.7,4-6,5.5c-1.4,0.9-3.2,1.2-4.3,2.6c-1.9,2.2-3.4,4.9-5.2,7.2c-2.6,3.2-5.8,5.9-8.6,9.1c-0.4,0.5-1.2,1.7-1.8,2.1
			c-0.5,0.3-1.2,0.4-1.7,0.7c-0.7,0.6-1.1,1.2-0.7,2.2c0.3,0.7,1,0.9,1.4,1.4c0.3,0.4,0.1,1,0.3,1.4c0.4,0.8,1,1.3,1.4,2.1
			c1.6,3.3,3,6.6,4.1,10.1c0.4,1.2,1,2.7,0.9,4c-0.2,1.4-1.2,2.1-0.9,3.7c0.4,2.1,3.3,3.8,5.1,4.9c2.4,1.5,4.9,3,7.3,4.5
			c3.1,1.9,6.7,2.8,9.8,4.8c5.1,3.2,8,7.8,12.3,11.9c2.4,2.3,5.1,4.6,7.7,6.7c3.8,3.2,7.6,6.7,11.6,9.7c3.8,2.9,8,5.4,11.9,8.2
			c3.5,2.5,5.7,4.2,9.8,5c5.1,1,9,5.2,14.3,5.4c2.3,0.1,4.4-1.3,6.8-1.3c3.1,0.1,5.6,2.9,7.8,4.7c4.6,3.6,11.1,5.2,16.6,7.2
			c2.3,0.8,4.8,1.5,7.2,2.1c5.5,1.2,10.3,0.9,15.7,0.5c5.1-0.4,10.1,0.9,14.8,2.7c4.7,1.8,9.4,2.7,14.4,3.2
			c4.5,0.5,10.5,2.1,14.9,0.7c3.9-1.3,7.2-4.1,10.9-5.9c3.4-1.6,7-2.3,10.7-2.6c5.9-0.5,9.5,2.8,14.2,5.6c7.1,4.2,14.1,7,22.3,8.1
			c3.8,0.5,7.6,0.9,11.4,1.4c5.1,0.7,9.5-0.3,14.3-1.8c3.8-1.2,7.5-2.4,11-4.3c4.3-2.3,8.8-3.8,13.3-5.6c3.4-1.4,6.6-2.8,10.2-3.7
			c4.3-1.1,8.7-0.8,13-1.9c3.1-0.8,5.5-1.7,8.8-1.7c2.7,0,5.5,0,8.2,0c5,0,11.2,0.1,16-1.6c4.2-1.5,9.1-1.9,13-4.1
			c1.6-0.9,3.4-1.5,5-2.4c2.2-1.2,4.1-2.7,6.3-3.9c6-3.2,12.7-2.6,19.2-4.3c3-0.8,6.1-1,9.1-1.8c3.3-0.9,6.2-2.3,9.7-2.3
			c3.3-0.1,6.5,0.2,9.8-0.5c2.6-0.6,4.7-0.8,7.3-1.1c4.3-0.5,8.8-2.9,12.5-5c2.5-1.4,4.8-3,7.3-4.5c2.5-1.5,5.3-2.3,7.8-3.8
			c2-1.2,3.4-2,5.8-2.1c1.7,0,3.8-0.2,5.4,0.2c3,0.7,6,2.3,8.9,3.3c2.1,0.7,3.9,1.6,5.9,2.6c1.5,0.8,3.2,2.1,4.8,2.7
			c1.5,0.5,6,0.9,6.2-1.3C639.1,861,638.2,861,638,860.9z"/>
		<g>
			<path class="st0" d="M403.2,754.2c-0.1,0.1-0.3,0.2-0.4,0.3c-2.1,2-4.2,2.8-6,3.5c-1,0.4-1.7,0.7-2.4,1.1c-0.5,0.3-1,0.7-1.6,1.1
				c-2.1,1.5-4.7,3.4-7.8,4.2c-1.7,0.4-3.3,0.3-4.6,0.2c-0.5,0-1-0.1-1.3-0.1c-0.8,0-1.5,0.3-2.9,1l-1.7,0.8c-3,1.4-6.1,2.8-9.3,3.9
				c-0.5,0.2-1,0.3-1.4,0.5c-1.8,0.6-3.5,1.2-5,2c-0.2,0.1-0.3,0.2-0.4,0.3c-1.2,0.7-3.1,1.8-6.1,1.2c0.9,1.7,2.4,3.7,2.5,5.6
				c0.2,0.1,0.5,0.8,0.7,1c2.1,1.5,2.4,3.7,4,5.7c0.8,1.1,2.7,1.8,3.2,2.9c0.4,0.8,0,2.3,0,3.2c0.1,1.4,0.6,1.6,0.9,2.8
				c0.2,1,0,2.8-0.1,3.7c-0.5,3.6-3.1,7.3-3.1,10.8c1.4,0,2-1.2,3.1-1.6c1.8-0.6,3.8-0.6,5.7-1.6c2.6-1.3,4.3-2,7.1-2.7
				c0.8-0.2,1.7-0.8,2.5-0.7c1,0.1,0.7,0.6,1.4,0.8c2.3,0.7,4-1,4.4-3.1c0.4-2-0.6-1.8,1.4-2.7c0.8-0.4,1.8-0.8,2.6-1
				c2.9-0.7,4.4,0.4,6.5,2.8c2,2.3,3,3.2,5.9,4.3c2.5,1,4.8,2.5,7.3,3.3c2.2,0.7,3.9,0.8,5.9,2.1c2.4,1.5,5,3,7.6,4.1
				c3,1.3,5.9,4.4,9.4,4.1c-2.5-2-5.5-3.3-7.9-5.5c-1.6-1.4-2.9-3.2-4-5.1c-0.7-1.2-1.4-2.4-2.4-3.3c-0.5-0.5-1.4-0.8-1.9-1.4
				c-1-1.3-1.2-2.6-1.6-4.1c-0.4-0.2-0.6-0.5-0.7-0.9c0-0.6,0-1.1,0.1-1.7c-0.1-0.9-0.5-1.1-0.7-1.8c-0.4-1.9-0.5-4.1-0.8-6.1
				c-0.4-2.5-1-5-1-7.5c0.1-4.9-1.1-8.9-2.2-13.6c-0.6-2.4-1.2-4.8-2.6-6.9c-0.6-0.8-1.9-1.7-2.3-2.4c-0.4-0.8-0.1-2.2-0.1-3
				C403.1,754.6,403.2,754.4,403.2,754.2z"/>
		</g>
		<g>
			<path class="st0" d="M297.9,739.5c-1.2,0.9-4.1,2.6-5.2,3.6c-1.1,1-4.1,3.1-4.5,4.5c-0.8,2.5,0.6,5.7-2.2,7.6
				c-1,0.7-2.2,0.7-3.4,1.2c-1.8,0.7-3.7,1.5-5.3,2.3c-1.2,0.6-2.5,1.8-3.7,2.6c-1.2,0.8-2.5,1.5-3.6,2.3c-2.7,2-3.6,5.6-6,7.7
				c-2.6,2.2-5.9,1.6-9.1,1.6c-4,0-7.6-0.8-11.2-2.6c-1.5-0.8-2.5-1.1-4.1-1.4c-1.3-0.3-2.3-1-3.7-0.9c0.7,0.7,0.8,2,1.3,2.9
				c0.8,1.6,2.1,2.8,3.1,4.3c1.8,2.8,4.2,5.9,6.6,8.3c1.3,1.2,2.7,2.2,3.8,3.6c0.6,0.8,1.3,3,2.1,3.5c0.9,0.6,4.2,0.1,5.1,0.1
				c1.9,0,3.8-0.1,5.7,0c1.7,0.1,1.8,0,2.6,1.6c0.7,1.3,1.3,2.4,2.1,3.7c0.9,1.3,1,2.2,2.8,1.9c0.2,0,0.6-0.6,0.9-0.7
				c0.6-0.1,1.4,0,2,0c1.8,0,3.5,0,5.3,0c1.3,0,3.5-0.8,4.5-0.1c1.8,1.2,2.2,5.9,4.3,6.5c1-3.1,1.7-5.1,3.5-7.9
				c1.6-2.6,4.4-3.4,6.3-5.8c0.7-0.9,0.4-1.4,1.7-1.6c0.8-0.2,1.7-0.2,2.4-0.3c1.8-0.4,3.7-0.4,5.7-0.4c1.8,0,3.9-0.2,5.7,0
				c1.7,0.2,2.6,0.9,4.4,0.8c4-0.2,5.2-4.2,8.5-5.7c2.1-0.9,4.2-0.5,6.3-1.4c1.8-0.7,3.3-1.9,5.1-2.7c3.4-1.5,6.7-1.7,9.7-4.1
				c0.5-0.4,1-0.8,1.5-1.3c-0.6-0.3-1.2-0.6-1.8-0.9c-0.9-0.4-1.7-0.9-2.4-1.1c-1.7-0.6-3.3-1.2-5.2-2.2c-3.4-1.8-5.8-4-8.4-6.5
				c-0.3-0.3-0.6-0.5-0.9-0.8c-1.4-1.3-3.1-2.9-4.4-5.1l-0.2-0.4c-0.8-1.4-1.4-2.6-2.3-3.7c-0.9-1.1-1.5-2.2-2.1-3.1
				c-0.4-0.7-0.7-1.3-1-1.6c-1.2-1.4-2.7-2.4-4-2.7c-6.8-1.5-12.3-3.6-16.2-6.4c-1.1-0.8-1.8-1.7-2.1-2.2c0,0,0,0,0,0
				c0,0-0.1,0-0.1-0.1c-0.1-0.1-0.3-0.2-0.5-0.3C297.1,737.1,297.2,738.3,297.9,739.5z"/>
		</g>
		<g>
			<path class="st0" d="M148.4,821.6c0.6,0.5,1.5,1,2,1.3l0.4,0.3c1.2,0.7,2.4,1.5,3.6,2.2c1.2,0.7,2.5,1.5,3.7,2.2
				c1.2,0.7,2.6,1.3,4.1,2c1.8,0.7,3.8,1.6,5.7,2.8c3.9,2.5,6.6,5.4,9.2,8.3c1.3,1.5,2.5,2.8,3.9,4.1c2.1,1.9,4.4,4,7.5,6.6
				c1.3,1.1,2.7,2.3,3.9,3.4c1.4,1.2,2.7,2.4,4.1,3.5c8.1-1.7,14.5-8.2,23.3-7.1c8.2,1,15.9,5.6,24.2,5.8c-1.5-1.3-2.8-2.8-4.4-4.1
				c-1.7-1.3-2.9-2.9-4.2-4.5c-1.6-1.9-3.8-3.4-5.6-5.2c-2.2-2.2-6.2-4.2-7.1-7.2c1.2-0.6,2.6,0.5,3.7,0.7c1.9,0.4,4.3-0.1,6.3,0
				c2.6,0.1,5.3,0.6,7.9,0.9c2.8,0.3,5.7,0.7,8.4,1.3c3.2,0.8,6.6,2.5,9.9,2.7c1.6,0.1,4.3,0.3,5.7-0.4c1-0.6,1.7-2,2.4-2.9
				c1.4-1.7,3-1.8,4.9-2.4c3.7-1.2,7.6-0.7,11.3-1.4c1.3-0.3,2-0.5,3.2-1c0.7-0.3,1.2-0.2,1.8-0.6c0.6-0.3,1.1-0.8,1.8-1
				c3.3-0.8,5.6,1.4,8.6,1.6c3.2,0.2,6.1,0.5,9.1,1.9c1.5,0.7,2.6,1.5,4.3,1.3c-1-1-2.2-1.6-3.3-2.3c-1.9-1.2-3.5-2.8-5.3-4.2
				c-3.8-3-6.8-7.1-11.1-9.5c-2-1.1-3.8-2.2-6-3.1c-2.9-1.1-5.6-1.1-8.6-1.8c-1.7-0.4-3.5-0.8-5.2-1.2c-1.3-0.3-2.6-0.3-3.9-0.6
				c-4.4-0.9-6.1-6.2-9.7-8.6c-3.4-2.3-6.7-3.5-10.4-5c-2.3-0.9-4.1-3-5.8-4.7c-1-1-2.4-2.1-3.2-3.3c-1.4-2-2.5-3.9-4-5.8
				c-1.6-2.1-4.2-3.6-5.5-5.8c-1.6-2.7-3.1-6.1-5.5-8.4c-0.8-0.8-1.6-1-2.2-2.1c-0.5-0.9-0.9-1.9-1.4-2.9c-0.9-1.9-2-3.8-2.5-5.8
				c-0.4-1.7-0.5-3.4-0.9-5.1c-2.7-0.4-4.8-1.8-6.5-3c-0.2-0.2-0.5-0.3-0.7-0.5l0,0.3c-0.5,0-0.9,0-1.3-0.1c-0.1,0-0.3,0-0.4,0
				c-0.1,0.2-0.2,0.4-0.3,0.6c-1.3,3-2.7,4.4-4.5,5.9c-0.1,0.1-0.3,0.4-0.5,0.6c-0.8,0.9-1.9,2.2-3.5,2.9c-1.5,0.7-3,1-4.3,1.2
				c-0.8,0.1-1.7,0.3-2.1,0.5c-0.4,0.2-0.9,0.5-1.2,0.7c-0.5,0.8-1.6,2.6-4.3,3.5c-3.2,1-6.9,0.2-7.6,0c-0.6-0.2-1.1-0.4-1.5-0.5
				c-0.1,0-0.3,0-0.4,0c-0.4,0-0.8,0-1.2,0c0,0,0,0,0,0c-2.4,0-7.7,4-9.7,5.5l-0.2,0.2c-0.7,0.5-1.3,1.2-2.1,2
				c-1.2,1.2-2.5,2.6-4.2,3.7c-0.9,0.6-1.7,0.9-2.4,1.2c-0.3,0.1-0.7,0.3-0.9,0.4c-0.8,1-1.5,2.1-2.3,3.3c-0.8,1.3-1.7,2.5-2.7,3.8
				c-1.6,2-3.3,3.7-5,5.4c-1.3,1.3-2.6,2.5-3.7,3.8c-0.1,0.1-0.1,0.2-0.2,0.3c-0.4,0.5-0.9,1.1-1.4,1.7c0.1,0.2,0.1,0.5,0.2,0.7
				c0.3,0.5,0.8,1.1,1.2,1.9c1.9,3.9,3.3,7.4,4.4,10.8c0.1,0.2,0.1,0.4,0.2,0.6c0.5,1.3,1.1,3.3,0.8,5.5
				C148.8,820.4,148.6,821,148.4,821.6z"/>
		</g>
		<g>
			<path class="st0" d="M560.1,865.6c2.3,0,4.4,0,6.3-0.4c2.9-0.6,5.3-0.9,7.8-1.2c3.3-0.4,7.4-2.6,10.6-4.4c1.3-0.7,2.6-1.6,4-2.5
				c1-0.6,2-1.3,3.1-1.9c1.5-0.9,3-1.6,4.5-2.2c1.2-0.5,2.4-1,3.3-1.6c0.8-0.5,1.7-1,2.6-1.5c-3.8-1.4-7.2-3.2-9.8-5.5
				c-1.8-1.6-2.8-3.3-3.8-4.8c-0.5-0.7-0.9-1.4-1.3-2c-0.3-0.4-0.7-0.8-1.2-1.2c-0.7-0.7-1.6-1.5-2.4-2.6c-1-1.3-1-1.3-3.5-2.4
				c-0.8-0.3-1.6-0.7-2.3-1c-0.5-0.2-1-0.4-1.4-0.7c-3.2-1.4-6.3-2.1-9.5-2c-0.7,0-1.4,0-2.1,0c0,0.1,0,0.2,0,0.3
				c0.1,1.2-0.1,2.4,0,3.7c0.1,1.5,0.7,2.3,1.3,3.7c0.9,2.2,2.3,3.6,3.6,5.6c1,1.6,2.7,2.5,3.9,3.8c1,1,1.6,2.2,2.5,3.2
				c2.7,2.8,6.7,5.5,8.6,8.8c-1.4-1.2-4.6-2.3-6.4-2.4c-3.5-0.1-6.1-0.5-9.3-2.2c-4.1-2.2-8.6-3.3-12.7-5.4
				c-4.4-2.2-6.5-5.7-9.8-8.9c-2.2-2.1-5.3-2.6-7.6-4.4c-1.2-0.9-2-2.2-3.2-3.1c-1.2-0.8-2.5-1.6-3.6-2.6c-0.7-0.7-1.4-1.5-2.1-2.1
				c-1-0.9-2.1-1.4-3.2-2.2c-1.5-1.2-3.5-4.6-5.7-4.5c0,1.1,0.6,2.3,0.7,3.6c0.1,2.9,1.1,4.7,2.5,7.2c0.5,0.8,3.2,5.3,0.8,5.5
				c-0.9,0.1-1.6-2-2.1-2.5c-1-1.1-2.5-2-3.6-2.9c-2.6-2.3-4.6-5.1-6.9-7.7c-1.8-2-4.5-2.4-6.9-3c-1-0.3-2.1,0-3-0.3
				c-0.7-0.3-1.4-1.2-2.2-1.5c-0.8-0.3-1.6-0.5-2.4-0.7c-2.2-0.6-3.9-2.1-5.4-3.8c-0.7-0.9-2.6-4.5-2.4-5.7c-1.2,1-1.1,2.9-1.8,4.2
				c-0.7,1.2-1.7,1.9-2.7,2.8c-1.3,1.1-3.1,2.2-4.2,3.4c-1,1-0.5,3.6-1.6,3.8c-0.9-4.6-4.3-7.6-7.9-10.1c-1.4-1-2.7-2.2-3.4-3.8
				c-0.9-1.8-1-1.9-1-3.9c-1.2,0.3-2.5,2-3.1,2.9c-1.1,1.6-2.3,3.5-3.3,5.2c-1.3,2-0.2,3.6-0.8,5.7c-0.2,0.9-0.7,1.3-0.9,2.4
				c-0.2,1.3,0.3,2.6-0.1,3.9c-0.4,1.3-2,3.5-3.5,3.5c-1.8,0-2.9-2.2-4.9-1.7c-2.5,0.6-0.8,2.4,0.4,3.4c0.8,0.7,1.4,1.4,2.1,2.3
				c0.5,0.7,0.9,1.6,1.4,2.2c1.2,1.5,2.9,1.8,4.3,3.1c1.5,1.4,2.1,3,2.8,4.8c2,5,10.2,3.5,14.6,4.6c1.2,0.3,2.5,1.2,3.6,1.8
				c1.5,0.8,2.9,1.2,4.5,1.8c1.8,0.7,3.3,1.9,5.1,2.6c1.8,0.8,3.4,1,5.1,2.2c1.4,1,2.9,2.1,4.4,2.9c1.9,1.1,4.2,1,5.9,2.5
				c1.7,1.5,3.3,3,5.1,4.4c2,1.7,3.2,3.6,5.9,4.2c1.5,0.3,2.9,0,4.4,0.1c2,0.2,3.9,1.4,5.8,2.1c0.8,0.3,1.6,0.7,2.4,1
				c0.6-0.1,1.3-0.2,1.9-0.3c2.3-0.3,4.6-0.6,6.7-1.1c1.7-0.4,3.4-0.7,5-1c1.4-0.2,2.8-0.5,4.1-0.8c0.9-0.2,1.8-0.5,2.7-0.8
				c2.3-0.8,5-1.6,8.1-1.7C558.4,865.6,559.2,865.6,560.1,865.6z"/>
			<path class="st0" d="M636.8,856.6l1.7,2.8l1.1-3.1c-0.3-0.1-0.6-0.1-0.9-0.1C638,856.1,637.3,856.2,636.8,856.6z"/>
		</g>
		<g>
			<path class="st0" d="M432.5,762.5c-0.2-0.1-0.4-0.1-0.5-0.2c-3.5-0.9-5.6-2.8-7.3-4.4c-0.6-0.6-1.2-1.1-1.8-1.5
				c-1.8-1.3-2.9-2.5-4-4.1c-0.7,1.8-1.3,3.6-1.2,5.8c0,2.6-0.1,5.1,0,7.7c0.1,2.5,1.1,3.9,2,6.1c1,2.3,0.9,4.7,1.3,7
				c0.3,1.6,1,3.3,1.4,4.8c0.5,1.5,0.5,3.5,1.2,4.9c0.8,1.8,3,3,3.8,4.6c0.5,1.1,0.3,2.4,1,3.6c0.7,1.1,1.6,3,2.4,3.9
				c1.2,1.2,1.6,1.2,2.4,2.9c0.3,0.6,0.8,1.9,1.3,2c0.7-1.7-0.1-3.6-0.6-5.2c-0.7-2.3-0.8-4.3-0.8-6.7c0-1.7,0.5-4.2,0-5.9
				c-0.3-1.4-1.3-2.4-0.9-4c0.2-0.7,0.7-0.9,0.9-1.5c0.2-0.8-0.1-1.7-0.1-2.5c0.2-1.7,0.9-2.6,0.8-4.4c0-0.7-0.2-1.8,0-2.5
				c0.2-0.8,0.7-1.2,0.9-1.9c0.2-0.7,0-1.5,0.1-2.3c0.1-0.6,0.6-1,0.6-1.8c0.1-1.2-0.2-2.6-0.2-3.9
				C434.2,763,433.2,762.7,432.5,762.5z"/>
		</g>
		<path class="st0" d="M249.9,742.5c-0.1,0.5-0.5,1.1-0.6,1.7c-0.3,1.4,0,2.5-0.9,3.8c2-1.8,2.9-3.3,5.7-3.8
			c2.3-0.3,5.1-0.5,7.1-1.5c0.7,0.9,2.2,1.8,2.6,2.8c0.6,1.5-0.3,3.5,0.2,5.1c0.8-0.1,1.5-1.2,2.2-1.7c0.9-0.6,2.2-1.7,3.2-2.1
			c2.3-0.8,5.7-0.2,8.1-0.2c1.4,0,2.6,0.4,3.3-0.7c0.1-0.1,0.1-0.3,0.1-0.5c-3.6-1.2-6.9-4.4-9.7-7c-0.8-0.8-2-1.9-2.4-2.2
			c-1.5-1-3.2-1.9-4.8-2.9c-0.5-0.3-0.9-0.5-1.4-0.8c-1.1-0.7-2-1.6-2.8-2.7c0,0-0.1,0-0.1,0.1c-0.2,0.1-0.4,0.3-0.6,0.4
			c-0.3,0.2-0.6,0.5-1,0.9c-0.8,0.8-1.9,1.8-3.7,2.7c-0.5,0.2-0.9,0.4-1.3,0.6c-0.6,0.8-1.2,1.6-1.7,2.6
			C250.8,738.9,250.4,740.7,249.9,742.5z"/>
	</g>
	<g>
		<path d="M1248.3,601.6c-2.5-2.5-4.9-5.2-8.2-6.8c-3.5-1.6-7.5-1.8-11.2-1.3c-1.9,0.3-3.7,0.8-5.6,0.6c-2.3-0.2-3.8-1.7-5.6-3
			c-3.6-2.7-6.9-5.9-10.6-8.3c-3.4-2.2-6.2-4.9-9.3-7.3c-2.7-2.1-5.3,0.2-8-0.1c-1.8-0.2-3.8-2.7-5.3-3.7c-1.1-0.8-2.5-2-3.8-2.3
			c-2.5-0.5-4.7-0.4-6.8-2.2c-2-1.7-3.8-4.4-5.5-6.4c-1.9-2.3-2.8-4.8-5-6.9c-3.7-3.7-7.7-7.2-10.2-11.8c-0.8-1.5-0.2-3.3-0.8-4.8
			c-0.6-1.5-1.4-2.2-2.6-3.1c-1.7-1.3-3.1-3.1-5-4.1c-1.1-0.6-2.6-0.4-3.7-1c-0.6-0.4-0.9-1-1.5-1.4c-2.2-1.4-5-0.2-7.1-1.9
			c-1.6-1.3-2.3-3-3-4.9c-1.2-3.2-2-4-5.6-3.4c-1.1,0.2-6.9,3.2-7.1,1.9c0,0.2-0.1,0.4-0.1,0.6c-0.4,0.1-0.8,0.2-1.2,0.3
			c-0.2,2-1.6,2.9-3,4.1c-1.9,1.7-2.3,4.1-4,5.9c-2.6,3-5.9,5.1-8.8,7.8c-1.3,1.3-2.2,2.7-3.8,3.5c-0.9,0.5-1.9,0.6-2.8,1.2
			c-2.1,1.4-4.3,3.3-6.2,4.9c-1.9,1.6-3.5,2.1-5.6,3.3c-1.5,0.9-3.2,1-4.5,1.9c-1.5,1.1-2.2,3.1-3.3,4.5c-1.4,1.9-3.5,2.6-4.9,4.5
			c-1.3,1.8-2.5,3.2-3.5,5.2c-0.6,1.1-1.4,2.9-2.8,3c-0.9,0.1-1.2-0.6-1.7-0.7c-1-0.1-0.9,0.4-1.7,0.5c-2.7,0.5-4,1.4-5.7,3.7
			c-1.5,2.1-2.5,5-4.1,6.8c-1.3,1.5-3.4-0.2-4.8,1.7c-1.3,1.8-0.7,5.5-0.6,7.7c-1.3-1.8-4.1-1.6-5.1-3.4c-0.3-0.6-0.1-1.3-0.2-1.9
			c-0.1-0.7-0.6-1.2-0.7-1.9c-0.2-1.1,0.4-2.1-0.4-3c-1.8-2.1-5.8-1.9-7.8-3.7c-1.5-1.3-2.4-1.3-4.2-2.2c-1.8-0.9-3.1-2.3-5-3
			c-1.5-0.5-2.8-1.5-4.5-1.6c-1.4,0-2.3-0.3-3.6-0.6c-2.3-0.5-3.9,0.7-6,1.2c-1.9,0.4-3.9,0.1-5.8,0.2c-3.6,0.1-6.4,2.5-9.7,3.8
			c-1.4,0.5-3.2,0.6-4.3,1.6c-1.1,1-1.9,2.6-3.9,2.8c-1.5,0.2-2.4-3.1-3-4.1c-0.8-1.4-1-2.4-2.6-3c-3-1.2-6.6-1.5-9.7-2.6
			c-3.7-1.3-7.4-3-11.2-3.8c-3.5-0.8-7.1-0.2-10.4-1.8c-2.3-1.1-3.5-3.4-5.7-4.4c-1.6-0.8-4-1.4-5.8-1.7c-2.5-0.5-4.1,0.3-6.5,0.6
			c-3,0.4-5.4-1.4-7.8-3c-1.8-1.2-4.3-3.4-6.4-3.8c-1.9-0.3-1.5,0.5-2.3,1.5c-0.8,1-2.8,1.8-3.9,2.2c-3.4,1.4-6.2,3.4-9.3,5.4
			c-5.1,3.2-8.7,7.9-11.4,13.3c-2.6,5.3-7,7.8-10.9,12c-3.2,3.5-6,6.7-10,9.2c-2.9,1.9-5,5.3-8,6.9c-3.4,1.7-5.8-2.5-8.8-1.9
			c-2.7,0.5-2.8,3.4-5.8,2.8c-0.6-0.1-1-0.7-1.7-0.7c-0.6,0-1,0.5-1.5,0.7c-1.6,0.4-3.5,0.4-5.2,0.7c-1.7,0.3-3.4-0.1-5.1,0.1
			c-1.5,0.2-2.8,1-4.3,0.8c-1.2-0.1-2.1-0.7-3.3-0.8c-2.2-0.2-2.8,0-4.6-1.4c-1.6-1.3-3.3-2.5-5.2-3.2c-2.9-1.1-6.3-1-9.1-2.4
			c-0.6-0.3-2.6-1.2-2.7-1.7c0.2-0.1,0.5-0.1,0.7-0.2c-1.4,0.1-4.6-0.8-5.7-0.1c-4.4,2.7-5.8,9.1-7.5,13.6c-2.2,5.6-5.4,10.5-6,16.7
			c-0.5,4.7-0.7,8.1-3.4,12.2c-1.6,2.5-3.6,4.5-4.9,7.2c-1.8,3.8-3.2,8.4-3.7,12.6c-0.7,6.4,1,13,6.9,16.4c2.1,1.2,4.3,2.2,6.6,2.6
			c2.7,0.5,5.2,0.2,7.5,1.8c5.7,3.9,8,11.3,13.4,15.6c2.3,1.9,4.7,3.2,7.6,3.6c1.7,0.2,3.3-0.1,5,0.2c3.2,0.6,5.9,1.4,9.2,1.4
			c4.2,0.1,8.2,0.3,12.4,0.5c9.3,0.6,18.7,0.2,28,0.2c2.7,0,5.4-0.2,8.1,0.1c5.5,0.5,10.4,2.7,15.6,4.3c2.9,0.9,5.2,0.8,8.1,0.8
			c4,0,7.9,0.7,11.9,0.8c3.1,0.1,5.4,0,8.4-0.9c4.7-1.4,8.8-3,13.8-3.6c7.8-0.8,15.9-1.2,23.7-0.7c4.4,0.3,8.8,0.9,13.2,1.2
			c6.1,0.4,12.3,0.2,18.5,0.1c8.4-0.1,16.5,2.2,24.9,2.3c10.3,0.2,20.8-1.3,31.1-2.1c6.7-0.5,13.4-1.4,20.1-1.9
			c10.1-0.6,19.9-2.2,29.6-5c10.7-3.1,21.1-8.3,32.4-9c6.5-0.4,13.1,2.3,18.8,5.4c3.8,2.1,7.6,3.9,11.6,5.6c6.4,2.7,14.4,2.1,21,0.9
			c3.3-0.6,6.7-0.7,9.9-1.6c2.9-0.8,5.2-2.1,8.2-2.2c2,0,4.3-0.2,6.3,0.2c2.4,0.4,4.5,1.6,6.9,2c3.9,0.6,6.9-0.6,10.6-1.3
			c5.2-1,10.2,1.3,15,2.9c6.6,2.2,12.5-0.5,18.1-3.9c4.2-2.5,7.2-7.3,9.6-11.4c2.7-4.6,3-10.6,1.5-15.7c-0.6-2.1-1.8-4.2-2.2-6.4
			c-0.5-2.6-0.3-5.1-0.9-7.7c-1.2-5.5-0.8-11.4-1.3-16.9c-0.2-2.4-0.5-5,0-7.5c0.5-2.6,0.9-5,0.4-7.7c-0.4-2.3-1.5-3.2-2.8-4.9
			c-1.7-2.1-3.5-4.2-4.7-6.6c-0.6-1.3-1.2-2.9-2-4.1c-0.4-0.7-1.1-1.4-1.6-2C1247.8,601.7,1249.4,601.8,1248.3,601.6z"/>
		<path class="st0" d="M1181.8,690.3c1.6-3.8-3.9-7.1-5.8-9.5c-2.1-2.7-1.8-5.6-1-8.7c0.3-1.2,0.7-3.1,1.8-3.9
			c1.2-0.8,5.3-0.2,6.5,0c2.5,0.5,5.7,1.9,8.2,1.2c-0.7-2.1-4.6-3.1-6.2-4.5c-2.3-1.9-4.4-5.3-5.3-8c-0.9-2.5-4.6-8.1-2.2-10.6
			c-1-1.5-2.4-2.4-2.7-4.3c-0.3-1.9,0.3-3.7,2.3-3.8c2-0.1,4.2,1.7,6,2.4c2.3,0.9,5.2,2.3,7.7,2c2.5-0.3,4.1-1.9,6.8-1.1
			c1.3,0.4,4.3,3.1,5.6,2.7c1.2-0.3,0.7-0.9,0.3-1.5c-0.7-1.2-1.6-2.4-2.3-3.7c-1.6-2.9-3.3-5-3.3-8.3c0-1.8-0.5-2.2-1.3-3.7
			c-1.1-2-1.4-3.4-1.7-5.6c-0.8-5-0.8-10.1-0.7-15.3c0.1-3.3,0.8-6.3,0.8-9.7c0-2.3,0.7-5.9-0.1-8.1c-0.6-1.7-2.5-3.9-3.9-5
			c-1.9-1.4-4.1-1.9-5.5-4.1c0,0,0,0,0,0c-1.2-0.7-2.3-1.7-3.1-2.5c-0.4-0.3-0.8-0.7-1-0.9c-0.3-0.2-0.6-0.4-0.8-0.6
			c-0.4-0.3-0.9-0.7-1.2-0.9c-0.4-0.1-0.8-0.1-1.3-0.2c-2.1-0.3-4.9-0.7-7.6-3.1c-1.8-1.5-3.4-3.5-4.7-5.3c-0.5-0.6-0.9-1.2-1.3-1.7
			c-1-1.2-1.8-2.5-2.5-3.6c-0.7-1.2-1.4-2.2-2.2-3c-0.6-0.6-1.3-1.2-1.9-1.9c-3.3-3.2-6.8-6.6-9.1-11c-1-1.8-1-3.7-1.1-4.8
			c0-0.2,0-0.6,0-0.7c-0.1-0.1-0.2-0.3-0.9-0.8c-0.8-0.6-1.6-1.3-2.2-1.9c-0.7-0.7-1.4-1.3-1.9-1.6c-0.1,0-0.3,0-0.4-0.1
			c-0.9-0.1-2.3-0.3-3.6-1.1c-0.8-0.5-1.4-1-1.7-1.4c-0.3,0-0.6-0.1-0.9-0.1c-1.7-0.1-4.2-0.3-6.5-2.2c-2.6-2.1-3.7-4.7-4.5-7
			c0,0,0-0.1,0-0.1c-0.3,0.1-0.7,0.3-1.1,0.4c-1,0.4-2,0.8-2.9,1.1l0,0.2l-1.6,0.4c-0.3,0.5-0.6,0.9-0.9,1.3
			c-0.1,1.1-0.2,2.5,0.2,3.1c0.4,0.6,1.6,1,2.1,1.7c0.9,1.2,1.2,2.8,1.7,4.2c0.6,1.9,0.9,4.1,2,5.5c0.8,1.1,1.7,1.4,2.3,2.9
			c0.7,1.6,1.1,3.4,1.5,5.1c0.8,3.5,2.2,7.5,2.2,11c0.1,2.6,0.1,4,2,6.1c2,2.1,4.4,3.8,6.3,6.1c2.4,2.9,5.2,5.2,7.3,8.4
			c1.4,2.2,2.6,4.8,4.1,6.9c1.1,1.5,2,2.6-0.3,2.5c-1,0-2.2-1-3.2-1.4c-1.2-0.5-2.5-0.8-3.7-1.5c-2.7-1.4-5.5-2.7-8.1-4.3
			c-1.1-0.7-2.8-1.3-3.8-2.1c1.8,1.4,2.9,3.5,3.9,5.5c1,2.2,2.5,4,3.7,6.1c0.8,1.4,1.8,2.7,2.7,4.1c0.5,0.8,3.4,4.6,3.2,5.4
			c-2.8,0.7-6.4,0.1-9.3,0.1c-1.6,0-3.3,0.2-4.9,0c-2.2-0.3-3.1-2.2-5-2.7c-0.6,2.1-0.2,5.1,0.4,7.1c0.8,3,4,8.1,3.1,11.3
			c-0.6,2.2-3.1,3.7-3.7,5.9c-0.4,1.4,0.1,2.8-0.5,4.4c-0.5,1.3-1.1,2.6-1.7,3.8c-1.5,3.3-3.7,6.5-6.3,9c-1.4,1.3-2.7,1.4-4.2,2.4
			c-0.8,0.6-1.3,1.3-2.2,1.9c-5.7,3.5,2.1,7.1,3,11.1c0.3,1.5,0.2,4.1-0.1,5.6c-0.3,1.2-0.6,1.8-0.6,3.2c0,0.9,0.3,2.6-0.2,3.4
			c-0.3,0.6-1.1,1.1-1.5,1.6c-0.5,0.7-0.9,1.6-1.3,2.3c-1.8,2.8-3.2,6.2-5.2,8.9c-0.7,0.9-2.4,1.9-2.3,3.1c0,0.8,0.7,1.4,1.5,2
			c7-2.5,14.3-4.9,22.2-5.4c8.4-0.5,16.2,3.1,21.4,5.9c4.2,2.3,7.7,4,11.2,5.4c4.3,1.8,10.4,2,18.2,0.6c1.3-0.2,2.6-0.4,3.9-0.6
			c0.1,0,0.1,0,0.2,0C1181.1,691.4,1181.5,691,1181.8,690.3z"/>
		<path class="st0" d="M900.8,564.2c-3.9,2.5-7.1,6.3-9.6,11.2c-2.2,4.4-5.3,7.2-8.1,9.7c-1.3,1.1-2.5,2.2-3.6,3.4l-0.8,0.8
			c-3.1,3.4-6,6.5-10.3,9.2c-0.8,0.5-1.8,1.5-2.8,2.5c-1.5,1.6-3.3,3.4-5.7,4.6c-4.3,2.2-7.8,0.2-9.8-0.9c-0.1-0.1-0.3-0.2-0.4-0.2
			c-1.1,1.1-3.5,3.3-7.7,2.5c-0.2,0-0.4-0.1-0.6-0.2c-0.1,0-0.1,0-0.2,0.1c-1.3,0.4-2.6,0.5-3.7,0.6c-0.7,0.1-1.3,0.1-1.8,0.2
			c-1.5,0.3-2.9,0.2-4,0.2c-0.6,0-1.1,0-1.5,0c-0.2,0-0.5,0.1-0.9,0.2c-1,0.3-2.6,0.8-4.5,0.6c-1.1-0.1-2-0.4-2.7-0.6
			c-0.2-0.1-0.6-0.2-0.7-0.2c-0.3,0-0.6-0.1-0.9-0.1c-2.1-0.2-3.8-0.4-6.3-2.4c-1.4-1.1-2.6-2-3.9-2.5c-0.9-0.3-2-0.5-3.2-0.7
			c-2-0.4-4.3-0.8-6.5-1.9c-0.1,0-0.2-0.1-0.3-0.1c-0.8-0.4-1.7-0.8-2.5-1.4c-0.2,0-0.5-0.1-0.7-0.1c-1.7,1.6-2.8,4.8-3.8,7.7
			c-0.3,1-0.7,2-1,2.9c-0.7,1.9-1.5,3.6-2.3,5.3c-1.6,3.6-3.1,6.7-3.4,10.1l-0.1,0.7c-0.5,4.5-0.9,8.8-4.1,13.7
			c-0.7,1.1-1.4,2-2.1,2.9c-1,1.3-1.9,2.5-2.5,3.7c-1.6,3.3-2.8,7.4-3.2,11c-0.3,3-0.3,8.2,3.7,11.1c7.4-3.3,14.8-6.6,22.5-8.9
			c2.5-0.7,4.8-1.9,7.2-2.8c2.2-0.7,3.9-2.3,5.9-3.4c1.9-1,3.6-2.4,5.6-3.4c1.4-0.7,3-1.1,4.4-1.8c2.6-1.5,4.3-3.2,7.5-3.5
			c4.3-0.5,8.7,0.4,12.9,0c2.3-0.2,4.4-1.2,6.7-1.5c1.8-0.3,3.3-0.2,5.1-0.9c1.1-0.5,2.8-1.3,3.6-2.2c0.9-1.1,0.8-2.7,1.6-3.8
			c3-4.1,9-3.1,13.4-2.5c3.4,0.5,6,1.2,9,3c2.7,1.6,5.6,4,8.8,4.2c3.2,0.2,5-2.3,6.7-4.6c1.2-1.6,1.4-4.6,1.7-6.6
			c0.3-1.8,0.8-3.3,0.7-5.1c0-3.5-0.7-9.7,2.9-11.4c1.9-0.9,3.1-1.4,4.2-3.4c1.3-2.2,0.6-4,1.1-6.3c1.7,0,3.3,1.4,5.1,0.7
			c1.8-6.2-2.3-12.8-2.1-19c0.1-3.2-0.5-6.5-1.5-9.5c-0.6-2-1-3.9-1.3-5.9c-0.3-2.2-0.2-5.4-1.4-7.3c-0.5-0.7-1.2-1.3-1.8-1.8
			c-1.7,0.9-3.3,1.9-5,3C901.8,563.6,901.3,563.9,900.8,564.2z"/>
		<path class="st0" d="M1045.7,688.9c0.8-0.2,1.4-0.4,1.9-1.1c1.4-1.7,0.7-5,0.7-7c0-5.9,0.8-11.7,0.7-17.6c0-1.9,0.1-3.2-0.7-4.8
			c-0.9-1.6-1.5-3.3-2.5-4.8c-1.5-2.4-2.7-5-4.3-7.4c-0.8-1.2-2-2.2-2.9-3.4c-0.7-0.9-0.9-2.2-2.2-2.2c-0.5,4-1.6,8.5-3.7,11.9
			c-1.6,2.6-0.8,5.8-1.3,8.7c-0.6,4.1-1.2,9.2-2.8,13c-0.9-0.6-1.8-3.4-2.4-4.6c-0.8-1.6-1.2-3.4-1.7-5c-0.5-1.5-0.9-3.1-1.6-4.5
			c-1.1-2.1-2.6-3.8-3-6.2c-0.3-2,0-4.3,0-6.4c0-0.9-0.1-2,0.1-2.9c0.1-0.5,0.6-0.6,0.7-1.1c0.6-2.9-0.6-5.6-2.4-7.7
			c-2.4-2.6-6.2-3.9-8.1-6.9c-1.4-2.4-0.4-5.1,0.2-7.6c0.4-1.6,1.1-3.1,1.4-4.7c0.3-1.5,0.5-3.1,1.1-4.5c0.8-2,2.2-4.3,3.3-6.2
			c0.6-1,1.6-1.9,1.5-3.2c-1.5,1.9-4.4,2.6-6.5,3.6c-4.1,1.9-8.6,3.4-11.7,6.9c-1.2,1.3-0.9,1.4-2,0.4c-0.6-0.6-1.3-1.6-1.9-2.3
			c-0.6-0.6-1.2-0.9-1.2-1.8c0-1,1.1-1.4,0.7-2.3c-6.6,2.1-11.7,7.2-17,11.3c-1.8,1.4-4,2.5-6.1,3.4c-2.1,0.9-3.8,0.5-6,0.7
			c-3.2,0.2-6.2,0.8-9.4,0.8c0.2,0,0.3,0,0.5,0c-1.3,1-2.5,2-3.8,2.9c-1.6,1.1-3.4,2.2-5.2,2.9c-2.2,0.9-4.5,0.8-6.7,1.5
			c-4.2,1.3-6.9,5.3-9.7,8.4c-2.8,3.1-6.2,5.4-9,8.5c-3.6,4-7.7,7.8-10.5,12.4c-1.8,2.9-3.7,7.6-6.9,9c-2,0.9-4.3,0.8-6.4,1.5
			c-3.1,1-4.9,3.7-8.3,4.2c-2.6,0.4-5.4,0.2-7.9-0.3c-3.3-0.6-6.6,1.9-9.4,3.5c-3.2,1.9-6.4,4.2-8.7,7.1c-2.5,3-5.2,5.8-7.6,8.8
			c0.8,0,1.5,0,2.3,0c2.3,0,4.7-0.1,7.1-0.1c0.6,0,1.2,0,1.8,0c0.8,0,1.6,0,2.5,0c1.4,0,2.9,0,4.4,0.2c4.8,0.5,9,1.9,13,3.3
			c1.2,0.4,2.4,0.8,3.6,1.2c1.7,0.5,3.2,0.6,5.4,0.6c0.4,0,0.8,0,1.2,0c2.3,0,4.5,0.2,6.7,0.4c1.8,0.2,3.6,0.3,5.3,0.4
			c2.9,0.1,4.6,0,6.8-0.7c0.9-0.3,1.8-0.6,2.7-0.9c3.7-1.2,7.5-2.4,12-2.9c9-1,17.1-1.2,24.6-0.7c2.3,0.1,4.5,0.4,6.7,0.6
			c2.3,0.2,4.4,0.5,6.6,0.6c4.6,0.3,9.5,0.2,14.2,0.2c1.3,0,2.6,0,4,0c4.8,0,9.4,0.6,13.8,1.2c3.9,0.5,7.5,1,11.2,1.1
			c6.9,0.1,14.2-0.6,21.2-1.2c0.5,0,1-0.1,1.5-0.1c1.7-2,3.5-3.9,5.3-5.7C1042.5,689.5,1043.4,689.5,1045.7,688.9z"/>
		<g>
			<path class="st0" d="M1059.7,641.9c1.9,1.7,2.6,1.1,5.1,1.6c1.5,0.3,2.8,1.1,4.4,1.3c1.5,0.2,2.8,0.5,4.2,0.7
				c1.1,0.2,1.9-0.1,2.9,0.4c1.4,0.7,2.3,2.6,3.5,3.6c2.4,2.2,4,4.5,5.9,7.2c1.8,2.6,3.3,5.6,5.2,8.1c0.8,1,1.8,2.2,3,2.6
				c-0.1-2.2,0.1-4.3-0.8-6.4c-0.5-1.3-1-2.6-1.3-4c-0.5-2-1.4-3.9-2.6-5.6c-1.7-2.6-3.9-5.2-5.8-7.7c-1.9-2.4-3.5-3.2-2.8-6.6
				c0.7-3.6,2.1-7,1.3-10.8c-0.6-2.9-3.7-4-5-6.5c-0.1-0.9-0.4-1.8-0.8-2.7c-0.6-0.8-1.4-1.6-2.2-2.3c-0.9-0.8-1.8-1.6-2.6-2.5
				c-2.6-2.8-3.5-5.3-4.5-8.8c-1-3.8-4.3-5.2-7.8-6.5c-3.1-1.2-6.5-1.8-9.8-2.2l0.6,11.4l-9.7-13c-0.2-0.1-0.4-0.2-0.7-0.3
				c-1.4-0.6-3.7-1.5-5.1-4.1c-0.7-1.3-0.8-2.4-0.8-3.2c-0.1-0.1-0.1-0.3-0.2-0.5c0.2,1.7-0.8,2.7-0.8,4.3c0,2.6,2.6,6.9,4.7,8.8
				c2,1.8,3.7,3,4.7,5.7c0.9,2.5,2,5.6,3.8,7.6c1.6,1.8,5,2.2,7.1,3.5c2,1.2,3.9,3.6,3.8,5.9
				C1056.2,628.4,1053.7,636.4,1059.7,641.9z"/>
			<path class="st0" d="M1032.8,582.9c-0.3-0.1-0.5-0.2-0.8-0.2c0,0,0,0.1,0,0.1c0.2,0.4,0.6,0.9,0.9,1.4c0-0.1-0.1-0.2-0.1-0.4
				C1032.9,583.5,1032.9,583.2,1032.8,582.9z"/>
		</g>
	</g>
	<g>
		<path d="M855.6,868.7c-0.8,0-1.4,0.1-2.1-0.1c0.1-0.8,0.5-1,0.9-1.7c1.2-2.1,2.6-4.2,3.8-6.3c3.2-5.2,6.4-10.5,9.6-15.7
			c2.1-3.4,4-7.2,6.6-10.2c2.2-2.6,6-4.6,8.9-6.5c3.4-2.2,4.8-3.5,7.3-6.8c1.6-2.2,3.3-4.4,5-6.5c2.4-3,4.4-6.2,7.4-8.8
			c4.9-4.3,9.3-9,13.8-13.7c3.9-4,8.3-7.6,13.3-10c5.2-2.6,9.6-6.3,14.6-9.1c3.8-2.1,7.1-4.7,10.8-6.8c4-2.3,8.3-3.1,12.1-5.9
			c3-2.2,6-3.3,8.4-6.4c1.8-2.5,3.9-4.1,6.1-6.1c3.2-3,4.8-7.2,8-10.2c1.3-1.2,2.3-1.4,3.3-2.9c0.7-1.1,2-2.5,2.2-3.9
			c0.8-0.1,1.4-2.1,1.9-2.4c0.9-0.5,1-0.5,2.2-0.5c1.1,0,2.5-0.3,3.3,0.5c0.8,0.8,0.5,2,0.5,3.1c0,0.9-0.3,2.1,0.1,3
			c0.4,1,1.5,2,2.1,3c0.6,1.3,0.9,2.8,1.3,4.2c0.5,1.9,0,3.8,0.7,5.7c0.8,2.4,2.2,2.7,3.8,4.4c0.6,0.7,1,1.4,1.4,2.2
			c1.1,2.2,2.4,2.2,4.2,3.6c1.6,1.2,2.8,3.7,4.3,5.3c2.1,2.3,4.2,4.6,6,7.2c1.1,1.6,2,3.6,3.6,4.9c1.9,1.6,4.4,1.7,6.3,3.4
			c2.1,1.8,4.6,3.2,6.4,5.2c1.6,1.7,3,3.3,4.5,5.1c1.1,1.3,2.2,1.8,3.6,2.6c3.2,1.8,4.1,5.1,5.4,8.2c1,2.2,1.7,3.7,3.2,5.5
			c1.4,1.7,2.9,3.3,4.3,5c1.4,1.7,2.4,3.9,3.9,5.3c2.4,2.3,6,2.3,8.3,4.8c1.8,1.9,3.9,3.5,5.8,5.3c1.5,1.4,2.6,2.7,4.7,3.3
			c1.4,0.4,2.7,0.2,4.1,0.5c1,0.2,1.5,0.7,2.4,0.5c1.3-0.2,2.6-1,3.9-1.3c2.5-0.5,7.7,0.9,9.5-0.7c0.5-0.4,0.9-2,1.2-2.6
			c0.8-1.6,1.6-3.2,2.7-4.7c1.4-2,3.1-3.9,4.7-5.7c0.7-0.8,1.2-1,2-1.6c0.5-0.4,1.6-1.9,2.2-1.9c1,0,1.5,1.4,2.1,2.1
			c0.9,1.1,1.6,1.6,2.2,3c0.5,1,0.8,2.4,1.4,3.4c0.6,1,1.9,2.2,2.7,2.9c1.1,0.8,1.9,0.7,3.1,1.3c1.7,0.9,2.5,3.8,3.6,5.5
			c1.7,2.5,3.4,4.2,5.6,6.3c4.9,4.6,8,10.5,12.1,15.8c1.8,2.3,4.4,6.1,7.3,7.2c2.7,1,5.6,0.3,8,2.4c2.9,2.6,5.3,5.5,8,8.4
			c1.3,1.4,2.9,2.4,4.2,3.7c-1.1-0.2-1.5,0.5-2.3,0.9c-1.8,0.9-3.6,1.6-5.5,2.3c-6.5,2.2-13.1,4.9-19.8,6.2c-4.2,0.8-8.9,1.4-12.9,3
			c-3.9,1.5-7.4,4-11.2,5.7c-5.2,2.4-10.8,3.6-15.9,6.2c-4.4,2.3-8.7,4.7-13.4,6.5c-12.4,4.7-25.2,4.9-38.3,3.9
			c-12.3-0.9-24.4,0.4-36.7-0.1c-7.7-0.3-15.3-1.2-23-1.3c-5.3-0.1-10.3-1.7-15.5-2.8c-4.7-1-9.2-0.4-13.9-0.9
			c-4.4-0.5-8.6-1.3-13-1.4c-3.8-0.1-7.2,0.3-11,0.7c-5,0.5-9.9,0-14.7-1.2c-3.8-1-7.3-2.9-11.2-3.8c-5.5-1.3-11.4-1.5-17-1.4
			c-4.2,0.1-7.6-0.2-11.4-2.2c-3.2-1.8-6.2-3.9-9.4-5.6c-3.7-2-6.1-5.4-9.8-7.4c-2.3-1.2-4.9-2.1-7.3-3.3c-0.8-0.4-2.2-0.7-2.9-1.1
			c-0.6-0.4-0.8-1-1.4-1.3c-1.2-0.7-2.5-1.2-3.7-2C857.2,871.2,855.6,871,855.6,868.7z"/>
		<g>
			<path class="st0" d="M1059.7,817.5c0.2,0,0.3,0,0.5,0C1060,817.5,1059.8,817.5,1059.7,817.5z"/>
			<path class="st0" d="M861.2,869.5c0.5,0.3,1.1,0.6,1.7,0.9c0.6,0.3,1.2,0.6,1.8,0.9c0.8,0.5,1.3,1.1,1.6,1.4
				c0.2,0.1,0.5,0.2,0.7,0.2c0.5,0.2,1.1,0.4,1.7,0.6c0.9,0.4,1.9,0.9,3,1.3c1.5,0.6,3,1.2,4.5,2c2.3,1.2,4.1,2.8,5.7,4.2
				c1.4,1.2,2.7,2.4,4.2,3.2c1.8,1,3.5,2,5.1,3c1.5,0.9,2.9,1.8,4.3,2.6c2.9,1.6,5.6,1.9,9.6,1.8c7.4-0.2,12.9,0.3,17.9,1.5
				c2.3,0.5,4.4,1.3,6.4,2.1c1.7,0.6,3.3,1.3,4.9,1.7c4.6,1.2,9,1.6,13.5,1.1l0.4,0c2.1-0.2,4.2-0.4,6.3-0.5
				c0.4-1.5,0.8-2.9,1.6-4.2c0.6-1,1.4-2,2.1-2.9c1.8-2.3,3.1-5,5.1-7.1c2-2.2,4.1-4.2,6.2-6.2c1.1-1,2.1-2.3,3.6-2.7
				c-5.2,0.2-9.9,1.1-15,2c-2.8,0.6-5.7,0.6-8.5,1.1c-0.7,0.1-1.6,0.2-2.3,0.5c1.8-1.7,2.6-4.6,4.3-6.4c1.2-1.3,2.8-2.2,4.1-3.4
				c1.9-1.8,3.6-3.6,5.7-5.1c5.3-3.7,11.8-6.2,18.2-6.7c3-0.2,5.7-0.3,8.7-0.8c3.3-0.6,5.8-2.6,9-3.5c4.8-1.2,8.2-4.2,12.6-6.5
				c7.7-4.1,15.9-8,24.6-8.7c4.5-0.3,4.4-5.4,7.2-8c2.3-2.1,5.6-3.7,8.3-5.3c2.5-1.5,4.6-3.1,6.9-4.8c0.8-0.6,1.8-1.2,2.8-1.4
				c-2.6,0.1-4.7,0.1-7.2,0.9c-2.3,0.7-4.7,0.1-7,0.7c-0.6,0.2-0.4,0.6-1.2,0.6c-0.9-0.1-1.2-0.9-1.6-1.5c-1.4-2.2-2.3-5.1-3.5-7.5
				c-1.1-2.3-2.1-4.2-2.4-6.8c-0.2-2.4,0.3-4.5-1.1-6.6c-1.3-2-2.6-2.5-2.6-5.1c0-2.6,1.2-5.3,0.6-7.9c-0.4-1.6-1.1-2.6-2-3.7
				c-1-1.2-1.3-1.1-2.7-1.4c-1.8-0.4-3.2-1.8-4.9-2.6c-3.3-1.6-6.9,0-10.3-0.9c0-0.2-0.1-1.8-0.1-2c-0.9-0.8-1.5-1.3-2.3-2.2
				c-0.4-0.5-1-0.9-1.5-1.2c-0.9-0.7-2-1.7-3.3-1.7c-0.2-1.8-0.8-2.9-0.8-4.9c0-2.3,0.6-4.3,0.7-6.5c0.1-2-0.9-2.8-2.1-4.3
				c-0.7-0.9-1.4-1.9-2.2-2.8c-0.9-1-2.9-1.5-3.5-2.5c-0.8-1.2,0.2-3.7,0.6-4.9c0.8-2.1,0.9-4.3,1.1-6.5c-0.6-1.5-0.5-2.9-0.4-3.9
				c0-0.2,0-0.3,0-0.5c0,0,0,0,0,0c0,0-0.1,0-0.1,0c-0.2,0.4-0.6,0.9-1,1.4c-0.4,1.1-1.1,2.1-1.7,2.8c-0.2,0.3-0.4,0.6-0.5,0.8
				c-1,1.6-2.1,2.4-3,3c-0.4,0.2-0.6,0.4-0.9,0.7c-1.3,1.2-2.3,2.8-3.4,4.4c-1.3,2-2.7,4-4.6,5.8c-0.6,0.5-1.1,1-1.7,1.5
				c-1.5,1.4-2.9,2.6-4,4.1c-2,2.6-4.4,4.1-6.5,5.4c-0.9,0.6-1.8,1.1-2.6,1.7c-2.6,1.9-5.2,3-7.8,4c-1.7,0.7-3.2,1.3-4.7,2.1
				c-1.6,0.9-3.2,2-4.8,3.1c-1.9,1.3-3.9,2.6-6,3.8c-2.1,1.2-4.2,2.5-6.3,4c-2.6,1.8-5.4,3.7-8.5,5.2c-4.2,2-8.3,5.2-12.3,9.3
				c-0.6,0.7-1.3,1.3-1.9,2c-3.8,4-7.8,8.1-12.1,11.9c-1.9,1.6-3.4,3.7-5,5.8c-0.6,0.8-1.2,1.7-1.9,2.5c-1.7,2.1-3.3,4.3-4.9,6.4
				c-2.8,3.8-4.6,5.3-8.2,7.7c-0.7,0.5-1.4,0.9-2.2,1.4c-2.2,1.3-4.6,2.9-6,4.5c-1.8,2.1-3.3,4.7-4.9,7.4c-0.5,0.8-0.9,1.6-1.4,2.4
				c-2.9,4.9-6.1,10-9.6,15.7c-0.4,0.6-0.8,1.3-1.2,1.9c-0.3,0.5-0.6,0.9-0.9,1.4l0,2.4c0.1,0.1,0.3,0.1,0.4,0.2
				C860.1,868.8,860.6,869.1,861.2,869.5z"/>
		</g>
		<g>
			<path class="st0" d="M1120.4,816.4c-0.1-0.1-0.2-0.2-0.3-0.3c-0.2,0.2-0.4,0.3-0.6,0.4c-0.4,0.3-0.5,0.3-0.7,0.6l-0.4,0.5
				c-1.4,1.6-2.9,3.3-4.1,5c-1,1.3-1.7,2.8-2.4,4.2c0,0.1-0.1,0.3-0.2,0.5c-0.4,1.1-0.9,2.3-1.8,3.1c-2.3,2.1-5.6,1.9-8.6,1.7
				c-0.9-0.1-2.2-0.1-2.7-0.1c-0.3,0-0.7,0.2-1.1,0.4c-0.8,0.3-1.8,0.8-3,0.9c-1.5,0.2-2.6-0.2-3.2-0.5c-0.2-0.1-0.3-0.1-0.4-0.1
				c-0.4-0.1-0.8-0.1-1.3-0.1c-0.9,0-1.9-0.1-3.1-0.4c-2.5-0.7-4.1-2.2-5.5-3.5c0.5,0.6,1.1,1.2,1.6,1.8c0.6,0.7,1.5,2,2.3,2.5
				c1,0.6,2.3,0.7,3.3,1.1c2.5,1,3.8,3.4,5.9,5c1.8,1.4,2.9,3.1,4.1,5.1c0.7,1.2,1.6,1.9,2.4,3c2,2.8,4.3,5.3,6.1,8.1
				c2,3.2,3.6,5.9,4.3,9.7c1.2-0.3,0.3-1.9,0.5-2.9c0.2-0.7,0.9-1.6,1.3-2.1c1-1.5,1.7-3,2.4-4.6c0.2-0.5,0.3-1.4,0.8-1.7
				c0.4-0.3,0.9,0.1,1.3-0.1c0.5-0.2,1.5-0.6,2-0.9c1.4-1.1,2.7-2.4,4.2-3.4c2.3-1.5,5-2.2,7.3-3.5c1.5-0.9,2.7-2.1,0.1-2.8
				c-0.9-0.2-1.7-0.1-2.6-0.3c-0.2,0-0.5-0.5-0.8-0.6c-0.7-0.2-1.8,0-2.5,0c-1.6,0-3.2-0.2-4.7,0.4c-1.3,0.5-1.9,1.2-3.4,1.1
				c1.6-1.1,2.6-3.1,4.1-4.4c1.3-1.2,2.6-2.3,4.1-3c1.9-0.9,2.4-2.4,0.2-3.6c-1.6-0.9-1.6-0.7-2.2-2.5c-0.4-1.4-0.6-2.8-0.8-4.3
				c-0.4-2.4-1.9-4.4-2.1-6.8C1120.1,818,1120.3,817.2,1120.4,816.4C1120.4,816.4,1120.4,816.4,1120.4,816.4z"/>
		</g>
	</g>
</g>
</svg>
