<?xml version="1.0" encoding="utf-8"?>
<!-- Generator: Adobe Illustrator 18.0.0, SVG Export Plug-In . SVG Version: 6.00 Build 0)  -->
<svg version="1.1" id="Layer_1" xmlns="http://www.w3.org/2000/svg" xmlns:xlink="http://www.w3.org/1999/xlink" x="0px" y="0px"
	 viewBox="0 0 1400 980" enable-background="new 0 0 1400 980" xml:space="preserve">
<g>
	<path d="M335.8,185.3c0,0,0-0.3,0-0.6c0-0.4-0.1-0.9-0.1-1.4c-0.1-1-0.2-2-0.2-2l1.8-0.2c0,0-0.1-0.5-0.1-1
		c-0.1-0.5-0.1-0.9-0.1-0.9l-0.3-1.9l-1.7,0.3c0,0,0-0.3-0.1-0.6c-0.1-0.4-0.2-0.9-0.3-1.4c-0.1-0.5-0.3-1-0.4-1.4
		c-0.1-0.4-0.2-0.6-0.2-0.6l1.7-0.5c0,0-0.1-0.5-0.3-0.9c-0.2-0.5-0.3-0.9-0.3-0.9s-0.2-0.5-0.3-0.9c-0.1-0.5-0.3-0.9-0.3-0.9
		l-1.7,0.6c0,0-0.4-1-0.8-1.9c-0.4-0.9-0.8-1.9-0.8-1.9l1.6-0.8c0,0,0-0.1-0.1-0.3c-0.1-0.2-0.2-0.4-0.3-0.6
		c-0.2-0.4-0.4-0.9-0.4-0.9s-0.1-0.1-0.1-0.3c-0.1-0.2-0.2-0.4-0.3-0.6c-0.2-0.4-0.5-0.8-0.5-0.8l-1.5,0.9c0,0-0.1-0.2-0.3-0.6
		c-0.2-0.3-0.5-0.8-0.7-1.2s-0.6-0.9-0.8-1.2c-0.2-0.3-0.4-0.5-0.4-0.5l1.5-1c0,0-0.3-0.4-0.6-0.8c-0.1-0.2-0.3-0.4-0.4-0.5
		c-0.1-0.1-0.2-0.2-0.2-0.2l-1.2-1.5l-1.4,1.1c0,0-0.1-0.2-0.4-0.5c-0.3-0.3-0.6-0.7-0.9-1.1c-0.3-0.4-0.7-0.8-1-1
		c-0.3-0.3-0.4-0.5-0.4-0.5l1.3-1.2c0,0-0.3-0.3-0.7-0.7c-0.3-0.3-0.7-0.7-0.7-0.7s-0.3-0.3-0.7-0.7c-0.3-0.3-0.7-0.6-0.7-0.6
		l-1.2,1.3c0,0-0.2-0.2-0.5-0.4c-0.3-0.2-0.7-0.6-1.1-0.9c-0.8-0.6-1.6-1.3-1.6-1.3l1.1-1.4l-1.6-1.1c0,0-0.4-0.3-0.8-0.5
		c-0.4-0.3-0.8-0.5-0.8-0.5l-1,1.5c0,0-0.9-0.6-1.8-1.1c-0.4-0.3-0.9-0.5-1.2-0.7c-0.3-0.2-0.6-0.3-0.6-0.3l0.8-1.6
		c0,0-0.4-0.2-0.9-0.4c-0.2-0.1-0.4-0.2-0.6-0.3c-0.2-0.1-0.3-0.1-0.3-0.1l-1.8-0.8l-0.7,1.6c0,0-0.2-0.1-0.6-0.3
		c-0.4-0.1-0.8-0.3-1.3-0.5c-0.5-0.2-1-0.4-1.3-0.5c-0.4-0.1-0.6-0.2-0.6-0.2l0.6-1.7c0,0-0.5-0.1-0.9-0.3c-0.5-0.1-0.9-0.3-0.9-0.3
		s-0.5-0.1-0.9-0.3c-0.5-0.1-0.9-0.2-0.9-0.2l-0.4,1.7c0,0-1-0.2-2-0.5c-1-0.2-2-0.4-2-0.4l0.3-1.8c0,0-0.1,0-0.3-0.1
		c-0.2,0-0.4-0.1-0.6-0.1c-0.5-0.1-1-0.1-1-0.1s-0.5-0.1-1-0.1c-0.5,0-1-0.1-1-0.1l-0.1,1.8c0,0-0.3,0-0.6-0.1
		c-0.4,0-0.9-0.1-1.4-0.1c-0.5,0-1,0-1.4,0c-0.4,0-0.6,0-0.6,0l0-1.8l-1.9,0.1c0,0-0.1,0-0.3,0c-0.2,0-0.4,0-0.7,0
		c-0.5,0-1,0.1-1,0.1l0.1,1.8c0,0-0.3,0-0.6,0c-0.4,0-0.9,0.1-1.4,0.1c-0.5,0.1-1,0.1-1.4,0.2c-0.4,0.1-0.6,0.1-0.6,0.1l-0.3-1.7
		l-1.9,0.3l-1.9,0.4l0.4,1.7c0,0-0.2,0.1-0.6,0.1c-0.4,0.1-0.9,0.2-1.4,0.4c-0.5,0.1-1,0.3-1.3,0.4c-0.3,0.1-0.5,0.2-0.5,0.2
		c2.1-12.5,4.2-25.3,3.6-35.2c-0.6-10.9-6.9-18.7-18.3-22.6c-5.1-1.7-10.2-2.3-13.4-2.5c-0.3-0.5-0.7-0.8-1.2-1L235,77l0.5-1
		c0.1-0.2-0.2-0.5-0.4-0.3l-1.3,0.9l-4.5-1.7l-7.5-2.8c-0.5-0.2-1,0.1-1.2,0.6l-1.1,2.9c-0.2,0.5,0.1,1,0.6,1.2l7.5,2.8l4.6,1.7
		l0,1.5c0,0.3,0.4,0.4,0.5,0.1l0.7-1.2l2.1,0.8l-2,1c-0.6,0.3-1.1,0.9-1.3,1.5c-0.2,0.7-0.1,1.4,0.3,2l3.7,6.1l-0.7,0.3l1.4,2.6
		c-5.4,3.9-18.8,13.6-25.7,20.5c-3.8,3.8-15.1,8.1-25.9,11.6l-18.4-0.7l-2.1-5.7c0.4-0.2,0.6-0.3,0.7-0.3c0.6-0.2,0.9-0.9,0.6-1.4
		c-0.2-0.6-0.9-0.9-1.4-0.6c0,0-0.3,0.1-0.6,0.2l-4.4-12.2c1.5-1.6,4.1-4.2,7.8-6.9c0.3-0.2,0.4-0.5,0.3-0.8
		c3.7-0.6,6.8-0.8,7.2-1.8c2.6-6.9-24.5,4-32.1,4.9s-7.9,4-6.2,4.6c1.7,0.6,4.9,0.2,9,1c1.5,0.3,2.6,0.1,3.8-0.3c0,0,0,0,0,0
		c0.1,0.2,0.2,0.3,0.4,0.4c0.2,0.1,1.1,0.4,5.2,0.7l4.4,12.2c-1.1,0.5-2.2,1-3,1.5c-0.5,0.3-0.8,1-0.5,1.5c0.2,0.4,0.6,0.6,1,0.6
		c0.2,0,0.4-0.1,0.6-0.2c0.6-0.4,1.6-0.9,2.7-1.3l9.3,25.9l-2,0.6c-0.1,0-0.2,0.1-0.3,0.1l-5.8,2.5c-0.1,0.1-0.2,0.1-0.3,0.2
		l-9.5,5.6c-0.1-0.1-0.2-0.2-0.2-0.2l-1.2-1.5l-1.4,1.1c0,0-0.2-0.2-0.4-0.5c-0.3-0.3-0.6-0.7-0.9-1.1c-0.3-0.4-0.7-0.8-1-1
		c-0.3-0.3-0.4-0.5-0.4-0.5l1.3-1.2c0,0-0.3-0.3-0.7-0.7c-0.3-0.3-0.7-0.7-0.7-0.7s-0.3-0.3-0.7-0.7c-0.3-0.3-0.7-0.6-0.7-0.6
		l-1.2,1.3c0,0-0.2-0.2-0.5-0.4c-0.3-0.2-0.7-0.6-1.1-0.9c-0.8-0.6-1.6-1.3-1.6-1.3l1.1-1.4l-1.6-1.1c0,0-0.4-0.3-0.8-0.5
		c-0.4-0.3-0.8-0.5-0.8-0.5l-1,1.5c0,0-0.9-0.6-1.8-1.1c-0.4-0.3-0.9-0.5-1.2-0.7c-0.3-0.2-0.6-0.3-0.6-0.3l0.8-1.6
		c0,0-0.4-0.2-0.9-0.4c-0.2-0.1-0.4-0.2-0.6-0.3c-0.2-0.1-0.3-0.1-0.3-0.1l-1.7-0.8l-0.7,1.6c0,0-0.2-0.1-0.6-0.2
		c-0.4-0.1-0.8-0.3-1.3-0.5c-0.5-0.2-1-0.4-1.3-0.5c-0.4-0.1-0.6-0.2-0.6-0.2l0.6-1.7c0,0-0.5-0.2-0.9-0.3c-0.5-0.1-0.9-0.3-0.9-0.3
		s-0.5-0.1-0.9-0.3c-0.5-0.1-0.9-0.2-0.9-0.2l-0.4,1.7c0,0-1-0.2-2-0.5c-1-0.2-2-0.4-2-0.4l0.3-1.8c0,0-0.1,0-0.3-0.1
		c-0.2,0-0.4-0.1-0.7-0.1c-0.5-0.1-1-0.1-1-0.1s-0.5-0.1-0.9-0.1c-0.5,0-1-0.1-1-0.1l-0.1,1.8c0,0-0.3,0-0.6,0
		c-0.4,0-0.9-0.1-1.4-0.1c-0.5,0-1,0-1.4,0c-0.4,0-0.6,0-0.6,0V138l-1.9,0c0,0-0.1,0-0.3,0c-0.2,0-0.4,0-0.7,0c-0.5,0-1,0.1-1,0.1
		l0.1,1.8c0,0-0.3,0-0.6,0c-0.4,0-0.9,0.1-1.4,0.2c-0.5,0.1-1,0.1-1.4,0.2c-0.4,0.1-0.6,0.1-0.6,0.1l-0.3-1.8l-1.9,0.3l-1.9,0.4
		l0.4,1.7c0,0-0.2,0.1-0.6,0.1c-0.4,0.1-0.9,0.2-1.4,0.4c-0.5,0.1-1,0.3-1.4,0.4c-0.4,0.1-0.6,0.2-0.6,0.2l-0.6-1.7
		c0,0-0.5,0.2-0.9,0.3c-0.2,0.1-0.5,0.1-0.6,0.2c-0.2,0.1-0.3,0.1-0.3,0.1l-1.8,0.7l0.7,1.6c0,0-0.9,0.4-1.9,0.8
		c-0.5,0.2-0.9,0.5-1.3,0.6c-0.3,0.2-0.6,0.3-0.6,0.3l-0.8-1.6c0,0-0.1,0.1-0.3,0.1c-0.2,0.1-0.4,0.2-0.6,0.3
		c-0.4,0.2-0.8,0.5-0.8,0.5s-0.4,0.2-0.8,0.5c-0.4,0.2-0.8,0.5-0.8,0.5l0.9,1.5c0,0-0.2,0.1-0.5,0.3c-0.3,0.2-0.8,0.5-1.2,0.8
		c-0.4,0.3-0.8,0.6-1.1,0.8c-0.3,0.2-0.5,0.4-0.5,0.4l-1.1-1.4l-1.5,1.2c0,0-0.1,0.1-0.2,0.2c-0.1,0.1-0.3,0.3-0.5,0.4
		c-0.4,0.3-0.7,0.6-0.7,0.6l1.2,1.3c0,0-0.2,0.2-0.5,0.4c-0.3,0.3-0.6,0.6-1,1c-0.4,0.4-0.7,0.7-1,1c-0.3,0.3-0.4,0.5-0.4,0.5
		l-1.3-1.2c0,0-0.3,0.3-0.7,0.7c-0.2,0.2-0.3,0.3-0.4,0.5c-0.1,0.1-0.2,0.2-0.2,0.2s-0.3,0.4-0.6,0.7c-0.2,0.2-0.3,0.4-0.4,0.5
		c-0.1,0.1-0.2,0.2-0.2,0.2l1.4,1.1c0,0-0.6,0.8-1.3,1.6c-0.6,0.8-1.2,1.7-1.2,1.7l-1.5-1c0,0-0.3,0.4-0.5,0.8
		c-0.3,0.4-0.5,0.8-0.5,0.8s-0.3,0.4-0.5,0.8c-0.2,0.4-0.5,0.8-0.5,0.8l1.5,0.9c0,0-0.1,0.2-0.3,0.6c-0.2,0.3-0.5,0.8-0.7,1.2
		c-0.2,0.5-0.5,0.9-0.6,1.3c-0.2,0.3-0.3,0.6-0.3,0.6l-1.6-0.8l-0.8,1.8c0,0-0.1,0.1-0.1,0.3c-0.1,0.2-0.2,0.4-0.2,0.6
		c-0.2,0.4-0.3,0.9-0.3,0.9l1.7,0.6c0,0-0.1,0.2-0.2,0.6c-0.1,0.4-0.3,0.8-0.5,1.3c-0.3,1-0.6,2-0.6,2l-1.7-0.5c0,0-0.1,0.5-0.3,0.9
		c-0.1,0.5-0.2,0.9-0.2,0.9l-0.4,1.9l1.7,0.4c0,0-0.2,1-0.4,2c-0.1,0.5-0.1,1-0.2,1.4c0,0.4-0.1,0.6-0.1,0.6l-1.8-0.2
		c0,0-0.1,0.5-0.1,1c0,0.5-0.1,1-0.1,1s0,0.5-0.1,1c0,0.5,0,1,0,1l1.8,0.1c0,0,0,1-0.1,2.1c0,1,0.1,2.1,0.1,2.1l-1.8,0.1
		c0,0,0,0.5,0,1c0,0.5,0.1,1,0.1,1s0,0.5,0.1,1c0.1,0.5,0.1,0.9,0.1,0.9l1.8-0.2c0,0,0,0.3,0.1,0.6c0.1,0.4,0.1,0.9,0.2,1.4
		c0.2,1,0.4,2,0.4,2l-1.7,0.4l0.4,1.9c0,0,0.1,0.5,0.2,0.9c0.1,0.5,0.3,0.9,0.3,0.9l1.7-0.5c0,0,0.3,1,0.6,2c0.2,0.5,0.3,1,0.5,1.3
		c0.1,0.4,0.2,0.6,0.2,0.6l-1.7,0.6c0,0,0.2,0.4,0.3,0.9c0.1,0.2,0.2,0.4,0.2,0.6c0.1,0.2,0.1,0.3,0.1,0.3l0.8,1.8l1.6-0.8
		c0,0,0.1,0.2,0.3,0.6c0.2,0.3,0.4,0.8,0.6,1.3c0.2,0.5,0.5,0.9,0.7,1.2c0.2,0.3,0.3,0.6,0.3,0.6l-1.5,0.9c0,0,0.2,0.4,0.5,0.8
		c0.3,0.4,0.5,0.8,0.5,0.8s0.3,0.4,0.5,0.8c0.2,0.4,0.5,0.8,0.5,0.8l1.5-1c0,0,0.6,0.8,1.2,1.7c0.6,0.8,1.3,1.6,1.3,1.6l-1.4,1.1
		c0,0,0.1,0.1,0.2,0.2c0.1,0.1,0.3,0.3,0.4,0.5c0.3,0.4,0.6,0.7,0.6,0.7s0.1,0.1,0.2,0.2c0.1,0.1,0.3,0.3,0.4,0.5
		c0.3,0.3,0.7,0.7,0.7,0.7l1.3-1.2c0,0,0.2,0.2,0.4,0.5c0.3,0.3,0.6,0.6,1,1c0.4,0.4,0.7,0.7,1,1c0.3,0.3,0.5,0.4,0.5,0.4l-1.2,1.3
		c0,0,0.4,0.3,0.7,0.6c0.2,0.2,0.4,0.3,0.5,0.4c0.1,0.1,0.2,0.2,0.2,0.2l1.5,1.2l1.1-1.4c0,0,0.2,0.2,0.5,0.4
		c0.3,0.2,0.7,0.5,1.1,0.8c0.4,0.3,0.9,0.6,1.2,0.8c0.3,0.2,0.5,0.3,0.5,0.3l-0.9,1.5c0,0,0.4,0.3,0.8,0.5c0.4,0.2,0.8,0.5,0.8,0.5
		s0.4,0.2,0.8,0.5c0.2,0.1,0.4,0.2,0.6,0.3c0.2,0.1,0.3,0.1,0.3,0.1l0.8-1.6c0,0,0.2,0.1,0.6,0.3c0.3,0.2,0.8,0.4,1.3,0.6
		c0.9,0.4,1.9,0.8,1.9,0.8l-0.7,1.6l1.8,0.7c0,0,0.1,0,0.3,0.1c0.2,0.1,0.4,0.1,0.6,0.2c0.5,0.2,0.9,0.3,0.9,0.3l0.6-1.7
		c0,0,0.2,0.1,0.6,0.2c0.4,0.1,0.9,0.3,1.4,0.4c0.5,0.1,1,0.3,1.4,0.4c0.4,0.1,0.6,0.1,0.6,0.1l-0.4,1.7l1.9,0.4l1.9,0.3l0.3-1.8
		c0,0,0.3,0,0.6,0.1c0.4,0.1,0.9,0.1,1.4,0.2c0.5,0.1,1,0.1,1.4,0.1c0.4,0,0.6,0,0.6,0l-0.1,1.8c0,0,0.5,0,1,0.1c0.2,0,0.5,0,0.7,0
		c0.2,0,0.3,0,0.3,0l1.9,0v-1.8c0,0,0.3,0,0.6,0c0.4,0,0.9,0,1.4,0c0.5,0,1-0.1,1.4-0.1c0.4,0,0.6-0.1,0.6-0.1l0.1,1.8
		c0,0,0.5,0,1-0.1c0.5-0.1,0.9-0.1,0.9-0.1s0.5-0.1,1-0.1c0.2,0,0.5-0.1,0.7-0.1c0.2,0,0.3-0.1,0.3-0.1l-0.3-1.8c0,0,1-0.2,2-0.4
		c1-0.2,2-0.5,2-0.5l0.4,1.7c0,0,0.5-0.1,0.9-0.2c0.5-0.1,0.9-0.3,0.9-0.3s0.5-0.1,0.9-0.3c0.5-0.1,0.9-0.3,0.9-0.3l-0.6-1.7
		c0,0,0.2-0.1,0.6-0.2c0.4-0.1,0.9-0.3,1.3-0.5c0.5-0.2,1-0.4,1.3-0.5c0.4-0.1,0.6-0.2,0.6-0.2l0.7,1.6l1.7-0.8c0,0,0.1,0,0.3-0.1
		c0.2-0.1,0.4-0.2,0.6-0.3c0.4-0.2,0.9-0.4,0.9-0.4l-0.8-1.6c0,0,0.2-0.1,0.6-0.3c0.3-0.2,0.8-0.4,1.2-0.7c0.9-0.5,1.8-1.1,1.8-1.1
		l1,1.5c0,0,0.4-0.3,0.8-0.5c0.4-0.2,0.8-0.5,0.8-0.5l1.6-1.1l-1.1-1.4c0,0,0.8-0.6,1.6-1.3c0.4-0.3,0.8-0.7,1.1-0.9
		c0.3-0.2,0.5-0.4,0.5-0.4l1.2,1.3c0,0,0.4-0.3,0.7-0.6c0.3-0.3,0.7-0.7,0.7-0.7s0.3-0.3,0.7-0.7c0.3-0.3,0.7-0.7,0.7-0.7l-1.3-1.2
		c0,0,0.2-0.2,0.4-0.5c0.3-0.3,0.6-0.6,1-1c0.3-0.4,0.7-0.8,0.9-1.1c0.3-0.3,0.4-0.5,0.4-0.5l1.4,1.1l1.2-1.5c0,0,0.1-0.1,0.2-0.2
		c0.1-0.1,0.2-0.3,0.4-0.5c0.3-0.4,0.6-0.8,0.6-0.8l-1.5-1c0,0,0.1-0.2,0.4-0.5c0.2-0.3,0.5-0.8,0.8-1.2c0.3-0.4,0.6-0.9,0.7-1.2
		c0.2-0.3,0.3-0.6,0.3-0.6l1.5,0.9c0,0,0.2-0.4,0.5-0.8c0.1-0.2,0.2-0.4,0.3-0.6c0.1-0.2,0.1-0.3,0.1-0.3s0.2-0.4,0.4-0.9
		c0.1-0.2,0.2-0.4,0.3-0.6c0.1-0.2,0.1-0.3,0.1-0.3l-1.6-0.8c0,0,0.4-0.9,0.8-1.9c0.4-1,0.8-1.9,0.8-1.9l1.7,0.6
		c0,0,0.2-0.4,0.3-0.9c0.2-0.5,0.3-0.9,0.3-0.9s0.2-0.5,0.3-0.9c0.1-0.5,0.3-0.9,0.3-0.9l18.8-8.9l0,0c1-0.5,2-1.2,2.8-2l10.5,7.8
		l-3.1,3.5c-0.8,0.9-0.8,2.4,0.1,3.2c0.4,0.4,0.9,0.5,1.5,0.5c0.6,0,1.2-0.3,1.7-0.7l9.2-10.4c0.8-0.9,0.8-2.3,0-3.1
		c-0.9-0.9-2.4-0.8-3.2,0.1l-3.5,3.9l-10.8-8c0.8-1.5,1.2-3.3,1.2-5.1c0-1-0.1-2-0.4-2.9c18.3-14.2,31.8-29.8,41.2-47.5
		c6.7-12.7,13.6-19.6,17.6-22.8l0.4,0.8l0.3-0.2l6.7,10.7c0.4,0.6,0.9,1,1.4,1.3l9.4,21.5c-0.3,0.2-0.6,0.4-0.6,0.4l0.9,1.5
		c0,0-0.2,0.1-0.5,0.3c-0.3,0.2-0.8,0.5-1.2,0.8c-0.4,0.3-0.8,0.6-1.1,0.8c-0.3,0.2-0.5,0.4-0.5,0.4l-1.1-1.4l-1.5,1.2
		c0,0-0.1,0.1-0.2,0.2c-0.1,0.1-0.3,0.3-0.5,0.4c-0.4,0.3-0.7,0.6-0.7,0.6l1.2,1.3c0,0-0.2,0.2-0.5,0.4c-0.3,0.3-0.6,0.6-1,1
		c-0.4,0.4-0.7,0.7-1,1c-0.3,0.3-0.4,0.5-0.4,0.5l-1.3-1.2c0,0-0.3,0.3-0.7,0.7c-0.2,0.2-0.3,0.3-0.4,0.5c-0.1,0.1-0.2,0.2-0.2,0.2
		s-0.3,0.4-0.6,0.7c-0.2,0.2-0.3,0.4-0.4,0.5c-0.1,0.1-0.2,0.2-0.2,0.2l1.4,1.1c0,0-0.6,0.8-1.3,1.6c-0.6,0.8-1.2,1.7-1.2,1.7
		l-1.5-1c0,0-0.3,0.4-0.5,0.8c-0.3,0.4-0.5,0.8-0.5,0.8s-0.3,0.4-0.5,0.8c-0.2,0.4-0.5,0.8-0.5,0.8l1.5,0.9c0,0-0.1,0.2-0.3,0.6
		c-0.2,0.3-0.4,0.8-0.7,1.2c-0.2,0.5-0.5,0.9-0.6,1.3c-0.2,0.3-0.3,0.6-0.3,0.6l-1.6-0.8l-0.8,1.8c0,0-0.1,0.1-0.1,0.3
		c-0.1,0.2-0.2,0.4-0.2,0.6c-0.2,0.4-0.4,0.9-0.4,0.9l1.7,0.6c0,0-0.1,0.2-0.2,0.6c-0.1,0.4-0.3,0.8-0.5,1.3c-0.3,1-0.6,2-0.6,2
		l-1.7-0.5c0,0-0.1,0.5-0.3,0.9c-0.1,0.5-0.2,0.9-0.2,0.9l-0.4,1.9l1.7,0.4c0,0-0.2,1-0.4,2c-0.1,0.5-0.1,1-0.2,1.4
		c-0.1,0.4-0.1,0.6-0.1,0.6l-1.8-0.2c0,0-0.1,0.5-0.1,0.9c0,0.5-0.1,1-0.1,1s0,0.5-0.1,1c0,0.5-0.1,1-0.1,1l1.8,0.1c0,0,0,1-0.1,2.1
		c0,1,0.1,2.1,0.1,2.1l-1.8,0.1c0,0,0,0.5,0.1,1c0,0.5,0.1,1,0.1,1s0,0.5,0.1,1c0.1,0.5,0.1,1,0.1,1l1.8-0.2c0,0,0,0.3,0.1,0.6
		c0.1,0.4,0.1,0.9,0.2,1.4c0.2,1,0.4,2,0.4,2l-1.7,0.4l0.4,1.9c0,0,0.1,0.5,0.2,0.9c0.1,0.5,0.3,0.9,0.3,0.9l1.7-0.5
		c0,0,0.3,1,0.6,2c0.2,0.5,0.3,1,0.5,1.3c0.1,0.4,0.2,0.6,0.2,0.6l-1.7,0.6c0,0,0.2,0.4,0.4,0.9c0.1,0.2,0.2,0.4,0.2,0.6
		c0.1,0.2,0.1,0.3,0.1,0.3l0.8,1.8l1.6-0.8c0,0,0.1,0.2,0.3,0.6c0.2,0.3,0.4,0.8,0.6,1.3c0.2,0.5,0.5,0.9,0.7,1.2
		c0.2,0.3,0.3,0.6,0.3,0.6l-1.5,0.9c0,0,0.2,0.4,0.5,0.8c0.3,0.4,0.5,0.8,0.5,0.8s0.3,0.4,0.5,0.8c0.3,0.4,0.5,0.8,0.5,0.8l1.5-1
		c0,0,0.6,0.8,1.2,1.7c0.6,0.8,1.3,1.6,1.3,1.6l-1.4,1.1c0,0,0.1,0.1,0.2,0.2c0.1,0.1,0.3,0.3,0.4,0.5c0.3,0.4,0.6,0.7,0.6,0.7
		s0.1,0.1,0.2,0.2c0.1,0.1,0.3,0.3,0.4,0.5c0.3,0.3,0.7,0.7,0.7,0.7l1.3-1.2c0,0,0.2,0.2,0.4,0.5c0.3,0.3,0.6,0.6,1,1
		c0.4,0.4,0.7,0.7,1,1c0.3,0.3,0.5,0.4,0.5,0.4l-1.2,1.3c0,0,0.4,0.3,0.7,0.6c0.2,0.2,0.4,0.3,0.5,0.4c0.1,0.1,0.2,0.2,0.2,0.2
		l1.5,1.2l1.1-1.4c0,0,0.2,0.2,0.5,0.4c0.3,0.2,0.7,0.5,1.1,0.8c0.4,0.3,0.9,0.6,1.2,0.8c0.3,0.2,0.5,0.3,0.5,0.3l-0.9,1.5
		c0,0,0.4,0.3,0.8,0.5c0.4,0.2,0.8,0.5,0.8,0.5s0.4,0.2,0.8,0.5c0.2,0.1,0.4,0.2,0.6,0.3c0.2,0.1,0.3,0.1,0.3,0.1l0.8-1.6
		c0,0,0.2,0.1,0.6,0.3c0.3,0.2,0.8,0.4,1.3,0.6c0.9,0.4,1.9,0.8,1.9,0.8l-0.7,1.6l1.8,0.7c0,0,0.1,0,0.3,0.1
		c0.2,0.1,0.4,0.1,0.6,0.2c0.5,0.1,0.9,0.3,0.9,0.3l0.6-1.7c0,0,0.2,0.1,0.6,0.2c0.4,0.1,0.9,0.3,1.3,0.4c0.5,0.1,1,0.3,1.4,0.4
		c0.4,0.1,0.6,0.1,0.6,0.1l-0.4,1.7l1.9,0.4l1.9,0.3l0.3-1.8c0,0,0.3,0.1,0.6,0.1c0.4,0,0.9,0.1,1.4,0.2c0.5,0.1,1,0.1,1.4,0.2
		c0.4,0,0.6,0,0.6,0l-0.1,1.8c0,0,0.5,0,1,0.1c0.2,0,0.5,0,0.7,0c0.2,0,0.3,0,0.3,0l1.9,0l0-1.8c0,0,0.3,0,0.6,0c0.4,0,0.9,0,1.4,0
		c0.5,0,1-0.1,1.4-0.1c0.4,0,0.6,0,0.6,0l0.1,1.8c0,0,0.5,0,1-0.1c0.5-0.1,1-0.1,1-0.1s0.5-0.1,1-0.1c0.2,0,0.5-0.1,0.6-0.1
		c0.2,0,0.3-0.1,0.3-0.1l-0.3-1.8c0,0,1-0.2,2-0.4c1-0.2,2-0.5,2-0.5l0.4,1.7c0,0,0.5-0.1,0.9-0.2c0.5-0.1,0.9-0.3,0.9-0.3
		s0.5-0.1,0.9-0.3c0.5-0.2,0.9-0.3,0.9-0.3l-0.6-1.7c0,0,0.2-0.1,0.6-0.2c0.4-0.1,0.9-0.3,1.3-0.5c0.5-0.2,1-0.4,1.3-0.5
		c0.4-0.1,0.6-0.2,0.6-0.2l0.7,1.6l1.8-0.8c0,0,0.1,0,0.3-0.1c0.2-0.1,0.4-0.2,0.6-0.3c0.4-0.2,0.9-0.4,0.9-0.4l-0.8-1.6
		c0,0,0.2-0.1,0.6-0.3c0.3-0.2,0.8-0.4,1.2-0.7c0.9-0.5,1.8-1.1,1.8-1.1l1,1.5c0,0,0.4-0.3,0.8-0.5c0.4-0.3,0.8-0.5,0.8-0.5l1.6-1.1
		l-1.1-1.4c0,0,0.8-0.6,1.6-1.3c0.4-0.3,0.8-0.7,1.1-0.9c0.3-0.2,0.5-0.4,0.5-0.4l1.2,1.3c0,0,0.4-0.3,0.7-0.6
		c0.3-0.3,0.7-0.7,0.7-0.7s0.3-0.3,0.7-0.7c0.3-0.3,0.7-0.7,0.7-0.7l-1.3-1.2c0,0,0.2-0.2,0.4-0.5c0.3-0.3,0.6-0.6,1-1
		c0.3-0.4,0.7-0.8,0.9-1.1c0.3-0.3,0.4-0.5,0.4-0.5l1.4,1.1l1.2-1.5c0,0,0.1-0.1,0.2-0.2c0.1-0.1,0.2-0.3,0.4-0.5
		c0.3-0.4,0.6-0.8,0.6-0.8l-1.5-1c0,0,0.1-0.2,0.4-0.5c0.2-0.3,0.5-0.8,0.8-1.2s0.6-0.9,0.7-1.2c0.2-0.3,0.3-0.6,0.3-0.6l1.5,0.9
		c0,0,0.2-0.4,0.5-0.8c0.1-0.2,0.2-0.4,0.3-0.6c0.1-0.2,0.1-0.3,0.1-0.3s0.2-0.4,0.4-0.9c0.1-0.2,0.2-0.4,0.3-0.6
		c0.1-0.2,0.1-0.3,0.1-0.3l-1.6-0.8c0,0,0.4-0.9,0.8-1.9c0.4-1,0.8-1.9,0.8-1.9l1.7,0.6c0,0,0.2-0.4,0.3-0.9
		c0.2-0.5,0.3-0.9,0.3-0.9s0.1-0.4,0.3-0.9c0.1-0.5,0.3-0.9,0.3-0.9l-1.7-0.5c0,0,0.1-0.2,0.2-0.6c0.1-0.4,0.3-0.9,0.4-1.4
		c0.1-0.5,0.2-1,0.3-1.4c0.1-0.4,0.1-0.6,0.1-0.6l1.7,0.3l0.3-1.9c0,0,0.1-0.5,0.1-0.9c0.1-0.5,0.1-1,0.1-1l-1.8-0.2
		c0,0,0.1-1,0.2-2c0-0.5,0.1-1,0.1-1.4c0-0.4,0-0.6,0-0.6l1.8,0.1l0.1-1.9l-0.1-1.9L335.8,185.3z M165.1,100.1
		c0.9-0.2,1.7-0.3,2.5-0.4C166.8,99.8,166,100,165.1,100.1z M158.9,105.6l-0.2-0.5l-4.7,1.7l0.3,0.8c-1.7-0.2-2.7-0.3-3.2-0.4
		c0,0-0.1,0-0.1,0c1.6-1,3.4-2.5,6.2-4.4c2.2-1.4,5.1-2.2,7.9-2.8C162.3,102.2,160.3,104.2,158.9,105.6z M163.6,157.6l5.5-2.3
		l2.1-0.6l1.2,3.3l1.4,14c-0.2,0-0.4,0-0.6,0c0,0,0,0,0,0l0,0l-14.2,0.6c0-0.1-0.1-0.2-0.1-0.2s-0.2-0.5-0.3-0.9
		c-0.1-0.5-0.3-0.9-0.3-0.9l-1.7,0.6c0,0-0.4-1-0.8-1.9c-0.4-0.9-0.8-1.9-0.8-1.9l1.6-0.8c0,0,0-0.1-0.1-0.3
		c-0.1-0.2-0.2-0.4-0.3-0.6c-0.2-0.4-0.4-0.9-0.4-0.9s0-0.1-0.1-0.3c-0.1-0.2-0.2-0.4-0.3-0.6c-0.2-0.4-0.5-0.8-0.5-0.8l-1.5,0.9
		c0,0-0.1-0.1-0.2-0.3L163.6,157.6z M118,213.9l1-2.7l2.3-1.9c1.2-0.7,2.1-2,2.1-3.5c0-1.9-1.4-3.6-3.3-3.9l-0.2,0l-0.8-2.5
		c2.1-1.5,3.7-3.6,4.7-6l29.7-4.4c-0.1,5.3-1.2,10.5-3.1,15.1L120,218.7c0-0.2,0.1-0.5,0.1-0.7C120.1,216.3,119.3,214.8,118,213.9z
		 M114.6,219.3c0.2,0.1,0.3,0.1,0.5,0.1c0.6,0,1.1-0.3,1.3-0.9l0.8-2.3c0.4,0.5,0.7,1.1,0.7,1.8c0,1-0.5,1.8-1.2,2.3l-0.7,0.3
		c-0.3,0.1-0.6,0.2-0.9,0.2c-1.5,0-2.8-1.3-2.8-2.8c0-0.8,0.4-1.6,1-2.1l0.3-0.2c0.3-0.2,0.7-0.4,1.1-0.4l-0.8,2.3
		C113.5,218.2,113.8,219,114.6,219.3z M107.9,187.5l4.9,6.1c0.3,0.4,0.8,0.7,1.3,0.9l1.4,4.4c-1.3,0.5-2.8,0.9-4.3,0.9
		c-0.8,0-1.6-0.1-2.3-0.2l0,0c-5.2-1.1-9.1-5.7-9.1-11.2c0-6.3,5.1-11.5,11.5-11.5c2.2,0,4.2,0.6,5.9,1.7l-8.4,4.9
		c-0.7,0.4-1.2,1.1-1.3,1.9C107.2,186.1,107.4,186.9,107.9,187.5z M114.2,186.6l6.8-4c0.9,1.6,1.5,3.4,1.5,5.4l-6.5,1L114.2,186.6z
		 M118.1,176.5l2.4-0.1l-1.4,0.8C118.9,177,118.5,176.8,118.1,176.5z M117.8,206l0.1,0.2l0,0.1C117.8,206.2,117.8,206.1,117.8,206z
		 M117.5,194.4l3.8-0.6c-0.7,1.3-1.7,2.5-2.8,3.4L117.5,194.4z M121.1,205.5c0,0.1,0.1,0.2,0.1,0.4c0,0.6-0.3,1.1-0.8,1.4l0-0.1
		C121,206.8,121.3,206.1,121.1,205.5z M151.5,175.1c0.9,2.7,1.5,5.5,1.8,8.3l-28.5,4.2c-0.1-2.3-0.8-4.4-1.8-6.2l9.4-5.5
		L151.5,175.1z M136.5,173.5l11.3-6.6c1.1,1.9,2.1,3.9,2.9,6L136.5,173.5z M159.3,182.6c0-0.1,0-0.2,0-0.2l1.8-0.2
		c0,0-0.1-0.5-0.1-1c-0.1-0.5-0.1-0.9-0.1-0.9l-0.3-1.9l-1.7,0.3c0,0,0-0.3-0.1-0.6c-0.1-0.4-0.2-0.9-0.3-1.4
		c-0.1-0.5-0.3-1-0.4-1.4c-0.1-0.2-0.1-0.4-0.1-0.5l8.3-0.4c-2.3,1.9-3.9,4.6-4.2,7.7L159.3,182.6z M173.1,174.2l0.1,0
		c0.3,0,0.5,0,0.8,0l0.3,3.2c-1.1,0.8-2.3,1.7-3.5,2.5c-0.4,0.3-0.8,0.7-1.1,1.1l-5.5,0.8C164.9,177.5,168.6,174.3,173.1,174.2z
		 M111.1,230.8c-23.5,0-42.5-19-42.5-42.5s19-42.5,42.5-42.5c13.7,0,25.8,6.5,33.5,16.5l-20,11.7l-13.6,0.6
		c-7.5,0-13.7,6.2-13.7,13.7c0,6.5,4.6,12,10.8,13.4l0,0l0.1,0c0,0,0.1,0,0.1,0l8,1.7c-0.5,0.7-0.8,1.5-0.8,2.4c0,1.2,0.5,2.2,1.4,3
		l-0.6,1.7l-4.2,3.3c-0.2,0.1-0.3,0.2-0.4,0.4l0,0l0,0c-1.2,1.1-1.9,2.7-1.6,4.5c0.3,2,1.9,3.7,3.9,4.2c1.4,0.3,2.6,0,3.7-0.6
		l31.5-14.9C142.1,221.2,127.8,230.8,111.1,230.8z M158.1,200.6c0.1-0.2,0.1-0.4,0.2-0.7c0.1-0.5,0.2-1,0.3-1.4
		c0.1-0.4,0.1-0.6,0.1-0.6l1.7,0.3l0.3-1.9c0,0,0.1-0.5,0.1-0.9c0.1-0.5,0.1-1,0.1-1l-1.8-0.2c0,0,0.1-1,0.2-2c0-0.5,0.1-1,0.1-1.4
		c0-0.4,0-0.6,0-0.6l1.8,0.1l0-1.9l0-0.4l1.3-0.2c1.4,3.5,4.5,6,8.3,6.8L158.1,200.6z M173.2,192.4c-3.6,0-6.7-2.1-8.2-5.1l5.5-0.8
		c0.8,0.6,1.7,1,2.7,1c0.6,0,1.2-0.1,1.8-0.4l4.2,3.1C177.6,191.6,175.5,192.4,173.2,192.4z M177.6,160c0.9,0,1.9,0,3.1-0.1
		l-2.7,3.7L177.6,160z M181.5,187.1l-3.1-2.3c1.3-0.9,2.6-1.9,3.8-2.8c0.1,0.5,0.1,0.9,0.1,1.4C182.3,184.6,182,185.9,181.5,187.1z
		 M179.2,173.7c-0.1-0.1-0.2-0.1-0.3-0.2l-0.6-5.8l5.9-8c3.6-0.2,8-0.7,12.5-1.7C191.5,163.5,185.7,168.7,179.2,173.7z M202.9,151.2
		c-10.4,3.5-22,3.8-26.3,3.7l-0.6-1.8l3.9-1.2l0.4,1.2c0.2,0.6,0.7,1,1.3,1c0.1,0,0.3,0,0.4-0.1c0.4-0.1,0.7-0.4,0.8-0.8
		c0.2,0,0.5,0,0.7,0c0.6-0.2,1-0.8,0.9-1.4l-0.1-1.2l0.1,0l0.7,1.1c0.3,0.4,0.7,0.7,1.2,0.7c0.1,0,0.3,0,0.4-0.1
		c0.6-0.2,1-0.8,0.9-1.4l-0.1-1.2l0.1,0l0.7,1.1c0.3,0.4,0.7,0.7,1.2,0.7c0.1,0,0.3,0,0.4-0.1c0.6-0.2,1-0.8,0.9-1.4l-0.1-1.2l0.1,0
		l0.7,1.1c0.3,0.4,0.7,0.7,1.2,0.7c0.1,0,0.3,0,0.4-0.1c0.6-0.2,1-0.8,0.9-1.4l-0.1-1.3l0,0l0.7,1.1c0.3,0.4,0.7,0.7,1.2,0.7
		c0.1,0,0.3,0,0.4-0.1c0.6-0.2,1-0.8,0.9-1.4l-0.1-1.3l0,0l0.7,1.1c0.3,0.4,0.7,0.7,1.2,0.7c0.1,0,0.3,0,0.4-0.1
		c0.6-0.2,1-0.8,0.9-1.4c0.4,0.3,0.9,0.3,1.3,0.1c0.7-0.3,1-1.2,0.7-1.8l-0.1-0.2l4.2-1.3l1.7,0.7
		C206.7,146.6,204.8,148.9,202.9,151.2z M218,129c-1.9,3.6-4,7.2-6.4,10.6l-3.8-1.5c-0.6-0.2-1.3-0.3-1.9-0.1l-0.6,0.2l-3.9-4.9
		c-0.1-0.1-0.2-0.2-0.4-0.3l-0.5-1.5l-9.7,3.2l1.6,4.7l8.2-2.7l1.9,2.4l-2.4,0.8l-0.4-0.8c-0.3-0.6-1-0.9-1.6-0.7
		c-0.7,0.2-1.1,0.8-1,1.5l0.1,1l-0.2,0.1l-0.5-0.9c0,0,0,0,0-0.1c0,0-0.1-0.1-0.1-0.1c0,0-0.1-0.1-0.1-0.1c0,0-0.1-0.1-0.1-0.1
		c0,0-0.1,0-0.1-0.1c0,0-0.1-0.1-0.1-0.1c0,0-0.1,0-0.1,0c-0.1,0-0.1,0-0.2-0.1c0,0-0.1,0-0.1,0c-0.1,0-0.1,0-0.2,0c0,0-0.1,0-0.1,0
		c0,0-0.1,0-0.1,0c0,0,0,0,0,0c-0.1,0-0.1,0-0.2,0c0,0-0.1,0-0.1,0c0,0-0.1,0-0.1,0.1c0,0-0.1,0-0.1,0.1c0,0,0,0,0,0
		c0,0,0,0-0.1,0.1c0,0-0.1,0.1-0.1,0.1c0,0-0.1,0.1-0.1,0.1c0,0-0.1,0.1-0.1,0.1c0,0-0.1,0.1-0.1,0.1c0,0,0,0.1-0.1,0.1
		c0,0,0,0.1-0.1,0.1c0,0,0,0.1,0,0.1c0,0,0,0.1,0,0.1c0,0,0,0.1,0,0.1c0,0.1,0,0.1,0,0.2c0,0,0,0.1,0,0.1l0.1,1l-0.2,0.1l-0.5-0.9
		c0,0,0,0-0.1-0.1c0,0-0.1-0.1-0.1-0.1c0,0-0.1-0.1-0.1-0.1c0,0-0.1-0.1-0.1-0.1c0,0-0.1-0.1-0.1-0.1c0,0-0.1,0-0.1-0.1
		c0,0-0.1,0-0.1-0.1c0,0-0.1,0-0.1,0c-0.1,0-0.1,0-0.2,0c0,0-0.1,0-0.1,0c-0.1,0-0.1,0-0.2,0c0,0-0.1,0-0.1,0c0,0,0,0,0,0
		c0,0-0.1,0-0.1,0c0,0-0.1,0-0.1,0c0,0-0.1,0-0.1,0c0,0-0.1,0-0.1,0.1c0,0,0,0,0,0c0,0,0,0-0.1,0c0,0-0.1,0.1-0.1,0.1
		c0,0-0.1,0.1-0.1,0.1c0,0-0.1,0.1-0.1,0.1s-0.1,0.1-0.1,0.1c0,0,0,0.1-0.1,0.1c0,0,0,0.1-0.1,0.1c0,0,0,0.1,0,0.1c0,0,0,0.1,0,0.1
		c0,0,0,0.1,0,0.1c0,0.1,0,0.1,0,0.2c0,0,0,0.1,0,0.1l0.1,1l-0.2,0.1l-0.6-0.9c0,0,0,0,0-0.1c0,0-0.1-0.1-0.1-0.1
		c0,0-0.1-0.1-0.1-0.1c0,0-0.1-0.1-0.1-0.1c0,0-0.1,0-0.1-0.1c0,0-0.1-0.1-0.1-0.1c0,0-0.1,0-0.1,0c0,0-0.1,0-0.1,0c0,0-0.1,0-0.1,0
		c0,0-0.1,0-0.1,0c0,0-0.1,0-0.1,0c0,0-0.1,0-0.1,0c0,0,0,0,0,0c-0.1,0-0.1,0-0.1,0c0,0-0.1,0-0.1,0c0,0-0.1,0-0.1,0
		c0,0-0.1,0-0.1,0.1c0,0,0,0,0,0c0,0,0,0-0.1,0.1c0,0-0.1,0.1-0.1,0.1c0,0-0.1,0.1-0.1,0.1c0,0-0.1,0.1-0.1,0.1c0,0-0.1,0.1-0.1,0.1
		c0,0,0,0.1-0.1,0.1c0,0,0,0.1-0.1,0.1c0,0,0,0.1,0,0.1c0,0,0,0.1,0,0.1c0,0,0,0.1,0,0.1c0,0.1,0,0.1,0,0.2c0,0,0,0.1,0,0.1l0.1,1
		l-0.2,0.1l-0.6-0.9c0,0,0,0-0.1-0.1c0,0-0.1-0.1-0.1-0.1c0,0-0.1-0.1-0.1-0.1c0,0-0.1-0.1-0.1-0.1c0,0-0.1-0.1-0.1-0.1
		c0,0-0.1,0-0.1-0.1c0,0-0.1,0-0.1-0.1c0,0-0.1,0-0.1,0c0,0-0.1,0-0.1,0c0,0-0.1,0-0.1,0c-0.1,0-0.1,0-0.2,0c0,0-0.1,0-0.1,0
		c0,0,0,0,0,0c-0.1,0-0.1,0-0.2,0c0,0-0.1,0-0.1,0c0,0-0.1,0-0.1,0c0,0-0.1,0-0.1,0.1c0,0,0,0,0,0c0,0,0,0-0.1,0.1
		c0,0-0.1,0.1-0.1,0.1c0,0-0.1,0.1-0.1,0.1c0,0-0.1,0.1-0.1,0.1s-0.1,0.1-0.1,0.1c0,0,0,0.1-0.1,0.1c0,0,0,0.1-0.1,0.1
		c0,0,0,0.1,0,0.1c0,0,0,0.1,0,0.1c0,0,0,0.1,0,0.1c0,0,0,0.1,0,0.1c0,0,0,0.1,0,0.1l0.1,1l-0.2,0.1l-0.6-0.9c0,0,0,0-0.1-0.1
		c0,0-0.1-0.1-0.1-0.1c0,0-0.1-0.1-0.1-0.1c0,0-0.1-0.1-0.1-0.1c0,0-0.1-0.1-0.1-0.1c0,0-0.1,0-0.1-0.1c0,0-0.1,0-0.1-0.1
		c0,0-0.1,0-0.1,0c0,0-0.1,0-0.1,0c0,0-0.1,0-0.1,0c-0.1,0-0.1,0-0.2,0c0,0-0.1,0-0.1,0c0,0,0,0,0,0c-0.1,0-0.1,0-0.1,0
		c0,0-0.1,0-0.1,0c0,0-0.1,0-0.1,0c0,0-0.1,0-0.1,0.1c0,0,0,0,0,0c0,0,0,0-0.1,0c0,0-0.1,0.1-0.1,0.1c0,0-0.1,0.1-0.1,0.1
		c0,0-0.1,0.1-0.1,0.1c0,0-0.1,0.1-0.1,0.1c0,0,0,0.1-0.1,0.1c0,0,0,0.1-0.1,0.1c0,0,0,0.1,0,0.1c0,0,0,0.1,0,0.1c0,0,0,0.1,0,0.1
		c0,0.1,0,0.1,0,0.2c0,0,0,0.1,0,0.1l0.1,1l-0.2,0.1l-0.6-0.9c-0.4-0.6-1.1-0.8-1.8-0.5c-0.6,0.3-1,1-0.7,1.7l0.2,0.6l-4,1.3l-3-8.2
		c9.8-2.6,37.2-10.3,44.9-18.1c4.4-4.4,11.7-10.1,17.7-14.5C229.2,111.6,223.6,118.5,218,129z M256,117.9l-6.1-9.9l0.5-0.3
		l-9.1-17.4l-0.8,0.4l-2.5-4l4.7-2.3c0.7-0.3,1.3-1,1.4-1.7c0-0.1,0-0.1,0-0.2c8.6,0.6,28.7,4,29.7,23.4c0.5,9.4-1.4,21.6-3.4,33.7
		c0,0-0.1,0-0.1,0c-0.2,0.1-0.4,0.2-0.6,0.2c-0.2,0.1-0.3,0.1-0.3,0.1l-1.8,0.7l0.7,1.6c0,0-0.5,0.2-1.2,0.5l-0.6-1.3l-0.6,0.3
		l0.5,1.3c-0.3,0.1-0.5,0.3-0.8,0.4l-9.8-22.3C256.6,120.3,256.7,119,256,117.9z M273.5,181.2c-0.1,0-0.2-0.1-0.3-0.1h-2.4
		c-0.6,0-1.1,0.5-1.1,1.1v0.8h-0.4v0.5c-1.9-4.4-1.8-11.8-0.9-20.4l6.6,15C274.5,179.2,274,180.2,273.5,181.2z M287.4,229.6
		c-23.5,0-42.5-19-42.5-42.5c0-14.6,7.4-27.5,18.7-35.2c0.1,0.1,0.2,0.2,0.3,0.4l3.5,7.9c-1.6,11.9-1.8,21.8,2.2,26.5v1.2h0.4v4
		c0,0.6,0.5,1.1,1.1,1.1h2.4c0.1,0,0.2,0,0.2,0c2.2,5,7,8.7,12.6,9.2c9,0.7,16.6-6.6,16.3-15.5c-0.2-7.9-6.7-14.3-14.6-14.6
		c-2.9-0.1-5.6,0.6-7.9,1.9l-9.8-22.3c0.2-1.2,0.4-2.5,0.6-3.7c5.1-2.2,10.7-3.3,16.5-3.3c23.5,0,42.5,19,42.5,42.5
		C329.9,210.6,310.8,229.6,287.4,229.6z M290.3,186.4c-0.4-1.6-2.1-2.6-3.7-2.2l-2,0.5l-2.7-6.1c1.6-1,3.4-1.6,5.4-1.6
		c5.6,0,10.1,4.5,10.1,10.1c0,5.6-4.5,10.1-10.1,10.1c-5.6,0-10.1-4.5-10.1-10.1c0-1,0.2-2.1,0.5-3l2.3,5.3c0.5,1.1,1.6,1.8,2.8,1.8
		c0.2,0,0.5,0,0.7-0.1l4.5-1.1C289.7,189.7,290.7,188,290.3,186.4z"/>
	<path d="M621.5,143.8c-7.3,0-14.1,1.6-20.4,4.4l-4.6-13.2l1.1-0.4l-9.5-28.2l-1.7,0.6l-2.7-7.9c-0.3-0.9-0.1-2,0.7-2.7l6.4-6.1
		c0.3-0.3,0.5-0.7,0.5-1.1c0-0.4-0.2-0.8-0.5-1.1L575,73.7c-0.2-0.2-0.5-0.3-0.8-0.4l-16.4-1.9c-0.4-1-1.3-1.7-2.4-1.8L533.2,67
		c-1.7-0.2-3.2,1-3.3,2.7c-0.2,1.7,1,3.2,2.6,3.3l22.1,2.6c0.1,0,0.2,0,0.4,0c1,0,1.9-0.5,2.4-1.2l15.9,1.9l14.3,13l-5.2,4.9
		c-1.6,1.5-2.1,3.8-1.4,5.8l2.7,7.9l-1.7,0.6l0.9,2.8c-11.7,0.8-45.5,5.2-86.1,30.1l-1.5-3.6c0.9-0.3,1.7-0.6,2.5-1
		c0.6-0.3,0.8-1,0.5-1.6c-0.3-0.6-1-0.8-1.6-0.5c-0.9,0.5-2.1,0.9-3.2,1.2l-5.3-12.5c6.6-2.3,19.3-7.3,19.5-8.5
		c0.2-1.4-0.3-4.1-3.5-4.5s-11.3,0.9-16.3,0s-17-2.5-18.3,2c0,0-2,4.4,0.8,7.5c2.7,3.1,10.9,5.4,14.9,4.4c0.1,0,0.1,0,0.2-0.1
		l5.2,12.3c-1.4,0.3-2.5,0.5-2.5,0.5c-0.7,0.1-1.1,0.7-1,1.4c0.1,0.6,0.6,1,1.2,1c0.1,0,0.1,0,0.2,0c0.1,0,1-0.2,2.2-0.4l2.3,5.3
		c-6.1,3.1-11.6,6.7-16.6,10.6c-8.6-7-19.5-11.2-31.5-11.2c-27.6,0-50,22.4-50,50c0,27.6,22.4,50,50,50c22,0,40.6-14.2,47.3-33.9
		l24.6,3.3c0.8,0.2,1.6,0.2,2.5,0.2c3.8,0,7.2-1.6,9.7-4.2l10.1,7.1l-2.9,4.3c-0.7,1-0.4,2.3,0.6,2.9c0.4,0.2,0.8,0.4,1.2,0.4
		c0.7,0,1.3-0.3,1.8-0.9l7.8-11.6c0.7-1,0.4-2.3-0.6-2.9c-1-0.7-2.3-0.4-2.9,0.6l-2.9,4.3l-10.1-7.1c0.9-1.8,1.5-3.8,1.5-6
		c0-1.4-0.2-2.7-0.6-4c2.1-1.3,4.6-2.8,7.5-4.7c13.4-8.7,17.8-18.4,23.9-31.9c0.5-1.1,1-2.2,1.6-3.4c4.9-10.7,19.1-19.7,25.6-23.3
		l1.3,3.8l1.1-0.4l4.8,13.7c-15.4,8.5-25.8,24.9-25.8,43.7c0,27.6,22.4,50,50,50c27.6,0,50-22.4,50-50
		C671.5,166.1,649.1,143.8,621.5,143.8z M494.2,147.7l16.5,38.9l-16.7-0.7c-1.8-11.2-7.2-21.1-15.1-28.5
		C483.5,153.9,488.6,150.6,494.2,147.7z M505.9,200.1c0,0.2,0,0.3,0,0.5c-3.3,0.3-7.3,0.5-11.8,0.4c0.4-2.4,0.6-4.8,0.6-7.3
		c0-1.8-0.1-3.6-0.3-5.4l17.4,0.7l0,0.1C508.2,191.5,505.9,195.6,505.9,200.1z M512.8,191.4l3.2,7.6c-1.7,0.4-4.3,0.9-7.7,1.3
		c0-0.1,0-0.2,0-0.2C508.3,196.6,510.1,193.4,512.8,191.4z M443,194.4c0.2,0.5,0.6,0.9,1.1,1c2.3,0.8,4.6,1.5,6.8,2.2
		c-1.3,2.1-3.6,3.4-6.2,3.4c-4.1,0-7.4-3.3-7.4-7.4c0-4.1,3.3-7.4,7.4-7.4c0.7,0,1.4,0.1,2.1,0.3c-2.3,3.5-3.5,5.9-3.7,6.2
		C442.8,193.4,442.8,193.9,443,194.4z M447.4,192.7c0.6-1,1.5-2.4,2.6-4.1c1.3,1.3,2.1,3.1,2.1,5.1c0,0.2,0,0.3,0,0.5
		C450.5,193.7,448.9,193.3,447.4,192.7z M453.3,198.4c10.3,3,19.5,4.7,27.6,5.6c-0.2,0.7-0.4,1.3-0.6,1.9l-30.2-4
		C451.4,201,452.5,199.8,453.3,198.4z M454.4,194.9c0-0.4,0.1-0.8,0.1-1.2c0-2.8-1.2-5.3-3.1-7.1l30.5,1.2c0.3,1.9,0.5,3.9,0.5,5.9
		c0,2.3-0.2,4.4-0.6,6.6C473.7,199.5,464.6,197.8,454.4,194.9z M481.4,185.4l-28.5-1.1c3.8-5.3,9.4-12.1,16.6-18.9
		C475.4,170.6,479.6,177.5,481.4,185.4z M444.7,231.4c-20.8,0-37.7-16.9-37.7-37.7c0-20.8,16.9-37.7,37.7-37.7
		c8.2,0,15.7,2.6,21.9,7c-8.1,7.7-14.1,15.4-18,21l-3.3-0.1l0,0c-0.2,0-0.4,0-0.6,0c-5.4,0-9.8,4.4-9.8,9.8c0,5,3.7,9.1,8.5,9.7l0,0
		l36,4.8C473.8,221.8,460.4,231.4,444.7,231.4z M492.7,207.5c0.3-0.9,0.5-1.8,0.7-2.7c0.8,0,1.6,0,2.3,0c4.1,0,7.7-0.2,10.8-0.5
		c0.7,2.1,1.9,4,3.6,5.5L492.7,207.5z M519.1,210.9c-0.3,0-0.6,0-0.9,0l-1.1-0.2c-3.7-0.7-6.7-3.3-8-6.7c4.9-0.6,8.2-1.4,9.7-1.9
		l8,5.6C524.8,209.7,522.1,210.9,519.1,210.9z M517.2,189.5c0.6-0.1,1.2-0.2,1.9-0.2c3.3,0,6.2,1.5,8.2,3.8
		c-3.2,1.9-5.5,3.1-6.9,3.8L517.2,189.5z M528.8,204.7l-5.5-3.9c1.5-0.8,3.5-1.8,6.2-3.4c0.2,0.9,0.3,1.7,0.3,2.7
		C529.9,201.8,529.5,203.3,528.8,204.7z M560.2,154.2c-0.5,1.2-1.1,2.3-1.6,3.4c-6,13.2-9.9,21.9-22.1,29.8
		c-2.7,1.8-5.1,3.2-7.1,4.5c-2.4-3-6.1-5-10.3-5l-3.1-0.1l-17.4-40.9c0.6-0.4,1.2-0.8,1.9-1.1c26.6-10.8,57.5-4.3,67.7-1.7
		C564.9,146.4,562,150.2,560.2,154.2z M571.3,140.2c-6.3-1.8-31.1-8.2-56.6-3.3c34-17.4,61.4-20.3,69.7-20.8l4.1,12.1
		C584.8,130.3,577.7,134.5,571.3,140.2z M621.5,231.4c-20.8,0-37.7-16.9-37.7-37.7c0-13.4,7-25.2,17.6-31.8l1.8,5.3
		c2.8,8.1,6.9,15.6,12.2,22.4l4.3,5.5c0.4,0.5,1,0.8,1.7,0.8c0.5,0,0.9-0.1,1.3-0.5c0.9-0.7,1.1-2,0.4-3l-4.3-5.5
		c-5-6.4-8.9-13.5-11.5-21.1l-2.1-6c4.9-2.4,10.4-3.7,16.3-3.7c20.8,0,37.7,16.9,37.7,37.7C659.2,214.5,642.3,231.4,621.5,231.4z"/>
	<path d="M733.6,170.6L733.6,170.6c4.5-19.3,20.5-34.2,39.9-37.6l0.1,0.8c-23,4-40.5,24-40.5,48.1c0,27,21.9,48.9,48.9,48.9
		c20.3,0,37.7-12.4,45.1-30l23.5,6.6c1.3,0.6,2.7,0.9,4.1,1.2l0.1,0c0.1,0,0.1,0,0.2,0c0,0,0,0,0,0c0.7,0.1,1.4,0.2,2.1,0.2
		c5.8,0,10.9-3.1,13.8-7.7l5.7,2.8l-3.3,5.4c-0.6,0.9-0.3,2.2,0.7,2.8c0.3,0.2,0.7,0.3,1.1,0.3c0.7,0,1.3-0.3,1.7-1l8.7-14
		c0.6-0.9,0.3-2.2-0.7-2.8c-0.9-0.6-2.2-0.3-2.8,0.7l-3.8,6.1l-5.9-3c0.7-1.9,1.2-3.9,1.2-6c0-0.4,0-0.8-0.1-1.2h3.2
		c0.4,0,0.7-0.3,0.8-0.7l1.8-11.2c0.3-1.7-0.3-3.3-1.4-4.5l47.4-46l1,2.9l0.9-0.3l1.4,4.1c-15.6,9.5-26,26.6-26,46.1
		c0,8.5,1.9,16.7,5.7,24.2c0,0,2.2-3.5,2.3-5.6h0c-0.8-2-1.4-4-1.9-6l0.8-0.2c5.5,20.9,24.6,36.4,47.2,36.4
		c27,0,48.9-21.9,48.9-48.9c0-26.6-21.4-48.3-48-48.8v-0.8c0.1,0,0.2,0,0.4,0l0,0c0,0,1.6-3.2,1.6-4.3c-1-0.1-1.9-0.1-2.9-0.1
		c-7.3,0-14.3,1.5-20.7,4.1l-7.1-23.1l1.9-0.3c5.4,6.8,14.5,6.1,15.8,5.7c1.4-0.4,2.3-4.1,2.3-7.9c0-3.8,0.7-9.3,0.7-9.3
		s-0.6,0.4-8.3,0.8c-5.6,0.3-9.2,4.9-10.7,7.3l-2.6,0.4l-2.1-6.7c-0.2-0.5,0.1-1.1,0.5-1.3l0.7-0.5c0.5-0.3,0.9-0.8,1.1-1.4l2.2-6.4
		c0.2-0.5,0.2-1,0-1.5l0.8-2.1c0.6-1.5,0.3-3.1-0.8-4.3c-1-1.2-2.6-1.7-4.2-1.4l-28.5,6.4c-0.8,0.2-1.3,1-1.1,1.7s1,1.3,1.7,1.1
		l28.5-6.4c0.7-0.2,1.1,0.2,1.3,0.4c0.2,0.2,0.5,0.7,0.2,1.3l-0.5,1.2c-0.3,0-0.6,0-0.8,0.1L902,93.2c-0.4,0.1-0.6,0.5-0.5,0.9
		c0.1,0.4,0.5,0.6,0.9,0.5l24.7-7.1l-1.8,4.7c-0.1,0.4-0.4,0.6-0.8,0.8l-7.4,2.7c-0.7,0.3-1.1,1.1-0.9,1.9l3.3,9.4l-2.5,0.4
		c-0.9,0.1-1.5,1-1.4,1.9c0.1,0.8,0.8,1.4,1.6,1.4c0.1,0,0.2,0,0.3,0l3.1-0.5l1.4,4l-1.6,0.5l0.4,1.3h-85.2l-0.8-2.8
		c0-0.1-0.1-0.1-0.1-0.2l3.1-1c1.5-0.5,3-1.3,4.3-2.3l4.3-3.2c1.1-0.9,2-2,2.6-3.4c0.4-0.9,0.2-2-0.5-2.7c-0.8-0.8-2.1-1.6-4.1-1.5
		c-4.1,0.2-15.7,4.1-20,2.5c-2.9-1.1-7.3-3.6-10.5-3.5c-2.2,0.1-3.5,2.5-2.5,4.5l4.8,9.1c2,3.8,6.4,5.5,10.4,4.2l4.8-1.6
		c0,0,0,0.1,0,0.1l0.8,2.7l-4.3,5.4h-18.5l-47.7-7.5c-0.6-0.1-1.2,0.3-1.3,0.9c-0.1,0.6,0.3,1.2,0.9,1.3l9.9,1.6l1.5,10.1
		c-9.6,1.7-18.7,5.9-26.2,12.4c-9.7,8.4-16.1,20-18.1,32.6C728.5,173.6,732.4,173.1,733.6,170.6z M775.6,132.7
		c2.1-0.3,4.2-0.5,6.4-0.5c7.1,0,13.9,1.5,20,4.2l-0.3,0.7c-6-2.7-12.7-4.2-19.7-4.2c-2.1,0-4.2,0.2-6.2,0.4L775.6,132.7z
		 M833,119.9l16.3,53.7l-14,0.2c-2-13.3-8.8-25-18.7-33.3L833,119.9z M825.7,173.9l-19.2,0.2l-0.9,1.9l-17.3,0l22.4-28
		C818.4,154.5,823.8,163.6,825.7,173.9z M782.8,177.5l-0.3,0.6l-0.1-0.7C782.5,177.5,782.7,177.5,782.8,177.5z M785.6,179.4
		c0.4,0.5,0.6,1.2,0.7,1.9l-2-0.3L785.6,179.4z M787.2,173.3l14.6-31.2c2.4,1.2,4.7,2.7,6.9,4.3L787.2,173.3z M783.5,176l-1.3,0
		l-5.8-38.2c1.8-0.2,3.7-0.4,5.6-0.4c6.3,0,12.4,1.4,17.8,3.8L783.5,176z M780.8,181.5c-0.1,0.3-0.1,0.6,0,0.9
		c0.2,0.4,0.6,0.7,1,0.8l4.2,0.6c-0.7,1.5-2.2,2.6-4,2.6c-2.5,0-4.5-2-4.5-4.5c0-1.8,1.1-3.4,2.7-4.1L780.8,181.5z M787.5,184
		l38.3,5.4c-0.5,3.1-1.3,6-2.5,8.8l-38.8-11C785.9,186.6,787,185.4,787.5,184z M787.8,181.4c-0.1-1.2-0.6-2.3-1.3-3.2l0.6-0.7
		l17.8,0l-1.7,3.6l23.2,1.4c0,1.5-0.1,2.9-0.3,4.4L787.8,181.4z M830.8,182.8l1.1,0.1c0.3,0.8,1.1,1.3,2,1.3c0.3,0,0.6-0.1,0.9-0.2
		c0.3,0.3,0.5,0.5,0.7,0.9l0.4,0.6c0.7,1.2,2,2,3.4,2l2.4,0c-0.2,0.5-0.3,1-0.4,1.5l-10.6-1.5C830.7,185.9,830.8,184.3,830.8,182.8z
		 M843.1,187.4l3,0c1.8,0,3.3-1.1,3.8-2.9l0.3-1c0.3-0.9,0.8-1.6,1.5-2.1l2.9,9.4l-12-1.7C842.7,188.6,842.9,188,843.1,187.4z
		 M855.4,180.7l9.5-0.2c0.4,0,0.7,0.1,1.1,0.1c0.1,0.1,0.3,0.2,0.4,0.3l-8.4,8.1L855.4,180.7z M830.9,173.8l-0.8,0
		c-2-11.7-8-22-16.7-29.3l0.5-0.6C822.8,151.4,829,161.9,830.9,173.8z M811.4,143c-2.4-1.8-5-3.5-7.8-4.8l0.3-0.7
		c2.8,1.4,5.5,3,7.9,4.9L811.4,143z M782,226.4c-24.5,0-44.5-20-44.5-44.5c0-21.9,15.9-40.1,36.7-43.8l5.8,38.2c-2.3,0.8-4,3-4,5.6
		c0,2.6,1.7,4.7,4,5.6c0,0,0,0,0.1,0l42.7,12.1C815.9,215.3,800.2,226.4,782,226.4z M827.6,199.4c1.2-3,2-6.2,2.6-9.4l10.7,1.5
		c0,0.3-0.1,0.7-0.1,1c0,4.9,2.2,9.2,5.5,12.2L827.6,199.4z M857,207.3c-0.7,0-1.4-0.1-2.1-0.2l-3.9-1.1c-5.2-2.3-8.9-7.5-8.9-13.6
		c0-0.3,0-0.5,0-0.8l13.4,1.9c0.2,0.3,0.5,0.6,0.9,0.7c0.2,0,0.3,0.1,0.5,0.1c0.1,0,0.2,0,0.3-0.1l12.2,6.2
		C866.9,204.6,862.3,207.3,857,207.3z M871.9,192.5c0,1.9-0.4,3.7-1,5.3l-11-5.5l8.9-8.6c0.1,0.4,0.1,0.9,0,1.4l-0.8,5.4
		c-0.1,0.5,0.3,0.9,0.8,0.9h3.1C871.8,191.7,871.9,192.1,871.9,192.5z M908,192.8c-0.8-3.5-1.2-7.2-1.2-10.9
		c0-17.6,9.2-33.1,23.1-41.9l0.3,0.8c-13.5,8.7-22.6,23.9-22.6,41.1c0,3.7,0.4,7.2,1.2,10.7L908,192.8z M911.9,181.9
		c0-15.3,7.8-28.9,19.6-36.9l1.2,3.6l-1.9,0.8c-0.8,0.3-1.2,1.3-0.9,2.2c0.3,0.6,0.9,1,1.5,1c0.2,0,0.4,0,0.6-0.1l1.7-0.7l1.4,4
		c3.5,10.1,9.6,19.1,17.7,26l0,0l-39.9,9.7C912.3,188.4,911.9,185.2,911.9,181.9z M955.5,178.2c-7.4-6.4-13-14.6-16.2-23.9l-1.5-4.3
		l1.7-0.7l0.7,2.3c0.1,0.3,0.4,0.5,0.7,0.5c0.1,0,0.1,0,0.2,0c0.4-0.1,0.6-0.5,0.5-0.9l-0.7-2.4l1.3-0.6c0.8-0.3,1.2-1.3,0.9-2.2
		c-0.3-0.8-1.3-1.2-2.2-0.9l-1,0.4l-0.7-2.3l2.5-1c0.3-0.1,0.4-0.4,0.3-0.6l-0.3-0.8c-0.1-0.3-0.4-0.4-0.6-0.3l-2.4,0.9l-0.1-0.3
		c5.2-2.3,10.9-3.6,16.9-3.7V178.2z M937.3,142l-0.6,0.2c-0.3,0.1-0.4,0.4-0.3,0.6l0.3,0.8c0.1,0.3,0.4,0.4,0.6,0.3l0.5-0.2l0.7,2.4
		l-1.8,0.7l-1.4-4.2c0.6-0.3,1.2-0.6,1.8-0.9L937.3,142z M933.9,138.5l-0.3-0.8c0.7-0.3,1.3-0.7,2-1l0.2,0.8
		C935.2,137.9,934.6,138.2,933.9,138.5z M1000.9,181.9c0,24.5-20,44.5-44.5,44.5c-20.6,0-37.9-14.1-43-33.1l41.2-10l0.3,0.3
		c0.4,0.4,0.9,0.5,1.4,0.5c0.6,0,1.2-0.3,1.7-0.8c0.8-0.9,0.7-2.3-0.2-3.1l-0.5-0.4v-42.3C981.4,137.9,1000.9,157.7,1000.9,181.9z
		 M955.5,132.3v0.8c-6.5,0.1-12.6,1.5-18.2,3.9l-0.2-0.8C942.7,133.7,948.9,132.4,955.5,132.3z M919.4,97.9l6.1-2.2
		c0.4-0.1,0.7-0.4,1.1-0.6l-0.1,0.2c-0.1,0.3-0.3,0.5-0.5,0.6l-0.7,0.5c-1,0.6-1.5,1.9-1.1,3l2,6.5l-3.7,0.6L919.4,97.9z
		 M923.5,109.7l3.6-0.6l7.2,23.4c-0.7,0.3-1.4,0.7-2.1,1l-1.1-3.3l0.9-0.3l-5.7-17.3l-1.6,0.5L923.5,109.7z M922,119.6l1.8,5.6
		l-49.7,48.1c-0.2,0-0.3-0.1-0.5-0.1l-20.5,0.3l-16.4-53.9H922z M814.6,138.9c-2.7-2.1-5.7-3.9-8.8-5.5l4.2-8.9h16.1L814.6,138.9z
		 M773.5,118.9l34.1,5.4l-3.8,8.2c-6.7-3-14.1-4.7-21.9-4.7c-2.4,0-4.7,0.2-7,0.5L773.5,118.9z"/>
	<path d="M1103.3,232.6c18.8,0,34.5-12.6,39.4-29.9l73.8,3v0c0,0,0,0,0.1,0c3.7,0,7-1.4,9.5-3.7l4.6,4l-4.1,5.3l3.9,3l10.1-13
		l-3.9-3l-4,5.1l-4.5-3.9c1.5-2.3,2.4-5,2.4-7.9c0-6.1-3.9-11.3-9.4-13.3c3.5-15.8,8.5-34.1,11.1-43.2l3.4,4.9l-1.1,0.8l1.9,2.7
		l8.9-6.1l12.9,16.4c-6.3,7.3-10.5,16.5-11.7,26.4c-2.2,1.3-6.1,2-6.1,2v0.8h10.8l0,0c0.6-9.4,4.3-18.1,10.1-25.2l0.3,0.4
		c-6.3,7.6-10,17.3-10,27.9c0,24.2,19.6,43.8,43.8,43.8c24.2,0,43.8-19.6,43.8-43.8c0-24.2-19.6-43.8-43.8-43.8
		c-12.1,0-23,4.9-31,12.8l-0.3-0.4c3.2-3.2,7-6,11.1-8.1c0,0,0,0,0,0c2.3-2.4,1.9-6.3,1.9-6.3c-6.1,2.4-11.5,6.1-16.1,10.5
		l-12.4-15.7l1.3-0.9l-1.9-2.7l-1.5,1l-17.9-22.6l1.1-0.8l-2-2.6l-2.6,2.1l-3.3-4.4l-0.2,0.1l-3.6-18.7c-0.5-2.6-2.1-4.9-4.4-6.2
		c-2.3-1.3-5.1-1.6-7.6-0.8l-21.6,7.1l1.3,3.9l21.6-7.1c1.4-0.5,2.9-0.3,4.2,0.4s2.2,2,2.5,3.5l4,20.6l-1.5,1.1l3.4,4.6l-3.6,2.8
		l2,2.6l1.8-1.4l0.2,0.2l-0.3,0.2l1.7,2.5c-6.1,1.8-17,5.8-26.6,13.6c-7.7,6.2-25.1,16.5-38.4,24.1l-1.6-3c9.5-4.1,22-9.9,22-9.9
		s0.3-6-8-3.8c-8.3,2.2-17.2,5.1-23.3,1.4c-6.1-3.7-13.7-13-17.5-9.2c-1.2,1.2-2.2,2.1-3,2.9l-7.1-8.3c-0.7-0.9-2-1-2.9-0.2
		c-0.9,0.7-1,2-0.2,2.9l17.4,20.5l3.3,4.3c0,0,0.6,0.8,1.8,1.7l0.4,0.4c0.4,0.4,0.9,0.6,1.4,0.7c1.7,0.9,3.9,1.4,6.5,0.5
		c1.2-0.4,3.2-1.2,5.6-2.2l1.8,3.4c-4.5,2.5-8.3,4.6-10.6,5.9c-8.6-12.8-23.1-20.8-39.2-20.8c-2.4,0-4.9,0.2-7.3,0.6
		c0,0,3.4,4.3,6.4,5.2c0,0,0,0,0,0c0.3,0,0.6,0,0.9,0c14,0,26.6,6.9,34.2,18c-0.2,0.1-0.4,0.1-0.6,0.2
		c-7.4-10.6-19.7-17.6-33.6-17.6c-22.6,0-40.9,18.3-40.9,40.9C1062.3,214.3,1080.7,232.6,1103.3,232.6z M1295.3,148.7
		c20.7,0,37.4,16.7,37.4,37.4c0,20.7-16.8,37.4-37.4,37.4c-20.7,0-37.4-16.8-37.4-37.4c0-8.5,2.9-16.4,7.7-22.7l21.8,27.7l3.2-2.6
		l-0.8-1l4.9,1.1c0.2,0,0.3,0.1,0.5,0.1c1.1,0,2.2-0.8,2.4-2c0.3-1.3-0.6-2.7-1.9-2.9l-10.8-2.3l-16.7-21.2
		C1275.2,153.1,1284.7,148.7,1295.3,148.7z M1143.3,200.3c0.1-0.6,0.2-1.2,0.3-1.9c3.1-1.2,4.7-2.4,5.4-3.1l53.7-1.3
		c0.6,3.6,2.6,6.8,5.5,8.9L1143.3,200.3z M1096.3,191.7c0-3,1.9-5.5,4.5-6.5v12.9C1098.2,197.2,1096.3,194.7,1096.3,191.7z
		 M1128.9,177.7c0.6,1.1,1.1,2.3,1.6,3.5l-11.8,0.5c3.5-0.8,7-1.9,9.6-3.6C1128.5,177.9,1128.7,177.8,1128.9,177.7z M1216.5,180.1
		c0,0,0.1,0,0.1,0c-0.7,3.4-1.4,6.6-1.9,9.6l-9.7,0.2C1205.9,184.4,1210.7,180.1,1216.5,180.1L1216.5,180.1z M1202.5,190l-27,0.6
		l-4.6-8.6l37.2-1.5C1205.1,182.7,1203,186.1,1202.5,190z M1169.1,190.8l-20.4,0.5c-1-0.6-2.3-0.4-3.1,0.5c0,0-0.4,0.4-1.5,1
		c0-0.3,0.1-0.7,0.1-1c0-3-0.3-5.8-0.9-8.6l21.2-0.9L1169.1,190.8z M1132.5,191.7c0,1.6-0.2,3.1-0.4,4.6c-5.1,0.7-11.9,1.2-21.1,0.7
		c1-1.5,1.6-3.3,1.6-5.3c0-2.9-1.3-5.5-3.4-7.2l22.1-0.9C1132.1,186.2,1132.5,188.9,1132.5,191.7z M1105.7,196.7v-11.4
		c2.6,1,4.5,3.5,4.5,6.5c0,2-0.9,3.9-2.3,5.1C1107.2,196.8,1106.5,196.7,1105.7,196.7z M1216.5,203.3L1216.5,203.3
		c-5.6,0-10.3-4-11.4-9.3l11.3-0.3l7.7,6.7C1222,202.2,1219.4,203.3,1216.5,203.3z M1228.1,191.7c0,2.3-0.7,4.4-1.9,6.2l-7.6-6.6
		c0.5-3.2,1.2-6.8,2-10.5C1225,182.6,1228.1,186.8,1228.1,191.7z M1243.1,134.9l-2.1,1.5l-15.6-23l-0.4,0.2l-0.4-0.5l0.8-0.6
		L1243.1,134.9z M1199.2,138.3c9.9-8,21.7-11.7,26.4-13l3.7,5.4c-2,7.2-8.1,28.6-12.1,46.9c-0.2,0-0.4,0-0.7,0c0,0,0,0-0.1,0v0
		l-46.9,1.9l-9.1-16.9C1173.8,155,1191.2,144.7,1199.2,138.3z M1140.1,172.5c1.1,2.1,2.1,4.4,2.8,6.8l5.5-1.7
		c-0.7-2.3-1.6-4.5-2.6-6.6c2.2-1.2,5.6-3.1,9.7-5.4l7.7,14.3l-20.5,0.8c-0.8-2.8-1.8-5.5-3.1-8
		C1139.7,172.6,1139.9,172.6,1140.1,172.5z M1103.3,162.5c9.3,0,17.5,4.3,22.9,11.1c-0.2,0.1-0.3,0.2-0.5,0.3
		c-6.9,4.4-22.3,4.6-22.4,4.6c-1.4,0-2.4,1.1-2.4,2.5v1.7c-4,1.1-6.9,4.7-6.9,9c0,4.7,3.5,8.6,8.1,9.3c0.3,0.2,0.7,0.4,1.1,0.4
		c5.7,0.5,10.6,0.7,15,0.7c2.1,0,4-0.1,5.8-0.1l6.6,0.3c-4.2,10.9-14.8,18.7-27.2,18.7c-16.1,0-29.2-13.1-29.2-29.2
		C1074,175.6,1087.1,162.5,1103.3,162.5z"/>
	<path d="M281.9,461.4c-7.3,0-14.2,1.4-20.6,4c-0.8-2.2-1.5-4-2-5.5l0.5-0.2l-9.4-29.3l-0.7,0.2l-0.4-1.2l21.4-4.2l5.9,5.5
		c0.2,0.9,0.4,2.9-0.9,5.3c-2.1,4.1-7.5,7.4-15.5,9.7c-1.3,0.4-2,1.7-1.6,2.9c0.3,1,1.2,1.7,2.3,1.7c0.2,0,0.4,0,0.6-0.1
		c9.6-2.7,15.8-6.8,18.5-12.2c2-4,1.4-7.5,1.1-8.8l5-7.9c0.5-0.2,0.9-0.5,1.2-1l0.2-0.4c1.5,1.6,3.3,4.4,3.7,8.5
		c0.8,7.6,3,10,3.3,10.2c0.2,0.2,0.5,0.3,0.8,0.3c0.3,0,0.6-0.1,0.8-0.3c0.4-0.4,0.4-1.1,0-1.6c0,0-1.9-2-2.6-8.8
		c-0.5-5.1-3-8.5-4.8-10.3l2.9-4.9c0.7-1.1,0.3-2.6-0.8-3.3c-1.1-0.7-2.6-0.3-3.3,0.8l-3.9,6.5l-12.9,3.4l-25.1,4.9
		c-0.7,0.1-1.2,0.5-1.6,1.1c-0.3,0.6-0.4,1.3-0.2,1.9l1.2,3.8l-0.8,0.2l1.5,4.7l-85.9,4.2l-0.8-2.6l1.9-0.5c0.8-0.2,1.2-1,1-1.8
		c-0.2-0.8-1-1.2-1.8-1l-3.3,0.9l-6.5-22.1c1.2-0.3,2.3-0.7,3.1-1.1c2.3-1.1,5.4-3,6.6-3.7c11.5-0.4,11.5-1.9,11.5-1.9
		c-0.7-1.9-5.9-1.8-11.6-1.7c-5.7,0.1-25.4,0.6-31.4-0.2c-6-0.8-7.3,0.6-7.3,0.6s9,3.9,13.8,5.2c0,0,0.1,0,0.1,0
		c0.6,1.5,2,4.4,4.6,4.5c0.1,0,0.3,0,0.4,0c1.7,0,4.2-0.3,6.6-0.9l6.6,22.2l-4.5,1.3c-0.8,0.2-1.2,1-1,1.8c0.2,0.6,0.7,1,1.4,1
		c0.1,0,0.3,0,0.4-0.1l3.1-0.9l2.1,7l-12,20.6c-7.9-4.3-16.9-6.7-26.5-6.7c-30.7,0-55.7,25-55.7,55.7s25,55.7,55.7,55.7
		c19.6,0,36.9-10.2,46.9-25.6l15.3,0.9c1.2,0.3,2.5,0.4,3.8,0.4c4.2,0,8-1.4,11.1-3.7l3.9,4.2L194,553c-0.6,0.7-0.6,1.8,0.1,2.5
		c0.3,0.3,0.8,0.5,1.2,0.5c0.5,0,0.9-0.2,1.3-0.6l9.3-10.1c0.6-0.7,0.6-1.8-0.1-2.5c-0.7-0.6-1.8-0.6-2.5,0.1l-3.3,3.6l-3.6-4
		c3-3.3,4.9-7.7,4.9-12.5c0-4.3-1.5-8.2-3.9-11.4l55.3-60.5l1.2,3.6l0.7-0.2c0.6,1.6,1.3,3.7,2.2,6.1c-18.1,9.2-30.5,28-30.5,49.7
		c0,30.7,25,55.7,55.7,55.7s55.7-25,55.7-55.7S312.7,461.4,281.9,461.4z M140.2,414.8c-1.6-0.1-2.6-1.7-3.2-2.9
		c4.4,0.4,10.3-1.8,20.7-2.2c-1.4,0.8-3.2,1.9-4.6,2.5c-0.7,0.3-1.8,0.7-3,1c-0.3-0.8-1.2-1.3-2.1-1.1c-0.8,0.2-1.3,1-1.2,1.8
		C144.3,414.5,141.7,414.8,140.2,414.8z M156.6,452.1l17.2,58.9l-1.8-0.1c-1.9-17.3-11.8-32.2-25.8-41L156.6,452.1z M111,537.5
		L111,537.5c0.4-0.2,0.8-0.2,1.1-0.2c0.1,0,0.1,0,0.2,0l-1.5,1.9c-0.5,0.7-0.4,1.7,0.3,2.2c0.3,0.2,0.6,0.3,1,0.3
		c0.5,0,0.9-0.2,1.3-0.6l1.5-1.9c0.1,0.3,0.2,0.6,0.2,0.9c0,1.6-1.3,2.9-2.9,2.9l0,0c-1.6,0-2.9-1.3-2.9-2.9
		C109.2,539,110,538,111,537.5z M116,540.2c0-0.7-0.2-1.3-0.5-1.8l2.9-3.7l1.8-0.7c0.1,0,0.1,0,0.2-0.1l0.1-0.1
		c0.1,0,0.1-0.1,0.1-0.1c0.9-0.5,1.5-1.5,1.5-2.6c0-1.2-0.7-2.2-1.7-2.7c0,0,0,0,0-0.1l-0.2-0.1l-0.4-2.1c2.6-0.9,4.7-2.9,5.7-5.5
		l38.5,7.5c-0.1,0.6-0.1,1.2-0.1,1.8c0,0.3,0,0.6,0,0.8c-1.6,5.5-4.1,10.5-7.3,15l-42.2-2.6C115.4,542.6,116,541.5,116,540.2z
		 M117.1,531.2c0-0.4,0.1-0.7,0.3-1l0.1,0.6L117.1,531.2C117.1,531.2,117.1,531.2,117.1,531.2z M165.7,511.5
		c0.2,1.9,0.3,3.7,0.3,5.7c0,1.7-0.1,3.3-0.3,5c-0.4,0.8-0.7,1.7-1,2.6l-38.5-7.5c0,0,0-0.1,0-0.1c0-2.9-1.3-5.5-3.4-7.3l0.5-0.9
		L165.7,511.5z M123.9,508.1l19-32.7c12.1,7.6,20.6,20.3,22.6,35.1L123.9,508.1z M118.6,519.3l5.7,1.1c-0.9,2.1-2.6,3.7-4.6,4.5
		L118.6,519.3z M119.4,515.9l2.9-4.9c1.6,1.5,2.7,3.6,2.7,6L119.4,515.9z M119.2,509.3l-4.1,7c-0.3,0.5-0.3,1.1-0.1,1.6
		c0,0.1,0.1,0.1,0.1,0.2l1.4,7.4c-4.6,0-8.3-3.8-8.3-8.3c0-4.6,3.7-8.4,8.4-8.4C117.5,508.8,118.4,509,119.2,509.3z M120.1,533
		l-0.2,0.1c-0.1,0-0.2,0-0.2,0l0.8-1c0.3-0.4,0.4-0.8,0.3-1.3l-0.2-1.3c0.5,0.4,0.8,0.9,0.8,1.6C121.3,532,120.8,532.7,120.1,533z
		 M172.3,516.1c0.8-0.6,1.6-1.1,2.5-1.5l3.8,12.9l-6.9-1.3c0.5-2.9,0.7-5.9,0.7-8.9C172.4,516.8,172.3,516.4,172.3,516.1z
		 M180.9,512.8c0.6-0.1,1.2-0.1,1.7-0.1c3.4,0,6.5,1,9.1,2.6l-7.7,8.4L180.9,512.8z M174.4,513.3c-0.7,0.4-1.5,0.8-2.1,1.2
		c0-0.9-0.1-1.8-0.2-2.6l2,0.1L174.4,513.3z M116.6,566.6c-27.2,0-49.4-22.2-49.4-49.4c0-27.2,22.2-49.4,49.4-49.4
		c8.4,0,16.4,2.1,23.3,5.9l-20,34.2l-1.2-0.1c-0.7-0.2-1.4-0.3-2.2-0.3c-5.3,0-9.6,4.3-9.6,9.6c0,4.4,2.9,8,6.9,9.2l3,1.4l0.2,1.1
		c-0.6,0.6-1,1.3-1,2.2c0,0.4,0.1,0.7,0.2,1.1l-2.5,3.2l-3.2,1.2c0,0,0,0-0.1,0l0,0c0,0,0,0,0,0c-1.4,0.6-2.3,2-2.3,3.5
		c0,2,1.5,3.6,3.4,3.8c0,0,0,0,0,0l44.3,2.7C147,558.8,132.7,566.6,116.6,566.6z M164.1,546.3c1.2-1.9,2.2-3.9,3.2-5.9
		c2,2.9,4.7,5.2,7.9,6.6L164.1,546.3z M182.6,547.3c-6.2,0-11.7-3.3-14.7-8.3c1.3-3.1,2.3-6.3,3.1-9.6l8.7,1.7
		c0.4,0.9,1.2,1.6,2.2,1.9c0.2,0.1,0.5,0.1,0.7,0.1c0.2,0,0.3-0.1,0.4-0.1l9.8,10.8C190,546.1,186.5,547.3,182.6,547.3z M199.9,530
		c0,4.5-1.7,8.5-4.5,11.6l-9.5-10.5l10.5-11.5C198.6,522.5,199.9,526.1,199.9,530z M192.6,514.3c-2.9-1.9-6.3-2.9-10-2.9
		c-0.5,0-1,0-1.4,0.1l-0.7,0l-19-65.1l86-4.2l2.9,9L192.6,514.3z M281.9,566.6c-27.2,0-49.4-22.2-49.4-49.4
		c0-18.9,10.7-35.4,26.4-43.7c5.7,14.9,14.4,36.2,20.9,45.2c0.5,0.7,1.3,1,2.1,1c0.5,0,1-0.2,1.5-0.5c1.1-0.8,1.4-2.4,0.6-3.5
		c-6.2-8.5-14.8-29.6-20.4-44.3c5.7-2.3,11.9-3.6,18.3-3.6c27.2,0,49.4,22.2,49.4,49.4C331.3,544.4,309.2,566.6,281.9,566.6z"/>
	<path d="M618.3,463.9c-6.9,0-13.5,1.4-19.6,3.8l-4.4-12.5l-0.1-0.4l-4.3-4.9l-0.1-0.3l1.5-0.6l-7.8-21.2l-1.7,0.6l-1.6-4.3
		l10.5-7.5c1-0.7,1.4-1.9,1-3c-0.4-1.1-1.4-1.9-2.6-1.9h-14c-1.1,0-2,0.9-2,2c0,1.1,0.9,2,2,2h10.2l-6.5,4.7l-0.6-1.8l-3.7,1.3
		l1,2.9c-0.6,0.7-0.7,1.7-0.1,2.4c0.3,0.4,0.8,0.7,1.3,0.7l1.4,3.8l-1.7,0.6l1,2.8L497.1,456l-1.9-6.1l2.7-1c0.7-0.2,1-1,0.8-1.7
		c-0.2-0.7-1-1-1.7-0.8l-3.5,1.2l-8.6-28.3c1.2-0.4,2.2-1.1,3.8-2.1c0.5-0.3,1-0.7,1.7-1.1c3.2-2.1,7-2.2,7-2.2l0-0.1
		c2,0,3.6,0.1,4.1,0.2c1.8,0.3,2.6,1.2,3.4,0.5c0.8-0.7,0.2-2.9-1.8-4.4c-2-1.5-3.6-1.7-13-1.4c-9.4,0.3-22.2-1-25.8-0.8
		c-3.6,0.2-3.3,4.1-3.3,4.1c0,0.7,3.6,2.4,7.6,3.8l1.5,2c1.2,1.6,3.1,2.5,5,2.5c0,0,0.1,0,0.1,0c2.2,0,4.9-0.1,6.8-0.3l8.7,28.7
		l-2.5,0.9c-0.7,0.2-1,1-0.8,1.7c0.2,0.5,0.7,0.9,1.2,0.9c0.1,0,0.3,0,0.4-0.1l1.4-0.5l2.6,8.4l-12.6,15.3
		c-9-7.1-20.4-11.3-32.7-11.3c-29.3,0-53.2,23.9-53.2,53.2c0,29.3,23.9,53.2,53.2,53.2c21.7,0,40.4-13.1,48.7-31.7l20.8-3.8l0,0
		c0.7-0.1,1.4-0.3,2.1-0.6l6.7,13.1l-4.6,2.4c-1,0.5-1.4,1.8-0.9,2.9c0.4,0.7,1.1,1.1,1.9,1.1c0.3,0,0.7-0.1,1-0.2l11.8-6.2
		c1-0.5,1.4-1.8,0.9-2.9c-0.5-1-1.8-1.4-2.9-0.9l-4.6,2.4l-6.6-13c3.2-2.2,5.3-5.9,5.3-10c0-3-1.1-5.7-3-7.8
		c34.6-44.9,51.2-62.6,57.7-68.9l2.1,5.6l1.5-0.6l0.4,1l4.2,4.9l4.4,12.4c-17.6,8.7-29.7,26.8-29.7,47.7c0,29.3,23.9,53.2,53.2,53.2
		c29.3,0,53.2-23.9,53.2-53.2C671.5,487.8,647.6,463.9,618.3,463.9z M475.3,419.1c-1.6,0-3.1-0.7-4.1-2l-0.4-0.5
		c0.8,0.2,1.5,0.4,2.2,0.6c5.3,1.3,8.4-0.3,11.8-2c1.4-0.7,4.2-1.1,7.1-1.2c-0.8,0.3-1.5,0.7-2.3,1.2c-0.6,0.4-1.2,0.8-1.7,1.1
		c-1.5,1-2.4,1.6-3.4,2l0-0.1l-1.9,0.6C481.4,418.9,478.8,419,475.3,419.1z M494.3,463.3l14.7,47.1l-8.3-0.5
		c-1.8-13-8.3-24.6-17.7-32.8L494.3,463.3z M501,520.9c0.1-1.3,0.2-2.5,0.2-3.8c0-1.8-0.1-3.5-0.3-5.2l8.5,0.5
		c-3.1,1.8-5.4,4.9-6,8.6C502.6,521,501.8,520.9,501,520.9z M447.9,508.9L447.9,508.9c1.5,0,2.8,0.4,4,1.1l-5.2,6.3
		c-0.3,0.4-0.4,0.9-0.3,1.3c0.1,0.3,0.3,0.6,0.5,0.8l3.6,6.6c-0.9,0.3-1.8,0.5-2.7,0.5c-4.6,0-8.3-3.7-8.3-8.3
		C439.7,512.6,443.4,508.9,447.9,508.9z M456.2,517.3c-2.6-0.4-4.4-0.8-5.7-1l3.7-4.5c1.2,1.4,2,3.3,2,5.3
		C456.2,517.2,456.2,517.3,456.2,517.3z M455.6,530.5l0.1-1.2c0-0.3,0-0.5-0.1-0.8l-0.6-1c0.7,0.2,1.2,0.9,1.2,1.7
		C456.2,529.7,456,530.2,455.6,530.5z M452.9,523.7l-2.3-4.3c1.2,0.3,2.9,0.6,5,0.9C455,521.6,454.1,522.8,452.9,523.7z
		 M452.7,528.8l0.4,0.7l-0.1,0.8c-0.2-0.3-0.4-0.6-0.4-1C452.6,529,452.7,528.9,452.7,528.8z M452.3,536.2l-0.5,4
		c-0.1,0.7,0.4,1.4,1.1,1.4c0.1,0,0.1,0,0.1,0c0.7,0,1.2-0.5,1.3-1.2l0.5-4c1.5,0.7,2.5,2.1,2.5,3.8c0,2.3-1.9,4.2-4.2,4.2
		c-2.3,0-4.2-1.9-4.2-4.2C448.9,538.3,450.4,536.6,452.3,536.2z M455.1,534.5l0.1-1.3l1-0.8c1.1-0.6,1.9-1.8,1.9-3.2
		c0-2.1-1.7-3.7-3.7-3.7h-0.5c1.7-1.2,2.9-2.9,3.6-4.9c6.7,1,17.5,2.1,34.3,2.9c-0.8,5.4-2.4,10.4-4.9,15l-28.5,5.3
		c0.6-1,1-2.1,1-3.3C459.3,537.6,457.6,535.4,455.1,534.5z M458.1,517.6c0-0.2,0-0.3,0-0.5c0-2.6-1-5-2.7-6.8l0.8-0.9l35.6,2
		c0.2,1.9,0.4,3.8,0.4,5.8c0,1.1-0.1,2.3-0.2,3.4C475.4,519.7,464.7,518.5,458.1,517.6z M491.6,509.4l-33.8-1.9l19.5-23.6
		C484.6,490.4,489.8,499.3,491.6,509.4z M510.1,514.2l2.2,7.1c-2.4-0.1-4.7-0.1-6.9-0.2C505.9,518.2,507.7,515.7,510.1,514.2z
		 M516.3,517.6l-1.5-4.8c0.2,0,0.4-0.1,0.6-0.1c1.4,0,2.8,0.3,4,0.8C518.4,514.9,517.3,516.2,516.3,517.6z M447.9,561.5
		c-24.5,0-44.4-19.9-44.4-44.4c0-24.5,19.9-44.4,44.4-44.4c10.2,0,19.6,3.5,27.1,9.3l-20.8,25.2l-6.2-0.4v0c0,0,0,0-0.1,0
		c-5.6,0-10.2,4.6-10.2,10.2c0,5.6,4.6,10.2,10.2,10.2h3.2c-0.3,0.5-0.5,1.1-0.5,1.8c0,1.5,0.8,2.7,2.1,3.3l0,0.3l-3.3,2.6l0,0
		c-1.5,1.1-2.5,2.9-2.5,4.9c0,3.4,2.8,6.2,6.2,6.2c0.5,0,1-0.1,1.4-0.2l0,0l30.9-5.7C477.7,553.2,463.8,561.5,447.9,561.5z
		 M500.7,523.8c0.9,0,1.8,0.1,2.7,0.1c0.4,4.5,3.3,8.4,7.3,10.1l-13.3,2.5C499,532.5,500.1,528.2,500.7,523.8z M515.4,533
		c-5.2,0-9.4-3.9-10-9c2.6,0.1,5.2,0.2,8,0.3c0.4,0.5,0.9,0.9,1.6,1c0,0,0,0,0,0l3.6,7.1C517.6,532.8,516.5,533,515.4,533z
		 M525.5,522.9c0,3.4-1.7,6.4-4.3,8.2l-3.6-7.1c1.9-2.5,3.8-5,5.7-7.4C524.6,518.3,525.5,520.5,525.5,522.9z M520.6,512
		c-1.6-0.8-3.3-1.2-5.2-1.2l0,0l-1.3-0.1l-15.4-49.4l80.6-22.8l0.9,2.5C574.7,446.3,558.3,463.2,520.6,512z M618.3,561.5
		c-24.5,0-44.4-19.9-44.4-44.4c0-17.1,9.7-31.9,23.9-39.3l0.7,1.9l-0.8,0.3l12.1,34.2l0.8-0.3l0.2,0.6l6.3,4.4
		c0.4,0.3,0.8,0.4,1.2,0.4c0.7,0,1.3-0.3,1.7-0.9c0.7-1,0.4-2.3-0.5-3l-4.5-3.1l0.3-0.1L603.2,478l-0.8,0.3l-0.8-2.3
		c5.1-2.1,10.8-3.3,16.6-3.3c24.5,0,44.4,19.9,44.4,44.4C662.7,541.6,642.7,561.5,618.3,561.5z"/>
	<path d="M964.7,465.4c-0.4,0-0.7,0-1.1,0.1l0-0.3c0.4,0,0.8-0.1,1.1-0.1v-6.8c-0.5,0-1,0-1.5,0l-0.2-3.6l3.8-1
		c1.5-0.4,2.5-1.9,2.3-3.5l-4.4-27.4l-28.3,8.2l0.5,1.3l-9.5,2.4l-0.5-1.5l6.2-6.5c0.4-0.4,0.6-1.1,0.5-1.7c-0.1-0.6-0.5-1.1-1-1.4
		l-19.9-10.1c-0.3-0.1-0.6-0.2-0.9-0.2h-3.3c-0.6-0.9-1.6-1.5-2.8-1.5h-20.4c-1.9,0-3.4,1.5-3.4,3.4c0,1.9,1.5,3.4,3.4,3.4h20.4
		c1.2,0,2.2-0.6,2.8-1.5h2.8l17.1,8.7l-5.2,5.5c-0.5,0.5-0.7,1.3-0.4,2l2.3,6.8l-1.4,0.5l1.2,3.4c-5.7,2.7-18.2,9.4-26.6,18.5
		c-10.9,11.7-15.1,15.8-22.7,19.7c-5.8,2.9-15.1,7.1-19.7,9.1l-13.3-32.6l2-0.9c0.7-0.3,1.1-1.2,0.8-1.9c-0.3-0.7-1.2-1.1-1.9-0.8
		l-2.9,1.3l-5.5-13.2c0,0,0.1,0,0.1,0c4.1-0.8,10.9-5.5,13.6-7.5c0.7-0.5,0.9-1.5,0.4-2.2c-0.8-1.3-2.1-3.1-3.6-3.9
		c-2.4-1.3-9.6,1.5-12.3,3.1c-2.7,1.7-14.5,0.5-19.7,0c-5.2-0.5-4,3.4-3.9,5c0.1,1.2-0.3,2.4,2,4.4c0.5,0.5,1.7,0.8,3.3,1.1l4.9,8.1
		c0.4,0.6,1,0.9,1.7,0.9c0.3,0,0.7-0.1,1-0.3c0.6-0.4,0.9-1.1,0.9-1.8c0.4-0.3,0.9-0.6,1.3-0.9c1.8-1.3,3.2-2.4,4.9-2.4
		c1,0,1.9-0.1,2.6-0.2l4.7,11.3l-1.7,0.7c-0.7,0.3-1.1,1.2-0.8,1.9c0.2,0.5,0.8,0.9,1.3,0.9c0.2,0,0.4,0,0.6-0.1l0.8-0.3l1.7,4.2
		c-1.5,0.7-2.9,1.5-4.3,2.3L823,454.4c-0.3-0.4-0.8-0.6-1.4-0.6l-60.2-2.9c-1.1,0-2,0.8-2,1.9c-0.1,1.1,0.8,2,1.9,2l18.1,0.9
		c1.1,0.8,3,2.1,5.3,3.9c-8,1.7-15.6,4.9-22.3,9.6l-8.2-2.3l0.5,8.8c-6,5.9-10.9,13-14,21.2c0,0,5.7,0.2,8.9-3.1h0
		c1-1.8,2-3.6,3.2-5.3l0.3,0.2c-5.8,8.5-9.2,18.7-9.2,29.7c0,29.1,23.7,52.8,52.8,52.8c23.7,0,43.9-15.7,50.5-37.3l15.2,2.5
		c0.1,0,0.1,0,0.2,0c0.8,0.1,1.6,0.2,2.5,0.2c3.6,0,7-1.3,9.6-3.4l6.6,5.9l-3.5,4c-1.1,1.2-1,3.1,0.2,4.1c0.6,0.5,1.2,0.7,1.9,0.7
		c0.8,0,1.6-0.3,2.2-1l10.1-11.4c1.1-1.2,1-3.1-0.2-4.1c-1.2-1.1-3.1-1-4.1,0.2l-3.3,3.8l-6.6-5.9c1.5-2.4,2.4-5.2,2.4-8.2
		c0-1.1-0.1-2.1-0.3-3.1c3.2-1.6,6.4-3.6,9.3-5.8c6.3-4.9,9.5-11.3,13-18.1c1.8-3.5,3.6-7.1,6-10.8c4.9-7.7,16.3-18.7,22.1-24.1
		l0.9,2.5l0.9-0.3c0.4,1.1,1.1,2.9,2,5.2c-17.6,10.5-29.4,29.7-29.4,51.6c0,3.9,0.4,7.7,1.1,11.5c0,0,5.2-3.1,5.8-7.9c0,0,0,0,0,0
		c-0.1-1.2-0.1-2.4-0.1-3.6c0-0.4,0.1-0.8,0.1-1.3l0.4,0c0,0.4-0.1,0.8-0.1,1.3c0,29.1,23.7,52.8,52.8,52.8
		c29.1,0,52.8-23.7,52.8-52.8C1017.5,489.1,993.8,465.4,964.7,465.4z M829.9,444.9c-2.4,0-4.2,1.3-6.1,2.8c-0.3,0.2-0.6,0.4-0.9,0.7
		l-2.8-4.6c3.7,0.2,7.9,0.2,11.2-0.1l0.5,1.2C831.1,444.8,830.5,444.9,829.9,444.9z M960.6,465.6c-6.9,0.5-13.5,2.4-19.4,5.4
		c0-0.1-0.1-0.2-0.1-0.3c6-3,12.6-4.9,19.5-5.4L960.6,465.6z M945.7,480.7c4.7-2.4,10-3.9,15.5-4.4l1.7,35.1
		C955.8,500.8,950,489.9,945.7,480.7z M960,515.9l-37.3-1.4c1.2-13.1,8.3-24.4,18.7-31.3C946.1,492.9,952.4,504.6,960,515.9z
		 M849.5,518.6c0-0.1,0-0.2,0-0.4c0-2.8-0.3-5.5-0.7-8.1l0.4,0c0.4,2.7,0.7,5.4,0.7,8.1h0.2c0,0.1,0,0.3-0.1,0.4L849.5,518.6z
		 M848.7,507.2l-0.4,0c-2.7-12.5-9.8-23.3-19.5-30.8c0.1-0.1,0.2-0.2,0.3-0.2C838.9,483.7,846.1,494.6,848.7,507.2z M796.3,514.2
		c-0.2,0.5-0.4,1-0.6,1.4l-1.1-0.8C795,514.5,795.6,514.3,796.3,514.2z M799.9,515.7c0.2,0.2,0.3,0.5,0.4,0.7l-0.8,0
		C799.7,516.2,799.8,516,799.9,515.7z M813,486.7c-1.7-3.2-3.7-6.3-5.9-9.3c3.7,0.9,7.1,2.3,10.4,4.1
		C815.9,483.3,814.4,485,813,486.7z M820.9,483.8c8.2,5.7,14.2,14.3,16.7,24.3l-35.3,2.7C805.8,503.7,812,493.1,820.9,483.8z
		 M825.5,474c-8.3-5.4-18.2-8.6-28.8-8.6c-0.2,0-0.4,0-0.5,0c-0.1-0.1-0.2-0.2-0.4-0.3c0.3,0,0.6,0,0.9,0c10.7,0,20.7,3.2,29.1,8.7
		C825.7,473.8,825.6,473.9,825.5,474z M802.6,476.6c3.2,3.9,6.2,8.2,8.4,12.7c-6.3,8.3-10.7,16.5-13.3,21.9l-1.8,0.1
		c-0.1,0-0.1,0-0.2,0c-1.4,0.2-2.6,0.8-3.6,1.7l-28.6-20.6c7.7-9.9,19.7-16.3,33.2-16.3C798.7,476.1,800.7,476.3,802.6,476.6z
		 M792.8,517.2l2.1,1.5c0.1,0.2,0.1,0.4,0.2,0.6c0.3,0.5,0.9,0.8,1.5,0.9l3.5,0.2c-0.7,1.2-2,2-3.5,2c-2.2,0-4.1-1.8-4.1-4.1
		C792.7,517.9,792.7,517.5,792.8,517.2z M803.3,520.5l35.3,1.6c-0.2,2.4-0.7,4.8-1.3,7.1l-35.7-6
		C802.4,522.4,802.9,521.5,803.3,520.5z M803.5,516.6c-0.3-1.1-0.8-2-1.4-2.8l36.1-2.8c0.4,2.3,0.7,4.7,0.7,7.2L803.5,516.6z
		 M853.2,518.2h3.5c0-1.9-0.1-3.9-0.3-5.8c0.4-0.4,0.9-0.8,1.5-1.2l3.2,7.8l-8.1-0.4C853,518.6,853.1,518.4,853.2,518.2z
		 M863.3,509.1c0.6-0.1,1.2-0.2,1.8-0.2c4.1,0,7.7,2,10,5.1c-3.3,1.6-6.3,2.8-8.3,3.5L863.3,509.1z M855.6,506.7
		c-0.2-0.8-0.3-1.5-0.5-2.3l0.9,2.3L855.6,506.7z M848.2,487.4c-3.5-5.9-8-11.1-13.3-15.4c1.8-1.2,3.7-2.2,5.7-3.1L848.2,487.4z
		 M784.8,455.8l35.9,1.7l10.2,11.4c-9.7-6.7-21.5-10.7-34.1-10.7c-2.7,0-5.4,0.2-8.1,0.6C787.2,457.7,785.9,456.7,784.8,455.8z
		 M754.5,486c8.9-11.6,22.4-19.2,37.2-20.6c0.1,0.1,0.2,0.2,0.3,0.3c-15.1,1.3-28.4,9.1-37.2,20.5L754.5,486z M796.7,560.3
		c-23.2,0-42.1-18.9-42.1-42.1c0-8.7,2.6-16.7,7.1-23.4l28.6,20.6c-0.4,0.9-0.6,1.8-0.6,2.8c0,3.5,2.6,6.4,5.9,6.9c0,0,0.1,0,0.1,0
		l40.7,6.8C830.8,548.4,815.1,560.3,796.7,560.3z M849.3,522.5l0.6,0c0.3,3.7,1.9,6.9,4.3,9.4l-6.3-1
		C848.6,528.2,849.1,525.4,849.3,522.5z M865.1,533.6c-6.3,0-11.5-4.8-12.2-10.9l9.9,0.4c0.5,0.6,1.1,0.9,1.8,1l7.8,7
		C870.4,532.6,867.8,533.6,865.1,533.6z M877.4,521.2c0,2.3-0.7,4.4-1.7,6.2l-5.5-4.9c2-0.8,4.4-1.8,7.1-3
		C877.3,520.1,877.4,520.6,877.4,521.2z M903.3,480.2c-2.5,3.9-4.4,7.7-6.3,11.3c-3.3,6.5-6.1,12.1-11.3,16.2c-2.4,1.9-5.2,3.5-8,5
		c-2.7-4.1-7.4-6.7-12.6-6.7c-0.1,0-0.3,0-0.4,0c0,0-0.1,0-0.1,0l-0.6,0c-0.2,0-0.4,0-0.6,0l-1.3,0.1l-4.6-11.3
		c4.6-2,14.1-6.2,20-9.2c8.2-4.2,12.5-8.4,23.7-20.5c7.8-8.3,19.5-14.7,25.1-17.4l1.9,5.5C923.2,457.8,909.2,470.9,903.3,480.2z
		 M936.7,459.8l0.9-0.3l-7.3-21.2l-1.4,0.5l-0.2-0.5l9.6-2.5l8.1,20.4c0.6,1.5,2.2,2.3,3.7,1.9l9.9-2.7l0.1,3
		c-7.8,0.6-15.2,2.6-21.8,5.9C937.6,462.3,937.1,460.8,936.7,459.8z M911.7,514c1.4-17.3,11.1-32.3,25.1-41c0,0.1,0.1,0.2,0.1,0.3
		c-13.9,8.6-23.5,23.5-24.9,40.7L911.7,514z M964.7,560.3c-23.2,0-42.1-18.9-42.1-42.1c0-0.3,0-0.6,0-0.9l39.5,1.5
		c0.2,0.3,0.4,0.5,0.6,0.8c0.5,0.7,1.2,1,2,1c0.5,0,1-0.1,1.4-0.5c1.1-0.8,1.3-2.3,0.6-3.4c-0.2-0.3-0.4-0.6-0.6-0.8l-2-39.8
		c0.2,0,0.4,0,0.6,0c23.2,0,42.1,18.9,42.1,42.1S987.9,560.3,964.7,560.3z"/>
	<path d="M1298.1,478.3l0.6-3.9h9v2.1c0,0.8,0.6,1.6,1.4,1.8l6,1.7l0.8-11.2l-6.6,0.9c-0.9,0.1-1.6,0.9-1.6,1.9v1h-8.7l0.6-3.4
		l17.2-3.7c0.9-0.2,1.4-1.1,1.3-1.9c-0.2-0.9-1.1-1.5-1.9-1.3l-45.2,9.6l-11.5-51.2c-0.2-0.9-1.1-1.4-2-1.2c-0.9,0.2-1.4,1.1-1.2,2
		l11.8,52.4l-5.8,2.7c-0.2-0.9-0.4-1.7-0.6-2.3l0.7-0.2l-10.1-27.7l-0.6,0.2l-9.3-26.9c-0.2-0.6,0-1.2,0.4-1.6l1.4-1.3
		c1.3-1.2,1.8-2.9,1.4-4.6l-1.7-7.6c-0.3-1.3-1.1-2.4-2.2-3c-1.1-0.7-2.4-0.9-3.7-0.6l-28.5,7.2c-0.9,0.2-1.4,1.1-1.2,2
		c0.2,0.9,1.1,1.4,2,1.2l28.5-7.2c0.4-0.1,0.8,0,1.2,0.2c0.4,0.2,0.6,0.6,0.7,1l1.7,7.6c0.1,0.5-0.1,1.1-0.5,1.5l-1.4,1.3
		c-1.4,1.3-1.9,3.3-1.3,5.1l9.3,26.9l-0.7,0.3l4.3,11.9c-1.4,2.2-16.7,27.9-28.3,48.9h-42.2l-18.3-45.2l0.8-0.3
		c0.5-0.2,0.7-0.7,0.5-1.2c-0.2-0.5-0.7-0.7-1.2-0.5l-1.5,0.6l-7.3-16.9c4.2-1.6,5.5-2.6,6.7-3.6c0.7-0.6,1.4-1.1,2.7-1.8l0,0
		c5.2-0.1,10.4-0.1,9.4-2.4c-1.1-2.5-4.2-4-10-3.3c-5.8,0.7-10.9,1.9-18,1.9s-11.7-1.1-13,1.6c-1.3,2.6-0.7,3.9,5.4,7.5
		c0,0,5.2,3.1,8.3,1.2c0.5,0.2,1.1,0.3,2,0.3c0.8,0,1.7-0.1,2.8-0.3l7.5,17.2l-1.1,0.5c-0.5,0.2-0.7,0.7-0.5,1.2
		c0.1,0.4,0.5,0.6,0.9,0.6c0.1,0,0.2,0,0.4-0.1l0.5-0.2l3.7,9.1c-1.6,1.4-3.4,3.3-5.6,5.6c-3.2-2.8-13.3-11.1-24.3-13.2
		c-0.1,0-0.2,0-0.3,0H1064c-0.9,0-1.6,0.7-1.6,1.6c0,0.9,0.7,1.6,1.6,1.6h14.3l8.2,12.4c-1,0.7-2,1.4-3,2.2
		c-9.6,7.8-16.4,18.7-19.1,30.7c0,0,2.8-0.7,5.5-4.1c0,0,0,0,0,0c3.5-10.3,10.3-19.1,18.9-25.2l0.4,0.6c-12.8,9.1-21.2,24-21.2,40.9
		c0,27.7,22.5,50.2,50.2,50.2c21.7,0,40.2-13.9,47.2-33.3l21.4,3.5c2.7,0.5,5.4,0.1,7.8-0.9l3.1,5.6l-7,2.2
		c-1.2,0.4-1.9,1.7-1.5,2.9c0.3,1,1.2,1.6,2.2,1.6c0.2,0,0.5,0,0.7-0.1l18.1-5.8c1.2-0.4,1.9-1.7,1.5-2.9c-0.4-1.2-1.7-1.9-2.9-1.5
		l-7.5,2.4l-3.4-6.3c3.2-2.4,5.4-6.1,5.8-10.5c0.1-0.7,0-1.3,0-2c7.7-1.4,17.7-5.7,24.3-17.8c9.2-16.9,21.7-38.1,27.3-47.4l2.9,7.9
		l0.2-0.1c0.3,1.4,0.8,3.2,1.4,5.4c-15.5,9.8-25.8,27-25.8,46.7c0,3.9,0.4,7.9,1.2,11.7c0,0,2.7-2.8,3.3-6.1c0,0,0,0,0,0
		c-0.2-1.8-0.3-3.7-0.3-5.6c0-17.7,9.1-33.3,22.8-42.5c0.1,0.2,0.2,0.5,0.2,0.8c-13.4,9-22.3,24.3-22.3,41.7
		c0,27.7,22.5,50.2,50.2,50.2c27.7,0,50.2-22.5,50.2-50.2C1339.1,503,1321.4,482.6,1298.1,478.3z M1154,443.8l-0.7-1.5
		c2.5-1.2,5.2-2.1,7.7-2.4c-0.2,0.2-0.5,0.4-0.7,0.5C1159.3,441.3,1158.1,442.2,1154,443.8z M1148.1,445.1c0.6-0.4,1.2-0.7,1.9-1.1
		l0.4,0.9C1149.5,445,1148.7,445.1,1148.1,445.1z M1163.4,477.2l17,42l-7.8,0c-2-13-8.5-24.6-18-32.9c0.8-0.9,1.6-1.8,2.4-2.6
		c0.3-0.1,0.5-0.2,0.7-0.4c0.2-0.2,0.3-0.5,0.4-0.7C1160.2,480.4,1161.9,478.6,1163.4,477.2z M1168.4,519.2l-0.8,0
		c-1.9-11.5-7.8-21.7-16.2-29.2c0.2-0.2,0.3-0.4,0.5-0.6C1160.4,497.1,1166.4,507.5,1168.4,519.2z M1119.8,519.5v-34.5
		c9.2,0.4,17.7,3.6,24.5,8.9c-7.9,9.1-16.1,19.1-21.4,25.6L1119.8,519.5z M1126.5,519.5c5.3-6.5,12.8-15.5,19.9-23.8
		c6.8,6.1,11.7,14.3,13.6,23.6L1126.5,519.5z M1149.2,488.2c-8.2-6.5-18.3-10.4-29.4-10.8v-0.8c11.3,0.4,21.7,4.4,30,11
		C1149.6,487.8,1149.4,488,1149.2,488.2z M1116.5,519.7c-0.5,0.1-0.9,0.2-1.3,0.4l-19.1-29c6-3.7,13-5.9,20.4-6.1V519.7z
		 M1154.5,482.4c-0.6,0.7-1.3,1.4-1.9,2.1c-9-7.2-20.4-11.7-32.8-12.1V470h12.1C1141.9,472,1151.4,479.7,1154.5,482.4z M1082.2,470
		h34.3v2.4c-9.7,0.3-19.1,3.1-27.3,8.2L1082.2,470z M1091.5,484.2c7.4-4.6,16-7.2,25-7.5v0.8c-9,0.3-17.4,2.9-24.6,7.4L1091.5,484.2
		z M1118.1,570.2c-23.5,0-42.7-19.1-42.7-42.7c0-14.3,7.1-26.9,17.9-34.7l19.1,28.9c-1.5,1.4-2.5,3.4-2.7,5.5
		c-0.4,4.4,2.7,8.4,7.1,9.1l41,6.8C1151.5,559,1136.1,570.2,1118.1,570.2z M1201.7,526.6c-2.5-4.4-7.2-7.4-12.7-7.4l-3,0l-1.6-4
		h35.7C1214.8,522.6,1207.8,525.6,1201.7,526.6z M1262.6,477.8l6.1-2.8c0.3,0.2,0.7,0.4,1,0.4c0.1,0,0.2,0,0.3,0l2.6-0.6
		c-3.4,1.1-6.7,2.4-9.8,4.1C1262.8,478.5,1262.7,478.2,1262.6,477.8z M1264.2,483.1c7.3-4.1,15.8-6.5,24.8-6.5v-4.2
		c-2.3,0-4.6,0.2-6.8,0.4l15-3.2l-1.4,8.3c-2.3-0.3-4.5-0.5-6.9-0.5c-8.9,0-17.3,2.4-24.5,6.4
		C1264.3,483.6,1264.2,483.3,1264.2,483.1z M1288,524.4c-10.1-8.9-16.9-22.3-21.1-33.3c6.4-3.9,13.9-6.2,22-6.2
		c1.9,0,3.8,0.2,5.6,0.4L1288,524.4z M1288.9,570.2c-23.5,0-42.7-19.1-42.7-42.7c0-14.1,6.9-26.6,17.4-34.3
		c4.7,12,12.3,26.6,24.1,35.8l0.5-0.6c0.1,0,0.2,0.1,0.3,0.1c0.1,0,0.1,0,0.2,0c0.6,0,1.1-0.4,1.2-1l7-41.9
		c19.7,3.7,34.7,21.1,34.7,41.9C1331.6,551.1,1312.5,570.2,1288.9,570.2z"/>
	<path d="M620.1,810.2c-6.1,0-11.9,1.1-17.3,3l-4.1-13.1l0.9-0.3l-6.9-23.1l-1.5,0.5l-1.4-4.2l8.7-3.4l-3.8-25
		c-0.5-3-2.6-5.5-5.5-6.4l-16.8-5.4l-1.3,4.2l16.8,5.4c1.3,0.4,2.3,1.5,2.5,2.9l3.3,21.5l-5.2,2l-0.3-0.9l-5.4,1.8l0.4,1.2l-2,0.8
		l1.6,4.1l1.8-0.7l1.2,3.8l-1.5,0.4l1,3.2l-80.1,30l-0.8-2.1l0.4-0.2l-1.2-2.9l-0.9,0.4l-5.8-16.4c0.9-0.6,1.8-1.2,2.6-1.8
		c3.6-2.8,9.6-1.8,12.3-3c2.7-1.2,4.6-2.8,3.3-4c-1.3-1.2-4.6-4.2-10.2-2.6c-5.6,1.6-17.1,4.2-21.3,3.9c-4.2-0.3-19-1.8-12.8,4.7
		c0,0,8.4,7.9,14.1,7.2c2.6-0.3,5.1-1,7.3-2l5.7,15.9l-2.4,0.9l1.2,2.9l1.7-0.7l1.3,3.6l-14.8,11.8c-9.4-11-23.4-18-39-18
		c-28.3,0-51.4,23-51.4,51.4c0,28.3,23,51.4,51.4,51.4c24.3,0,44.7-17,50-39.8l20.7,0.6c0,0,0,0,0,0c0,0,0,0,0,0l0,0c0,0,0,0,0,0
		l0,0c4.1,0,7.9-1.3,11-3.5l3.6,4.1l-4.6,4.1c-1.2,1-1.3,2.8-0.2,4c0.6,0.6,1.3,0.9,2.1,0.9c0.7,0,1.3-0.2,1.9-0.7l11.9-10.7
		c1.2-1,1.3-2.8,0.2-4c-1-1.2-2.8-1.3-4-0.2l-4.5,4.1l-3.5-4.1c3.2-3.4,5.3-8,5.3-13.1c0-3.3-0.8-6.3-2.3-9l56.5-46.8l1.1,3.6
		l0.9-0.3l4.3,13.8c-16.5,8.6-27.7,25.8-27.7,45.6c0,28.3,23,51.4,51.4,51.4s51.4-23,51.4-51.4C671.5,833.3,648.4,810.2,620.1,810.2
		z M501.2,820.2l6.1,17.1l-14.4,3.3c-1.5-3.3-3.4-6.5-5.5-9.4L501.2,820.2z M497,854.8c-0.6-4.1-1.6-8.1-3-11.8l10.1-2.3
		c-3.8,3.5-6.2,8.5-6.2,14L497,854.8z M487.4,861.6c0,3-0.3,6-1,8.8l-33.9-1c2.1-1.7,3.4-4.1,3.7-6.9l31.1-3
		C487.3,860.2,487.4,860.9,487.4,861.6z M453.1,858.5c0.1,0.2,0.1,0.4,0.2,0.5l-1,0.1L453.1,858.5z M452.7,853.9
		c-0.5-0.5-1.1-0.9-1.7-1.2l4.5-1L452.7,853.9z M446.1,854c1.7,0,3.3,0.6,4.6,1.6l-5.8,4.6c-0.7,0.5-0.9,1.4-0.6,2.2
		c0.3,0.7,1,1.2,1.7,1.2c0.1,0,0.1,0,0.2,0l7.4-0.7c-0.6,3.7-3.7,6.5-7.5,6.5c-4.2,0-7.7-3.4-7.7-7.7
		C438.4,857.4,441.9,854,446.1,854z M455.8,858.8c-0.2-0.7-0.4-1.3-0.8-1.9l9-7.1l20-4.6c1.4,3.3,2.4,6.8,2.9,10.5L455.8,858.8z
		 M468.6,846.2l11-8.7c1.3,1.7,2.4,3.5,3.3,5.5L468.6,846.2z M508.4,840.5l4.5,12.7l-12.7,1.2C500.4,848.5,503.6,843.3,508.4,840.5z
		 M518.1,848.8l-3.7-10.4c0.8-0.1,1.6-0.2,2.5-0.2c3.8,0,7.2,1.3,10,3.4L518.1,848.8z M446.1,902.9c-22.8,0-41.3-18.5-41.3-41.3
		c0-22.8,18.5-41.3,41.3-41.3c12.4,0,23.5,5.5,31.1,14.2L460,848.1l-14.8,3.4c0,0-0.1,0-0.1,0c-5.1,0.5-9.2,4.8-9.2,10.1
		c0,5.3,4.1,9.7,9.4,10.1c0.1,0,0.2,0.1,0.3,0.1l40.2,1.1C480.9,890.2,464.9,902.9,446.1,902.9z M496.6,870.7c0.5-3,0.9-6,0.9-9.1
		c0-1-0.1-2.1-0.2-3.1l0.8-0.1c1.1,5.3,4.3,9.8,8.8,12.6L496.6,870.7z M516.8,871.3L516.8,871.3c-8,0-14.6-5.6-16.2-13.1l13.1-1.3
		c0.1,0.1,0.1,0.1,0.1,0.2c0.7,0.9,1.8,1.4,2.9,1.4c0.2,0,0.4-0.1,0.7-0.1l8.7,10C523.5,870.2,520.3,871.3,516.8,871.3z
		 M533.4,854.7c0,4.3-1.7,8.2-4.4,11.2l-8.3-9.5l10.9-9C532.8,849.6,533.4,852.1,533.4,854.7z M528.8,839.9c-3.3-2.7-7.4-4.3-12-4.3
		c-1.1,0-2.3,0.1-3.4,0.3l-6-16.8l79.8-29.8l0.5,1.7L528.8,839.9z M620.1,902.9c-22.8,0-41.3-18.5-41.3-41.3
		c0-15.3,8.4-28.6,20.7-35.8l7.3,23.5c-0.3,1.2-0.1,2.6,0.8,3.6l0.5,0.6l3.7,11.8l4.9-1.5l0.2,0.3c0.8,1,2,1.5,3.1,1.5
		c0.9,0,1.8-0.3,2.6-0.9c1.7-1.4,2-4,0.5-5.8l-9.3-11.2c-0.1-0.2-0.3-0.3-0.5-0.5l-7.6-24.4c4.5-1.6,9.2-2.6,14.3-2.6
		c22.8,0,41.3,18.5,41.3,41.3C661.4,884.4,642.9,902.9,620.1,902.9z"/>
	<path d="M954.5,804.4c-6.3,0-12.3,1.2-17.8,3.3l-0.6-1.5c5.7-2.2,12-3.4,18.5-3.4c3.3,0,6.6,0.3,9.9,0.9l3.1-1.7
		c-4.2-1-8.6-1.5-12.9-1.5c-6.8,0-13.4,1.3-19.4,3.6l-3-6.9l0.5-0.2l-0.2-0.5h42.9c0.8,0,1.5-0.7,1.5-1.5c0-0.6-0.4-1.1-0.9-1.4
		h16.3c0.6,0,1.1-0.5,1.1-1.1s-0.5-1.1-1.1-1.1h-3.8v-11.3h3.8c0.6,0,1.1-0.5,1.1-1.1c0-0.6-0.5-1.1-1.1-1.1h-23.1
		c-3.1,0-6.1,1.3-8.2,3.5l-11.5,12.2h-6.6l-6.7-15c-0.3-0.6-0.9-0.8-1.5-0.6c-0.6,0.3-0.8,0.9-0.6,1.5l6.3,14.1h-8.9l-6.9-20.8
		l-1,0.3l-3.9-13.1l13.3-1.2c0.7-0.1,1.3-0.5,1.6-1.2c0.3-0.7,0.1-1.4-0.4-2l-14.4-15.2c-0.4-0.4-0.9-0.6-1.5-0.6l-28.1,1.5
		c-1,0.1-1.8,0.9-1.8,2c0.1,1,0.9,1.8,2,1.8l27.2-1.5l11.1,11.8l-10.2,1l-0.5-1.7l-4.3,1.3l5.6,18.6l-1.1,0.4l1.7,5.1h-85.9
		l-1.3-4.7l-0.7,0.2l-2.4-8.1c-0.5-1.8-1.7-3.2-3.2-4.1l1.8-0.2c1.7-0.1,3.3-0.8,4.5-2l4.3-4c6.2,0.1,9.6,1.1,10,0.7
		c0.5-0.5-0.7-4.3-3.2-4.7c-2.5-0.4-25.9-0.1-32.1-1.4c-6.2-1.2-7-1.7-8.5,2.1c-0.2,0.7-0.9,1.9,0.8,2.7c0,0,3.7,1.8,7.6,3.3
		l1.6,1.7c1.4,1.5,3.5,2.4,5.6,2.4c0.2,0,0.4,0,0.6,0l0.7-0.1v1.5h2.8c1.8,0,3.4,1.2,3.9,2.9l2.4,8.1l-0.7,0.2l1,3.4h-12.3v4.5h13.6
		l4.2,14.7h-17.8v4.5h15.2l-11.8,11.5c-9.8-9.2-22.9-14.8-37.4-14.8c-13.7,0-26.8,5.1-36.9,14.3c-10,9.2-16.3,21.7-17.5,35.1
		l2.6-2.6c3.8-25.6,25.6-44.6,51.8-44.6c13.8,0,26.4,5.4,35.7,14.2l-1.1,1.1c-9.1-8.5-21.2-13.7-34.6-13.7
		c-28,0-50.8,22.8-50.8,50.8c0,28,22.8,50.8,50.8,50.8c21.4,0,39.7-13.3,47.2-32l21.2,3.8c0.2,0,0.4,0.1,0.6,0.1l0.5,0.1l0,0
		c0.8,0.1,1.5,0.2,2.3,0.2c3.1,0,5.9-0.8,8.4-2.3l6.3,8.3l-4.3,3.7c-1.3,1.1-1.4,3-0.3,4.3c0.6,0.7,1.4,1,2.3,1c0.7,0,1.4-0.2,2-0.7
		l11.1-9.6c1.3-1.1,1.4-3,0.3-4.3c-1.1-1.3-3-1.4-4.3-0.3l-4,3.4l-6.1-8.1c3.2-3,5.1-7.2,5.1-11.9c0-3.4-1.1-6.6-2.9-9.3l46.1-48.1
		c0.1,0.2,0.2,0.3,0.3,0.5c0.3,0.3,0.6,0.4,1,0.4c0.4,0,0.8-0.2,1.1-0.5c1.4-1.6,5-5.1,8.7-6.9l0.5,1.5l0.9-0.3l3.2,7.3
		c-18,8.9-30.4,27.5-30.4,49c0,2.7,0.2,5.5,0.6,8.2l1.9-2.8c-0.2-1.8-0.3-3.6-0.3-5.4c0-20.5,11.9-38.3,29.1-46.9l0.6,1.5
		c-16.7,8.3-28.1,25.5-28.1,45.4c0,28,22.8,50.8,50.8,50.8c28,0,50.8-22.8,50.8-50.8C1005.3,827.2,982.5,804.4,954.5,804.4z
		 M986.2,791.5h-7.6v-11.3h7.6V791.5z M962.6,783c1.7-1.8,4.1-2.8,6.5-2.8h7.2v11.3h-21.8L962.6,783z M819,762.5
		c-1.6,0.1-3.2-0.4-4.4-1.4c2.1,0.7,4,1.1,4.9,0.9c3.1-0.8,6.4-4.3,14.4-4.6c0.2,0,0.3,0,0.5,0l-3.1,2.8c-1,0.9-2.3,1.5-3.6,1.6
		l-7.7,0.7h-0.2v0L819,762.5z M835.2,784.6h86.1l0.7,2.2l-12.1,12.6h-70.6L835.2,784.6z M905.6,803.9l-42.1,43.9
		c-2.5-1.6-5.5-2.5-8.7-2.5l0,0l-2.3,0l-11.8-41.4H905.6z M851.7,859.2l-9.9-0.9c1-3.8,3.7-7,7.2-8.7L851.7,859.2z M833.6,857.6
		c0-0.8,0.1-1.5,0.1-2.3c0-2.4-0.2-4.7-0.5-7l1.6,0c0.3,2.3,0.5,4.6,0.5,7h2.3c0-2.4-0.2-4.7-0.5-7l8.1,0c-3.3,2.3-5.7,5.7-6.6,9.8
		L833.6,857.6z M783,848.2L783,848.2c1.1,0,2.2,0.3,3.2,0.8l-4.7,4.7c-0.6,0.6-0.8,1.5-0.5,2.4c0.3,0.8,1,1.4,1.9,1.5l6.6,0.6
		c-1.1,2.5-3.6,4.2-6.4,4.2c-0.4,0-0.9-0.1-1.3-0.1l-0.2,0c-3.2-0.7-5.6-3.5-5.6-6.9C775.9,851.4,779.1,848.2,783,848.2z
		 M815.9,826.1c4.8,5.4,8.2,11.9,9.9,19.1l-29.3,0L815.9,826.1z M834.4,845.2l-1.6,0c-1.8-9.1-6.1-17.2-12.1-23.9l1.1-1.1
		C828.1,827.2,832.5,835.7,834.4,845.2z M823.5,818.6l13-12.8l11.2,39.4l-11,0C834.8,835.1,830.2,826,823.5,818.6z M789.3,852.2
		c0.2,0.4,0.4,0.9,0.5,1.4l-1.8-0.2L789.3,852.2z M792.5,858.4l34,3.1c-0.4,2.9-1.1,5.8-2.1,8.5l-35.6-6.5
		C790.5,862.2,791.8,860.5,792.5,858.4z M792.9,853.9c-0.2-1.4-0.7-2.7-1.4-3.9l1.8-1.8l33,0c0.4,2.3,0.6,4.6,0.6,7
		c0,0.6-0.1,1.1-0.1,1.7L792.9,853.9z M855.5,856.1l-2.2-7.7c0.5-0.1,0.9-0.1,1.4-0.1c2.4,0,4.6,0.7,6.5,1.8L855.5,856.1z
		 M783,899.3c-24.3,0-44-19.7-44-44s19.7-44,44-44c11.5,0,21.9,4.4,29.7,11.7L790,845.2l-7,0l0,0c0,0,0,0,0,0
		c-5.6,0-10.1,4.5-10.1,10.1c0,4.8,3.4,8.8,7.9,9.8l0,0l0.1,0c0.1,0,0.1,0,0.2,0l42.3,7.7C816.5,888.4,801,899.3,783,899.3z
		 M833.2,862.1l5.1,0.5c0.2,4.2,1.9,8,4.7,10.8l-11.8-2.1C832.1,868.3,832.8,865.2,833.2,862.1z M854.8,875.3
		c-0.9,0-1.7-0.1-2.5-0.3l-0.3,0c-5.7-1.2-10.1-6.1-10.6-12.1l12.7,1.2l7.2,9.5C859.3,874.6,857.1,875.3,854.8,875.3z M868.2,861.8
		c0,3.7-1.5,7.1-3.9,9.5l-6.1-8.1l8-8.4C867.5,856.8,868.2,859.2,868.2,861.8z M922.4,796.2l2-2.1l0.3,0.8
		C923.9,795.3,923.1,795.7,922.4,796.2z M954.5,899.3c-24.3,0-44-19.7-44-44c0-17.1,9.8-31.9,24.1-39.2l17.5,40.2
		c0.4,1,1.4,1.6,2.4,1.6c0.4,0,0.7-0.1,1.1-0.2c1.3-0.6,2-2.1,1.4-3.5L939.4,814c4.7-1.7,9.8-2.7,15.1-2.7c24.3,0,44,19.7,44,44
		S978.7,899.3,954.5,899.3z"/>
</g>
</svg>
