<?xml version="1.0" encoding="utf-8"?>
<!-- Generator: Adobe Illustrator 18.0.0, SVG Export Plug-In . SVG Version: 6.00 Build 0)  -->
<!DOCTYPE svg PUBLIC "-//W3C//DTD SVG 1.1//EN" "http://www.w3.org/Graphics/SVG/1.1/DTD/svg11.dtd">
<svg version="1.1" xmlns="http://www.w3.org/2000/svg" xmlns:xlink="http://www.w3.org/1999/xlink" x="0px" y="0px"
	 viewBox="0 0 1400 980" enable-background="new 0 0 1400 980" xml:space="preserve">
<g id="Background">
	<rect x="-24" y="-20.9" fill="#000016" width="1452" height="1028"/>
</g>
<g id="Object">
	<path fill="#BCE4E5" d="M612.5,286.4c-9.3-5.8-18-23.8-30.8-39.6c-12.8-15.7-19.8-36.1-20.9-39c-1.2-2.9,0.6-18.6,0.6-18.6
		s-13.4,8.1-14.5,13.4c-1.2,5.2-1.7,18,1.2,21.5c2.9,3.5,9.3,12.2,7,14.5c-26.2-11.6-37.2-33.7-64-58.7s-40.7-57.6-40.7-57.6
		c-7.6,9.3-7,22.7-12.8,24.4c-5.8,1.7-13.4-5.8-13.4-5.8s6.4,13.4,9.3,15.7s9.3-0.6,12.2,1.2c9.3,12.2,29.1,35.5,24.4,34.3
		c-8.1-1.2-23.3-23.8-25-23.8c-1.7,0-6.4,6.4-12.2,2.9c-28.5-25.6-74.5-116.9-76.2-113.4c-1.7,3.5-7.6,18.6-27.3,49.4
		s-50.6,65.1-50.6,65.1c4.7,3.5,21.5,29.7,20.4,34.3c-21.5-8.7-45.4-57.6-47.1-55.3c-1.7,2.3-5.8,18-36.1,57s-66.3,69.2-67.5,66.3
		c-1.2-2.9,20.4-23.8,20.4-25.6c0-1.7-9.9-21.5-11.6-20.4c-1.7,1.2-4.1,14.5-27.3,39c-23.3,24.4-46,32.6-46,32.6H634
		C634,300.4,621.8,292.2,612.5,286.4z M283.8,249.2l2.3-12.2l-21.5-11.1l-3.5,9.3l-5.8-12.2c0,0-14,13.4-15.7,20.4
		c-1.7,7-5.2,12.8-5.2,12.8l-4.1-13.4c0,0-5.2,8.1-8.7,14c-3.5,5.8-18,16.3-18,16.3l2.3-11.1c0,0-35.5,20.4-48.9,25
		c0,0,27.3-22.7,34.3-29.7c7-7,33.2-36.1,33.2-36.1l4.7,8.7c0,0,1.7-20.4,2.3-22.7s11.6-11.6,12.2-14.5c0.6-2.9,11.6-17.4,11.6-17.4
		s16.9,26.8,24.4,34.9c7.6,8.1,37.8,18.6,37.8,18.6l-4.7,8.1l22.7,8.1c0,0-28.5,0-33.7,0S283.8,249.2,283.8,249.2z M334.4,273.6H324
		c0,0-2.3-5.8-3.5-8.1c-1.2-2.3-11.1-8.7-11.1-8.7l13.4-3.5l16.9,6.4l1.7,8.7l8.1,18L334.4,273.6z M375.2,247.5
		c0,0-1.7-20.9-4.7-27.3s-11.6-11.1-11.6-19.2c0-8.1-3.5-23.3-3.5-23.3s9.9,13.4,11.6,19.8s8.1,10.5,9.9,18
		C378.6,223,375.2,247.5,375.2,247.5z M458.9,220.7c0,0-14-9.3-18-15.1c0,0-2.3,11.6-2.9,9.9c-0.6-1.7-12.8-16.9-22.7-22.7
		s-18.6-7.6-18.6-7.6s8.7-7.6,5.8-9.9c-2.9-2.3-15.1-14-15.1-14s7.6,0.6,7.6-1.7c0-2.3-15.7-15.7-15.7-15.7s-2.9,26.2,0,42.5
		c0,0-15.1-19.8-17.4-26.2c-2.3-6.4-4.7-17.4-4.7-17.4s-16.3,19.8-19.8,22.1v-14.5c0,0-19.2,18-20.9,18.6
		c-1.7,0.6-14.5-1.2-19.8,2.9c0,0,23.3-29.7,36.6-50c13.4-20.4,24.4-39.6,24.4-39.6s22.7,40.7,33.2,57c10.5,16.3,30.2,44.2,35.5,46
		c5.2,1.7,17.4,0,17.4,0s30.2,25,50,34.9c0,0-23.8-5.2-30.8-8.1C456,209.1,458.9,220.7,458.9,220.7z M485.1,243.4
		c-10.5-10.5-12.8-11.6-12.2-13.4l10.5,2.3c0,0,11.6,6.4,15.7,12.8c4.1,6.4,11.1,26.2,11.1,26.2
		C507.2,260.2,495.6,253.9,485.1,243.4z M560.1,276.5C551.4,276,538,269,538,269s7-2.3,5.8-8.1c-1.2-5.8-13.4-20.4-18-26.2
		l22.1,12.8c0,0,7,15.1,16.9,20.4c9.9,5.2,18,17.4,18,17.4S568.8,277.1,560.1,276.5z"/>
	<path fill="#BCE4E5" d="M591.8,847.5c0,0-6.4,2.9-11.6,0c-5.2-2.9-57-48.3-57-48.3l-21.5,10.5L433,748.6c0,0-18.6,7.6-20.4,7.6
		s-52.9-41.9-52.9-41.9s-66.3,68.1-66.9,69.8c-0.6,1.7-29.7-15.1-31.4-13.4s-50.6,52.9-50.6,52.9l-20.4-14.5c0,0-61.7,51.2-75,64.6
		c-13.4,13.4-57.6,46.5-57.6,46.5s603.7,1.7,602-1.2C658.1,916.1,591.8,847.5,591.8,847.5z M179.4,872.5
		c-1.7,10.5-8.7,20.9-8.7,20.9s-3.5-20.4-7-20.4s-12.8,8.1-12.8,8.1s-14,4.7-16.3,6.4c-2.3,1.7-32,15.7-32,15.7s31.4-24.4,37.2-31.4
		c5.8-7,52.3-47.1,52.3-47.1s17.4,7.6,19.8,7.6s-15.7,4.7-15.7,4.7l-5.8,5.8l11.1,5.8C201.5,848.6,181.2,862,179.4,872.5z
		 M324.8,830l-16.9-6.4l-8.1,4.1l-25-2.3l-9.3-7.6l-9.3,4.7l-8.7,8.1l-5.8,9.3l-16.9,3.5l-14.5,5.8l18-18.6l-7.6-1.7l30.2-24.4v-7.6
		l14-11.1l27.3,9.9l8.7-1.2c0,0,19.2,23.8,22.7,25c3.5,1.2,18,7,18,7L324.8,830z M484.2,820.7l-9.9,4.7l-19.8-15.7l-7,7.6l-17.4-7
		l-2.3,11.1l20.4,32.6l-43.6-32l-13.4-8.1l15.1-1.2l-14.5-20.4L369,780.6l-2.9-10.5l-20.4,17.4l-4.1-14l-23.8,9.9l16.3-16.3l4.1-14
		l22.1-20.4l50,41.9l19.8-9.9l82.6,70.4L484.2,820.7z M560.4,876.5l8.1-5.8l-52.3-47.1l13.4-1.2l44.8,34.9l12.2,2.3l46,48.3
		l-51.8-29.1L560.4,876.5z"/>
	<path fill="#BCE4E5" d="M1230.6,798.9l-20.2,20.9l-86.9-83l-16.3,12.4l-45.8-41.9l-86.9,86.1L953,768.7l-81.4,74.5L856,828.4
		l-81.4,92.3H1347L1230.6,798.9z M869.2,872.6l-7.8,7l-5.4-3.9L839.8,892l-3.9-5.4l-34.1,19.4l55.8-58.2l34.1,32.6L869.2,872.6z
		 M952.2,787.3l15.5,14l-15.5,17.8l-5.4-7l-15.5,17.1v-11.6l-38.8,24.8L952.2,787.3z M1146.9,829.2l10.9-18.6l-23.3-9.3l-14,5.4
		l2.3-7l-24.8,12.4l-48.1,33.3l24.8-34.1l-23.3,11.6l7-11.6l-30.2,16.3l7.8-14.7l-79.9,54.3l23.3-31l-65.1,33.3l149.7-142.7
		l41.9,39.6l17.8-10.9l75.2,69l-29.5-10.9L1146.9,829.2z M1274.8,887.3l-26.4-19.4l-13.2,3.1l0.8-15.5l-20.9,5.4l2.3-12.4
		l-32.6,16.3l47.3-46.5l86.9,89.2l-44.2-29.5V887.3z"/>
	<path fill="#BCE4E5" d="M621.5,631.7c-1.7-6.4-11.6-15.7-15.7-16.3c-4.1-0.6-12.8-9.9-20.9-18.6s-15.7-19.2-19.2-25
		c-3.5-5.8-7.6-8.1-13.4-12.8s-16.9-25-21.5-29.1c-4.7-4.1-14.5,0-22.1-1.7s-8.7-9.9-12.2-16.3c-3.5-6.4-7.6-3.5-14.5-8.1
		s-15.7-25.6-18-27.9c-2.3-2.3-14-1.2-19.2-2.9c-5.2-1.7-18.6-17.4-25-24.4c-6.4-7-11.1-20.9-15.1-25.6s-9.3-3.5-18.6-9.9
		c-9.3-6.4-19.8-37.8-23.3-33.7c-3.5,14-16.9,26.2-20.9,33.7c-4.1,7.6-19.8,30.8-24.4,37.2c-4.7,6.4-15.1,21.5-19.2,27.9
		c-4.1,6.4-18,24.4-20.4,27.9c-2.3,3.5-24.4,30.8-27.3,29.1s-13.4-14.5-16.9-17.4s-18-22.7-18-22.7l-14,20.9c0,0-18,16.3-20.9,20.9
		c-2.9,4.7-9.9,25-9.9,25l-17.4,16.3l-10.5-6.4c0,0-7,12.2-8.1,18c-1.2,5.8-12.2,18.6-12.2,18.6s-12.2,16.9-13.4,19.2
		c-1.2,2.3-25,24.4-25,24.4s553.7,3.5,549.7-2.3S623.2,638.1,621.5,631.7z M256.8,545.6c0,0,22.7-19.2,29.1-30.2
		c6.4-11.1,23.8-36.6,23.8-36.6l20.4-12.8l-4.1,12.2l-0.6,16.9l-12.8,11.1l-8.7,20.9l-26.8,18.6l-30.2,19.8L256.8,545.6z
		 M302.2,550.3L276,571.2L242.8,584l45.4-33.7H302.2z M159.6,602.1c4.1-3.5,13.4-7.6,13.4-7.6l-2.9,17.4h-17.4l-16.3-4.7
		C136.4,607.3,155.6,605.5,159.6,602.1z M168.4,620.1l-5.8,7.6l-13.4-5.8C149.2,621.8,164.9,620.7,168.4,620.1z M216.1,590.4
		l-21.5,9.9c0,0-6.4,23.8-8.7,29.7c-2.3,5.8-28.5,14.5-28.5,14.5s12.8-8.7,20.9-22.1c8.1-13.4,7.6-32,7.6-32l23.3-18l8.1-22.7
		l-7,0.6l-7,7.6l-2.9-8.7l-12.8,5.8l0.6-11.1c0,0,9.9-10.5,13.4-14s13.4-14,13.4-14l17.4,16.9l15.7,11.6l-24.4,25L216.1,590.4z
		 M262,586.9c4.1-1.7,23.8-11.6,23.8-11.6l-1.7,11.1l7.6,7.6c0,0-29.7,5.8-34.3,5.8c-4.7,0-23.3-1.2-23.3-1.2S257.9,588.7,262,586.9
		z M256.2,610.8c0,0,28.5-3.5,31.4-4.1l3.5,10.5h-21.5L256.2,610.8z M349.8,553.2c0,0-5.8,10.5-9.9,21.5
		c-4.1,11.1-15.7,29.7-19.8,33.2c-4.1,3.5-34.9,31.4-34.9,31.4s17.4-23.8,18-25.6c0.6-1.7,12.8-51.8,12.8-51.8l-20.9,9.9
		c0,0,29.7-27.3,32-36.1l-12.2,1.2c0,0,12.8-14.5,16.3-25.6c3.5-11.1,4.7-26.8,4.7-26.8s14.5,26.8,14,32c-0.6,5.2-9.9,40.7-9.9,40.7
		L349.8,553.2z M426,600.3c-7.6-11.6-23.8-19.8-23.8-19.8l11.6-2.3c-5.8-9.3-29.1-20.9-29.1-20.9l20.9-2.3
		c-4.7-7.6-33.7-26.8-33.7-26.8s11.6-2.3,11.6-5.2c0-2.9-5.2-18.6-5.2-18.6c2.3-6.4,0.6-18,0.6-18l8.1,11.6l8.7-8.1
		c0,0-1.7,10.5,0,14.5c1.7,4.1,11.6,10.5,11.6,10.5l4.7-8.1c0,0,9.3,11.6,9.9,16.9c0.6,5.2,3.5,22.7,3.5,22.7l9.3-3.5
		c0,0-4.7,18-3.5,25.6c1.2,7.6,4.1,19.8,4.7,25.6c0.6,5.8,4.7,28.5,4.7,28.5S433.6,611.9,426,600.3z M476.1,596.8
		c-1.7-0.6-17.4-6.4-17.4-6.4l-1.7-11.6c0,0,14.5,5.8,19.2,7.6c4.7,1.7,19.8,4.7,19.8,4.7S477.8,597.4,476.1,596.8z M484.2,578.8
		c-2.3,0-9.9-9.9-15.1-12.2s-18-12.2-18-12.2l1.2-10.5c0,0,19.8,11.6,20.4,13.4c0.6,1.7,15.1,14,15.1,14l22.7,12.2
		C510.4,583.4,486.5,578.8,484.2,578.8z M504,561.3l-5.2,1.7c0,0-14-16.9-19.2-20.9c-5.2-4.1-17.4-11.1-17.4-11.1l8.7-5.2
		l-11.1-13.4l-5.2,4.7l-4.7-7.6c0,0-10.5,19.8-13.4,22.7c0,0-1.2-16.3-3.5-20.9c-2.3-4.7-16.3-19.8-21.5-20.9l-2.3-18l-9.9-7.6
		l-8.7-3.5c0,0,1.2,10.5,2.3,16.9c0,0-11.6-6.4-14.5-14c-2.9-7.6-7-17.4-7-17.4s-7,12.2-10.5,19.2c-3.5,7-10.5,12.2-10.5,12.2
		s1.7-8.7,1.7-14.5s-3.5-15.1-3.5-15.1l-11.6,5.8l-8.1,1.7c0,0,14.5-18.6,16.9-22.7c2.3-4.1,5.8-14,5.8-14l15.1-18.6
		c0,0,11.6,20.4,14.5,23.8c2.9,3.5,16.3,8.1,16.3,8.1s5.8,18,14,25c8.1,7,22.1,19.8,24.4,21.5c2.3,1.7,18,4.7,19.8,4.7
		c1.7,0,14,24.4,18,26.8c4.1,2.3,14,7.6,14,7.6l11.6,17.4l14,8.1c0,0,0,15.1,1.7,18c1.7,2.9,5.2,20.4,5.2,20.4L504,561.3z
		 M566.2,617.8c-5.2-1.7-17.4-3.5-22.7-5.2c-5.2-1.7-14.5-9.9-14.5-9.9s13.4-0.6,16.3-0.6c2.9,0,12.2-5.2,12.2-5.2
		c-4.7-5.2-24.4-12.8-24.4-12.8l10.5-8.1c0,0-13.4-7.6-15.7-11.1s-1.7-19.8-1.7-19.8l10.5,16.9l12.8,7.6l6.4,11.1
		c0,0,11.1,15.1,15.7,21.5c4.7,6.4,20.9,22.7,20.9,22.7S571.5,619.5,566.2,617.8z"/>
	<path fill="#BCE4E5" d="M1309.7,241.7c-7-14-37.2-43-37.2-43c-7,0-14,5.8-14,5.8l-10.5-18.6l-10.5,7c-4.7-7-27.5-43.5-37.2-57
		c-7-9.7-17.4-19.8-17.4-19.8s-7.3,4.8-9.2,5.7c-14,7.3-39.7,24.5-39.7,24.5s-20.9-34.9-31.4-47.7s-38.4-37.2-38.4-37.2
		s-38.4,44.2-46.5,54.7c-8.1,10.5-37.2,43-37.2,43c-1.2-3.5-27.9-26.8-27.9-26.8s-14,18.6-19.8,22.1s-36.1,29.1-47.7,43
		s-26.8,27.9-26.8,27.9l-10.5-7l-18.6,31.4c0,0-12.8,20.9-22.1,26.8c-9.3,5.8-19.8,23.3-19.8,23.3s269.9,1.2,310.6,0
		c40.7-1.2,236.1-2.3,236.1-2.3S1316.7,255.7,1309.7,241.7z M852.6,280.1l-4.7-9.3c0,0-23.3,12.8-33.7,15.1c0,0,17.4-10.5,23.3-22.1
		s12.8-29.1,12.8-29.1s9.3,16.3,15.1,18.6c5.8,2.3-4.7,10.5-4.7,10.5l9.3,10.5L852.6,280.1z M920,181.2c9.3-8.1,31.4-26.8,34.9-26.8
		l-4.7,24.4l-31.4,20.9l-40.7,27.9C878.2,227.7,910.7,189.4,920,181.2z M1037.5,182.4l-27.9,29.1l26.8-4.7l-22.1,20.9l18.6,3.5
		c0,0-19.8,16.3-19.8,20.9c0,4.7,7,25.6,12.8,26.8c0,0-48.9,1.2-60.5,4.7l-10.5-5.8l-45.4,9.3l14-10.5l-30.2,7
		c0,0,29.1-18.6,33.7-29.1l-22.1-1.2c0,0,39.6-22.1,50-36.1l-19.8,1.2c0,0,29.1-32.6,37.2-41.9c0,0,36.1-34.9,79.1-77.9l-17.4,50
		l29.1-7l-40.7,27.9L1037.5,182.4z M1193.4,228.9c-12.8,3.5-65.1,36.1-65.1,36.1s19.8-26.8,20.9-34.9c1.2-8.1,24.4-33.7,24.4-33.7
		c-7,0-32.6,8.1-32.6,8.1l15.1-19.8l-41.9,9.3c5.8-8.1,31.4-30.2,31.4-30.2s-17.4,2.3-14-1.2s44.2-31.4,44.2-31.4
		s24.4,29.1,36.1,44.2c11.6,15.1,34.9,52.3,34.9,52.3S1206.2,225.4,1193.4,228.9z M1296.9,268.5c-4.7-1.2-30.2,2.3-30.2,2.3
		l10.5-12.8l-33.7,1.2c0,0,17.4-11.6,19.8-15.1c2.3-3.5-4.7-20.9-4.7-20.9s10.5-5.8,14-5.8c0,0,20.9,26.8,27.9,34.9
		s16.3,34.9,16.3,34.9S1301.6,269.6,1296.9,268.5z"/>
	<path fill="#BCE4E5" d="M1235.3,557.7l-14.7,17.8l-62-110.1l-20.2,22.5l-74.5-126.4l-67.5,113.2l-22.5-16.3L901,580.2l-14.7-14
		L832,651.6l457.6,1.6L1235.3,557.7z M900.3,615.9l-12.4,10.9l-3.1-10.9l-33.3,26.4c0,0,33.3-51.2,36.4-56.6l17.1,14.7L915,581
		c0,0-0.8,21.7-0.8,26.4c0,4.7,1.6,20.9,1.6,20.9L900.3,615.9z M1014.3,588.7L998,566.3l17.1,11.6l11.6,14l4.7,31L1014.3,588.7z
		 M1123.6,583.3l-23.3,22.5l11.6-26.4l2.3-16.3l20.9-7.8L1123.6,583.3z M1169.4,543l-6.2,16.3l-9.3-23.3l-5.4,17.1l-12.4-21.7
		l-19.4,19.4l-0.8-40.3l-12.4,9.3l-15.5-38l-11.6,10.9l-14.7-27.1l-7,32.6l-18.6-9.3l-10.9,25.6l-11.6,2.3l-3.9,23.3l7.8,28.7
		l-24.8-30.2L981.7,550l-10.1-6.2l-12.4,17.1l-4.7-9.3l-28.7,27.1l24-37.2h-12.4l39.6-61.3l20.2,15.5l65.1-103.1l75.2,113.2
		l20.2-20.2l48.9,93.8L1169.4,543z M1241.5,619.8l-12.4-4.7l-18.6,18.6l6.2-19.4l-0.8-13.2l2.3-12.4l7.8,6.2l10.1-14.7l29.5,58.2
		l-21.7-24.8L1241.5,619.8z"/>
</g>
<g id="Designed_by_Vecteezy">
	<g>
		<g>
			<g>
				<path fill="#594A42" d="M732.3,937.7c0.8,0,1.6,0.7,1.6,0.7L720,968.2c-1.5,0-5.2,0.2-6.1,0.2c-0.8,0-1.6-0.7-1.6-0.7l-4.8-29.8
					c2.9,0,6.5-0.2,7.6-0.2c0.8,0,1.6,0.7,1.6,0.7l1.5,14.6c0.1,1.3,0.1,3,0.1,4.8c0.5-2,1-3.9,1.5-5.2l5.8-14.7
					C728.1,937.9,731.3,937.7,732.3,937.7L732.3,937.7z"/>
			</g>
			<g>
				<path fill="#594A42" d="M746.6,952.4c0,3.2-1.8,5.4-6.3,6.3l-4.7,1c0.4,2,1.6,3,3.8,3c2.6,0,4.4-2,4.4-2s1.3,0.7,1.3,2.3
					c0,2.7-4.1,5.6-9,5.6c-4.9,0-8.1-3.1-8.1-8.3c0-6,4.3-14.2,11.9-14.2C744,946.1,746.6,948.6,746.6,952.4L746.6,952.4z
					 M738.6,955.5c1-0.3,1.3-1.2,1.3-2.1c0-0.9-0.3-2.2-1.3-2.2c-1.9,0-2.7,3-3,5.3L738.6,955.5z"/>
			</g>
			<g>
				<path fill="#594A42" d="M759.4,946.1c3.8,0,6.7,2,6.7,4.7c0,3.3-4,4.5-4,4.5s-1.2-3.6-3.9-3.6c-1.8,0-2.9,1.8-2.9,5.8
					c0,3.6,1,5.2,3.3,5.2c2.4,0,3.9-1.6,3.9-1.6s1.3,0.7,1.3,2.2c0,2.6-4,5.3-8.6,5.3c-4.9,0-8-3.1-8-8.2
					C747.3,954.3,751.7,946.1,759.4,946.1L759.4,946.1z"/>
			</g>
			<g>
				<path fill="#594A42" d="M777.8,941.3c0.9,0,1.5,0.7,1.5,0.7l-0.7,4.5h4.8l-1.1,3.5c-0.4,1.1-0.9,1.7-2,1.7h-2.5l-1.4,8.9
					c-0.2,1.4,0.1,2.1,1.1,2.1c0.9,0,1.8-0.5,1.8-0.5s1.3,0.7,1.3,2.2c0,2.2-3.1,4.3-7,4.3c-4.1,0-5.8-2.5-5.1-7l1.6-9.9h-2.6
					l1.1-3.6c0.3-0.9,1.1-1.6,2-1.6h1.3l1.5-4.2C775.2,941.9,777,941.3,777.8,941.3L777.8,941.3z"/>
			</g>
			<g>
				<path fill="#594A42" d="M801.2,952.4c0,3.2-1.8,5.4-6.3,6.3l-4.7,1c0.4,2,1.6,3,3.8,3c2.6,0,4.4-2,4.4-2s1.3,0.7,1.3,2.3
					c0,2.7-4.1,5.6-9,5.6c-4.9,0-8.1-3.1-8.1-8.3c0-6,4.3-14.2,11.9-14.2C798.6,946.1,801.2,948.6,801.2,952.4L801.2,952.4z
					 M793.2,955.5c1-0.3,1.3-1.2,1.3-2.1c0-0.9-0.3-2.2-1.3-2.2c-1.9,0-2.7,3-3,5.3L793.2,955.5z"/>
			</g>
			<g>
				<path fill="#594A42" d="M820.5,952.4c0,3.2-1.8,5.4-6.3,6.3l-4.7,1c0.4,2,1.6,3,3.8,3c2.6,0,4.4-2,4.4-2s1.3,0.7,1.3,2.3
					c0,2.7-4.1,5.6-9,5.6c-4.9,0-8.1-3.1-8.1-8.3c0-6,4.3-14.2,11.9-14.2C817.9,946.1,820.5,948.6,820.5,952.4L820.5,952.4z
					 M812.5,955.5c1-0.3,1.3-1.2,1.3-2.1c0-0.9-0.3-2.2-1.3-2.2c-1.9,0-2.7,3-3,5.3L812.5,955.5z"/>
			</g>
			<g>
				<path fill="#594A42" d="M836.3,960.5c0,0,1.6,1.5,1.6,4c0,3.3-2.8,4.2-5.2,4.2c-3.1,0-5.3-1.5-7.6-2.3c-0.6,0.7-1.3,1.5-1.9,2.3
					c0,0-3.5-0.1-3.5-2.4c0-2.9,4.8-7.8,9.9-13.4c-0.6-0.1-1.2-0.2-1.7-0.2c-2.9,0-4.1,1.5-4.1,1.5s-1.5-1.7-1.4-4
					c0.2-3.1,3.1-4,5.5-4c2.5,0,4.3,1,6.1,1.7l1.5-1.7c0,0,3.5,0.1,3.5,2.5c0,2.8-4.6,7.6-9.6,13c1.1,0.3,2,0.5,3,0.5
					C835.1,962.2,836.3,960.5,836.3,960.5L836.3,960.5z"/>
			</g>
			<g>
				<path fill="#594A42" d="M858.7,966.7c-1.2,7.6-6.4,11.4-13,11.4c-4.2,0-7.3-2.2-7.3-4.8c0-1.7,1.4-2.5,1.4-2.5s1.4,1.3,4.2,1.3
					c2.6,0,6.2-1.1,6.8-5.1l0.5-3.1c-1.8,2.6-4.1,4.6-7.1,4.6c-3.3,0-4.8-2.7-3.9-8.3l0.9-6c0.6-3.7,0.7-6.7,0.7-6.7
					c2.4-0.4,5.5-1.5,6.6-1.5c0.8,0,1.6,0.7,1.6,0.7l-1.2,7.5l-1.1,6.9c-0.1,0.6,0,1,0.6,1c2.8,0,4.3-7.9,4.3-7.9
					c0.6-3.7,0.7-6.7,0.7-6.7c2.4-0.4,5.5-1.5,6.6-1.5c0.9,0,1.6,0.7,1.6,0.7l-1.2,7.5L858.7,966.7z"/>
			</g>
		</g>
		<g>
			<path fill="#594A42" d="M538.1,947.4h7.4c1.7,0,3,0.1,3.8,0.4c1.2,0.3,2.2,1,3,1.9c0.8,0.9,1.5,2,1.9,3.3
				c0.4,1.3,0.7,2.9,0.7,4.8c0,1.7-0.2,3.1-0.6,4.3c-0.5,1.5-1.2,2.7-2.2,3.6c-0.7,0.7-1.7,1.2-2.9,1.6c-0.9,0.3-2.1,0.4-3.6,0.4
				h-7.7V947.4z M542.2,950.8v13.4h3c1.1,0,2-0.1,2.5-0.2c0.7-0.2,1.2-0.4,1.6-0.8c0.4-0.4,0.8-1,1.1-1.9c0.3-0.9,0.4-2.1,0.4-3.7
				s-0.1-2.8-0.4-3.6c-0.3-0.8-0.7-1.5-1.2-2c-0.5-0.5-1.1-0.8-1.9-0.9c-0.6-0.1-1.7-0.2-3.3-0.2H542.2z"/>
			<path fill="#594A42" d="M566.4,962.9l3.9,0.6c-0.5,1.4-1.3,2.5-2.3,3.2s-2.4,1.1-4,1.1c-2.5,0-4.4-0.8-5.6-2.5
				c-1-1.3-1.4-3-1.4-5c0-2.4,0.6-4.3,1.9-5.7c1.3-1.4,2.9-2.1,4.8-2.1c2.2,0,3.9,0.7,5.1,2.2c1.3,1.4,1.9,3.6,1.8,6.6h-9.7
				c0,1.1,0.3,2,0.9,2.7c0.6,0.6,1.3,1,2.2,1c0.6,0,1.1-0.2,1.5-0.5C565.8,964.1,566.2,963.6,566.4,962.9z M566.6,959
				c0-1.1-0.3-2-0.9-2.6c-0.6-0.6-1.2-0.9-2-0.9c-0.8,0-1.5,0.3-2.1,0.9c-0.6,0.6-0.8,1.4-0.8,2.5H566.6z"/>
			<path fill="#594A42" d="M571.6,963.4l3.9-0.6c0.2,0.8,0.5,1.3,1,1.7c0.5,0.4,1.2,0.6,2.1,0.6c1,0,1.8-0.2,2.3-0.6
				c0.3-0.3,0.5-0.6,0.5-1c0-0.3-0.1-0.5-0.3-0.7c-0.2-0.2-0.6-0.4-1.3-0.5c-3.1-0.7-5.1-1.3-5.9-1.9c-1.2-0.8-1.7-1.9-1.7-3.3
				c0-1.3,0.5-2.3,1.5-3.2c1-0.9,2.6-1.3,4.7-1.3c2,0,3.5,0.3,4.5,1c1,0.7,1.6,1.6,2,2.9l-3.6,0.7c-0.2-0.6-0.5-1-0.9-1.3
				c-0.4-0.3-1.1-0.5-1.9-0.5c-1,0-1.7,0.1-2.2,0.4c-0.3,0.2-0.4,0.5-0.4,0.8c0,0.3,0.1,0.5,0.4,0.7c0.3,0.3,1.6,0.6,3.6,1.1
				c2.1,0.5,3.5,1,4.3,1.7c0.8,0.7,1.2,1.6,1.2,2.9c0,1.3-0.6,2.5-1.7,3.5c-1.1,1-2.8,1.4-5,1.4c-2,0-3.6-0.4-4.7-1.2
				C572.8,965.8,572,964.7,571.6,963.4z"/>
			<path fill="#594A42" d="M588.1,950.9v-3.6h3.9v3.6H588.1z M588.1,967.5v-14.6h3.9v14.6H588.1z"/>
			<path fill="#594A42" d="M595,968.5l4.4,0.5c0.1,0.5,0.2,0.9,0.5,1.1c0.4,0.3,0.9,0.4,1.7,0.4c1,0,1.8-0.2,2.3-0.5
				c0.3-0.2,0.6-0.5,0.8-1c0.1-0.3,0.2-0.9,0.2-1.8v-2.1c-1.2,1.6-2.6,2.4-4.4,2.4c-2,0-3.5-0.8-4.7-2.5c-0.9-1.3-1.3-2.9-1.3-4.9
				c0-2.4,0.6-4.3,1.8-5.6c1.2-1.3,2.6-1.9,4.4-1.9c1.8,0,3.3,0.8,4.5,2.4v-2.1h3.6V966c0,1.7-0.1,3-0.4,3.9s-0.7,1.5-1.2,2
				c-0.5,0.5-1.2,0.9-2.1,1.1c-0.9,0.3-1.9,0.4-3.3,0.4c-2.5,0-4.2-0.4-5.3-1.3c-1-0.8-1.6-1.9-1.6-3.2
				C595,968.8,595,968.7,595,968.5z M598.5,959.9c0,1.6,0.3,2.7,0.9,3.4c0.6,0.7,1.3,1.1,2.2,1.1c0.9,0,1.7-0.4,2.4-1.1
				c0.7-0.7,1-1.8,1-3.3c0-1.5-0.3-2.6-0.9-3.4c-0.6-0.7-1.4-1.1-2.4-1.1c-0.9,0-1.7,0.4-2.3,1.1
				C598.8,957.3,598.5,958.4,598.5,959.9z"/>
			<path fill="#594A42" d="M625.3,967.5h-3.9v-7.5c0-1.6-0.1-2.6-0.2-3.1c-0.2-0.5-0.4-0.8-0.8-1.1c-0.4-0.3-0.8-0.4-1.3-0.4
				c-0.7,0-1.3,0.2-1.8,0.6c-0.5,0.4-0.9,0.9-1.1,1.5c-0.2,0.6-0.3,1.7-0.3,3.4v6.6H612v-14.6h3.6v2.1c1.3-1.7,2.9-2.5,4.8-2.5
				c0.9,0,1.6,0.2,2.3,0.5c0.7,0.3,1.2,0.7,1.6,1.2c0.4,0.5,0.6,1,0.8,1.6c0.1,0.6,0.2,1.5,0.2,2.6V967.5z"/>
			<path fill="#594A42" d="M637.2,962.9l3.9,0.6c-0.5,1.4-1.3,2.5-2.3,3.2s-2.4,1.1-4,1.1c-2.5,0-4.4-0.8-5.6-2.5
				c-1-1.3-1.4-3-1.4-5c0-2.4,0.6-4.3,1.9-5.7c1.3-1.4,2.9-2.1,4.8-2.1c2.2,0,3.9,0.7,5.1,2.2c1.3,1.4,1.9,3.6,1.8,6.6h-9.7
				c0,1.1,0.3,2,0.9,2.7c0.6,0.6,1.3,1,2.2,1c0.6,0,1.1-0.2,1.5-0.5C636.6,964.1,636.9,963.6,637.2,962.9z M637.4,959
				c0-1.1-0.3-2-0.9-2.6c-0.6-0.6-1.2-0.9-2-0.9c-0.8,0-1.5,0.3-2.1,0.9c-0.6,0.6-0.8,1.4-0.8,2.5H637.4z"/>
			<path fill="#594A42" d="M657.2,967.5h-3.6v-2.1c-0.6,0.8-1.3,1.5-2.1,1.9c-0.8,0.4-1.6,0.6-2.5,0.6c-1.7,0-3.1-0.7-4.3-2
				c-1.2-1.4-1.8-3.2-1.8-5.7c0-2.5,0.6-4.4,1.7-5.7c1.2-1.3,2.6-1.9,4.4-1.9c1.6,0,3,0.7,4.2,2v-7.3h3.9V967.5z M646.9,959.9
				c0,1.6,0.2,2.7,0.6,3.4c0.6,1,1.5,1.5,2.6,1.5c0.9,0,1.6-0.4,2.3-1.1c0.6-0.8,0.9-1.9,0.9-3.4c0-1.7-0.3-2.9-0.9-3.6
				c-0.6-0.7-1.4-1.1-2.3-1.1c-0.9,0-1.7,0.4-2.3,1.1C647.2,957.4,646.9,958.5,646.9,959.9z"/>
			<path fill="#594A42" d="M667.6,967.5v-20.2h3.9v7.3c1.2-1.4,2.6-2,4.2-2c1.8,0,3.3,0.6,4.4,1.9c1.2,1.3,1.7,3.1,1.7,5.6
				c0,2.5-0.6,4.4-1.8,5.8c-1.2,1.3-2.6,2-4.3,2c-0.8,0-1.7-0.2-2.5-0.6c-0.8-0.4-1.5-1-2.1-1.9v2.1H667.6z M671.4,959.9
				c0,1.5,0.2,2.6,0.7,3.4c0.7,1,1.6,1.5,2.7,1.5c0.9,0,1.6-0.4,2.2-1.1c0.6-0.7,0.9-1.9,0.9-3.4c0-1.7-0.3-2.9-0.9-3.6
				c-0.6-0.7-1.4-1.1-2.3-1.1c-0.9,0-1.7,0.4-2.3,1.1C671.7,957.3,671.4,958.4,671.4,959.9z"/>
			<path fill="#594A42" d="M682.6,952.9h4.1l3.5,10.4l3.4-10.4h4l-5.2,14.1l-0.9,2.5c-0.3,0.9-0.7,1.5-1,2c-0.3,0.4-0.7,0.8-1.1,1.1
				c-0.4,0.3-0.9,0.5-1.5,0.7c-0.6,0.2-1.2,0.2-2,0.2c-0.7,0-1.5-0.1-2.2-0.2l-0.3-3c0.6,0.1,1.2,0.2,1.6,0.2c0.9,0,1.6-0.3,2-0.8
				c0.4-0.5,0.8-1.2,1-2L682.6,952.9z"/>
		</g>
	</g>
</g>
</svg>
